<svg version="1.1" xmlns="http://www.w3.org/2000/svg" viewBox="0 0 629.3333740234375 300.8020782470703" width="629.3333740234375" height="300.8020782470703">
  <!-- svg-source:excalidraw -->
  
  <defs>
    <style>
      @font-face {
        font-family: "Virgil";
        src: url("https://excalidraw.com/Virgil.woff2");
      }
      @font-face {
        font-family: "Cascadia";
        src: url("https://excalidraw.com/Cascadia.woff2");
      }
    </style>
  </defs>
  <rect x="0" y="0" width="629.3333740234375" height="300.8020782470703" fill="#fff0"></rect><g stroke-linecap="round" transform="translate(10 10) rotate(0 0.5 0.5)"><path d="M-0.06 -0.03 C0.4 -0.08, 0.7 0.04, 0.91 0.03 M0.05 -0.04 C0.42 -0.05, 0.75 0.03, 0.99 0.01 M1.08 -0.06 C1.09 0.27, 1.05 0.48, 1.09 0.92 M0.97 0.01 C0.95 0.33, 0.98 0.72, 1 0.99 M1.03 1.06 C0.65 1.06, 0.49 0.96, -0.03 0.97 M1 1.02 C0.74 0.96, 0.52 1.04, -0.04 0.98 M-0.04 1.01 C0 0.63, -0.06 0.15, 0.05 -0.03 M-0.04 0.95 C-0.04 0.73, -0.03 0.59, -0.05 -0.02" stroke="transparent" stroke-width="0.5" fill="none"></path></g><g transform="translate(74.66668701171875 38.13542175292969) rotate(0 -2 25.99999237060547)" stroke="none"><path fill="#1864ab" d="M -0.20,1.02 Q -0.20,1.02 -1.21,1.08 -2.22,1.14 -2.01,2.76 -1.80,4.37 -1.75,7.33 -1.71,10.30 -1.87,14.47 -2.03,18.64 -2.10,23.05 -2.16,27.47 -2.18,32.22 -2.21,36.97 -2.22,40.52 -2.22,44.08 -2.23,46.35 -2.23,48.63 -2.78,50.28 -3.34,51.93 -3.35,52.04 -3.37,52.14 -3.42,52.24 -3.47,52.33 -3.55,52.40 -3.63,52.48 -3.72,52.52 -3.82,52.57 -3.92,52.58 -4.03,52.59 -4.13,52.57 -4.24,52.54 -4.33,52.49 -4.42,52.43 -4.49,52.35 -4.56,52.27 -4.60,52.17 -4.64,52.07 -4.64,51.97 -4.65,51.86 -4.62,51.76 -4.59,51.66 -4.53,51.57 -4.47,51.48 -4.38,51.42 -4.30,51.35 -4.20,51.32 -4.10,51.28 -3.99,51.28 -3.89,51.29 -3.79,51.32 -3.68,51.35 -3.60,51.42 -3.52,51.48 -3.46,51.57 -3.40,51.66 -3.37,51.76 -3.34,51.86 -3.35,51.97 -3.35,52.08 -3.39,52.17 -3.43,52.27 -3.50,52.35 -3.57,52.43 -3.66,52.49 -3.75,52.54 -3.86,52.57 -3.96,52.59 -4.07,52.58 -4.17,52.57 -4.27,52.52 -4.36,52.48 -4.44,52.40 -4.52,52.33 -4.57,52.24 -4.62,52.14 -4.63,52.04 -4.65,51.93 -4.65,51.93 -4.65,51.93 -5.20,50.28 -5.75,48.62 -5.74,46.34 -5.73,44.06 -5.71,40.51 -5.69,36.95 -5.65,32.18 -5.61,27.41 -5.52,22.95 -5.44,18.49 -5.25,14.41 -5.06,10.34 -5.08,7.42 -5.11,4.51 -5.12,2.21 -5.13,-0.07 -4.60,-0.79 -4.07,-1.51 -2.84,-1.71 -1.61,-1.91 -0.70,-1.47 0.20,-1.02 0.32,-0.98 0.44,-0.95 0.55,-0.88 0.66,-0.81 0.74,-0.72 0.83,-0.63 0.90,-0.52 0.96,-0.41 0.99,-0.29 1.03,-0.17 1.04,-0.04 1.04,0.08 1.02,0.20 0.99,0.32 0.94,0.44 0.88,0.55 0.80,0.65 0.73,0.75 0.62,0.83 0.52,0.90 0.41,0.95 0.29,1.00 0.17,1.02 0.04,1.04 -0.07,1.03 -0.20,1.02 -0.20,1.02 L -0.20,1.02 Z"></path></g><g transform="translate(42 38.80207824707031) rotate(0 27.666671752929688 -4.666664123535156)" stroke="none"><path fill="#1864ab" d="M -1.15,-0.28 Q -1.15,-0.28 -0.95,-1.27 -0.75,-2.27 1.87,-3.68 4.51,-5.09 8.32,-6.18 12.12,-7.26 16.83,-8.11 21.54,-8.95 26.24,-9.50 30.94,-10.05 35.84,-10.29 40.75,-10.53 44.17,-10.63 47.58,-10.73 51.03,-10.35 54.47,-9.96 54.58,-9.94 54.68,-9.93 54.78,-9.88 54.87,-9.83 54.95,-9.76 55.02,-9.68 55.07,-9.58 55.11,-9.49 55.13,-9.38 55.14,-9.28 55.12,-9.17 55.10,-9.07 55.04,-8.98 54.99,-8.89 54.91,-8.82 54.83,-8.75 54.73,-8.70 54.64,-8.66 54.53,-8.66 54.42,-8.65 54.32,-8.67 54.22,-8.70 54.13,-8.76 54.04,-8.82 53.97,-8.90 53.91,-8.98 53.87,-9.08 53.84,-9.18 53.84,-9.29 53.83,-9.40 53.87,-9.50 53.90,-9.60 53.96,-9.69 54.02,-9.77 54.11,-9.83 54.20,-9.89 54.30,-9.92 54.40,-9.95 54.51,-9.95 54.61,-9.95 54.71,-9.91 54.81,-9.87 54.89,-9.80 54.98,-9.74 55.03,-9.65 55.09,-9.56 55.11,-9.45 55.14,-9.35 55.13,-9.24 55.12,-9.14 55.08,-9.04 55.03,-8.94 54.96,-8.86 54.89,-8.79 54.80,-8.73 54.70,-8.68 54.60,-8.66 54.50,-8.65 54.50,-8.65 54.50,-8.65 51.08,-8.14 47.67,-7.63 44.28,-7.54 40.89,-7.44 36.09,-7.22 31.29,-7.00 26.68,-6.47 22.07,-5.93 17.51,-5.13 12.94,-4.32 9.36,-3.33 5.77,-2.33 3.65,-1.56 1.52,-0.79 1.33,-0.25 1.15,0.28 1.10,0.42 1.05,0.55 0.96,0.67 0.88,0.79 0.77,0.88 0.67,0.98 0.54,1.04 0.41,1.11 0.27,1.14 0.13,1.18 -0.00,1.18 -0.14,1.18 -0.28,1.14 -0.42,1.11 -0.55,1.04 -0.67,0.97 -0.78,0.88 -0.89,0.78 -0.97,0.66 -1.05,0.54 -1.10,0.41 -1.15,0.28 -1.17,0.13 -1.18,-0.00 -1.17,-0.14 -1.15,-0.28 -1.15,-0.28 L -1.15,-0.28 Z"></path></g><g transform="translate(88.66668701171875 44.80207824707031) rotate(0 10.999984741210938 21)" stroke="none"><path fill="#1864ab" d="M 1.19,0 Q 1.19,0 1.35,1.91 1.51,3.83 1.54,6.37 1.57,8.91 1.60,12.10 1.63,15.28 1.83,18.51 2.04,21.73 2.13,24.48 2.22,27.24 2.26,30.14 2.30,33.04 2.32,35.04 2.34,37.04 2.20,37.98 2.07,38.93 2.42,39.36 2.77,39.78 2.74,39.99 2.72,40.19 2.65,40.39 2.57,40.58 2.46,40.75 2.34,40.93 2.18,41.06 2.03,41.20 1.84,41.30 1.66,41.40 1.46,41.45 1.26,41.50 1.05,41.50 0.84,41.50 0.64,41.45 0.44,41.40 0.25,41.31 0.07,41.21 -0.08,41.08 -0.23,40.94 -0.35,40.77 -0.47,40.60 -0.55,40.40 -0.62,40.21 -0.65,40.00 -0.67,39.80 -0.36,38.64 -0.05,37.49 0.65,35.69 1.37,33.90 2.48,31.91 3.59,29.93 5.06,27.89 6.52,25.86 7.79,24.83 9.05,23.80 10.93,23.70 12.81,23.60 14.37,24.51 15.93,25.41 17.19,26.86 18.44,28.31 19.39,30.18 20.34,32.04 21.09,33.75 21.85,35.47 22.47,38.36 23.09,41.26 23.11,41.36 23.13,41.47 23.12,41.57 23.10,41.68 23.05,41.77 23.01,41.87 22.93,41.94 22.86,42.01 22.76,42.06 22.66,42.11 22.56,42.12 22.45,42.14 22.35,42.11 22.25,42.09 22.15,42.04 22.06,41.99 21.99,41.91 21.92,41.83 21.88,41.73 21.84,41.63 21.83,41.53 21.82,41.42 21.85,41.32 21.87,41.22 21.93,41.13 21.99,41.04 22.07,40.97 22.16,40.91 22.26,40.87 22.36,40.83 22.46,40.83 22.57,40.83 22.67,40.86 22.77,40.89 22.86,40.96 22.94,41.02 23.00,41.10 23.07,41.19 23.10,41.29 23.13,41.39 23.12,41.50 23.12,41.61 23.08,41.71 23.05,41.81 22.98,41.89 22.91,41.97 22.82,42.03 22.73,42.08 22.63,42.11 22.52,42.13 22.42,42.12 22.31,42.12 22.22,42.07 22.12,42.03 22.04,41.96 21.96,41.89 21.91,41.79 21.86,41.70 21.86,41.70 21.86,41.70 20.24,39.30 18.62,36.89 17.90,35.24 17.18,33.60 16.45,32.06 15.73,30.53 14.85,29.40 13.96,28.27 13.20,27.62 12.44,26.96 11.57,26.80 10.70,26.64 10.00,27.27 9.30,27.90 7.95,29.76 6.60,31.63 5.59,33.41 4.57,35.19 3.91,36.84 3.24,38.49 3.00,39.14 2.77,39.78 2.74,39.99 2.72,40.19 2.65,40.39 2.57,40.58 2.46,40.75 2.34,40.93 2.18,41.06 2.03,41.20 1.84,41.30 1.66,41.40 1.46,41.45 1.26,41.50 1.05,41.50 0.84,41.50 0.64,41.45 0.44,41.40 0.25,41.31 0.07,41.21 -0.08,41.08 -0.23,40.94 -0.35,40.77 -0.47,40.60 -0.55,40.40 -0.62,40.21 -0.65,40.00 -0.67,39.80 -0.71,39.94 -0.75,40.09 -0.90,38.57 -1.05,37.06 -1.06,35.07 -1.07,33.08 -1.10,30.21 -1.12,27.34 -1.20,24.63 -1.27,21.92 -1.45,18.60 -1.63,15.28 -1.60,12.10 -1.57,8.91 -1.54,6.37 -1.51,3.83 -1.35,1.91 -1.19,0 -1.17,-0.14 -1.15,-0.28 -1.10,-0.41 -1.05,-0.55 -0.97,-0.67 -0.89,-0.79 -0.78,-0.88 -0.67,-0.98 -0.55,-1.04 -0.42,-1.11 -0.28,-1.14 -0.14,-1.18 0.00,-1.18 0.14,-1.18 0.28,-1.14 0.42,-1.11 0.55,-1.04 0.67,-0.98 0.78,-0.88 0.89,-0.79 0.97,-0.67 1.05,-0.55 1.10,-0.41 1.15,-0.28 1.17,-0.14 1.19,0.00 1.19,0.00 L 1.19,0 Z"></path></g><g transform="translate(120 62.80207824707031) rotate(0 1.000030517578125 10.333343505859375)" stroke="none"><path fill="#1864ab" d="M 1.27,0.10 Q 1.27,0.10 1.32,2.42 1.38,4.74 1.50,6.55 1.62,8.36 1.86,10.28 2.10,12.19 2.48,15.59 2.87,18.99 2.88,19.10 2.89,19.20 2.87,19.31 2.85,19.41 2.79,19.50 2.74,19.59 2.66,19.66 2.58,19.73 2.48,19.77 2.38,19.81 2.28,19.82 2.17,19.82 2.07,19.80 1.97,19.77 1.88,19.71 1.79,19.65 1.72,19.57 1.66,19.48 1.62,19.38 1.59,19.28 1.59,19.18 1.59,19.07 1.62,18.97 1.65,18.87 1.72,18.78 1.78,18.70 1.87,18.64 1.96,18.58 2.06,18.55 2.16,18.52 2.27,18.52 2.37,18.53 2.47,18.57 2.57,18.61 2.65,18.67 2.73,18.74 2.79,18.83 2.85,18.92 2.87,19.03 2.89,19.13 2.88,19.24 2.87,19.34 2.83,19.44 2.78,19.54 2.71,19.61 2.64,19.69 2.54,19.74 2.45,19.79 2.35,19.81 2.24,19.83 2.14,19.81 2.03,19.80 1.94,19.75 1.84,19.70 1.77,19.62 1.70,19.54 1.65,19.45 1.61,19.35 1.61,19.35 1.61,19.35 0.06,15.99 -1.47,12.63 -1.71,10.60 -1.95,8.57 -2.05,6.51 -2.14,4.45 -1.70,2.17 -1.27,-0.10 -1.23,-0.25 -1.20,-0.40 -1.14,-0.54 -1.07,-0.68 -0.97,-0.80 -0.88,-0.92 -0.75,-1.01 -0.63,-1.10 -0.49,-1.16 -0.35,-1.22 -0.19,-1.25 -0.04,-1.27 0.10,-1.26 0.25,-1.24 0.40,-1.19 0.54,-1.15 0.67,-1.06 0.80,-0.98 0.91,-0.87 1.02,-0.76 1.09,-0.63 1.17,-0.49 1.21,-0.34 1.25,-0.20 1.26,-0.04 1.27,0.10 1.27,0.10 L 1.27,0.10 Z"></path></g><g transform="translate(140.66668701171875 66.13542175292969) rotate(0 0.666656494140625 10.666671752929688)" stroke="none"><path fill="#1864ab" d="M -0.85,0.85 Q -0.85,0.85 -1.55,0.40 -2.25,-0.03 -2.71,-0.33 -3.16,-0.62 -1.27,1.45 0.62,3.53 2.96,6.28 5.29,9.03 6.05,11.88 6.80,14.72 6.26,16.97 5.72,19.22 4.15,20.93 2.57,22.63 -0.36,23.37 -3.31,24.12 -3.41,24.14 -3.51,24.17 -3.62,24.16 -3.73,24.15 -3.82,24.11 -3.92,24.07 -4.00,24.00 -4.08,23.93 -4.13,23.84 -4.19,23.75 -4.21,23.64 -4.23,23.54 -4.22,23.43 -4.20,23.33 -4.16,23.23 -4.11,23.14 -4.04,23.06 -3.96,22.98 -3.87,22.94 -3.77,22.89 -3.67,22.87 -3.56,22.86 -3.46,22.88 -3.35,22.90 -3.26,22.95 -3.17,23.00 -3.09,23.08 -3.02,23.16 -2.98,23.25 -2.94,23.35 -2.93,23.46 -2.92,23.56 -2.94,23.67 -2.97,23.77 -3.02,23.86 -3.08,23.95 -3.16,24.02 -3.24,24.08 -3.34,24.12 -3.44,24.16 -3.55,24.16 -3.66,24.17 -3.76,24.14 -3.86,24.11 -3.95,24.04 -4.03,23.98 -4.10,23.90 -4.16,23.81 -4.19,23.71 -4.22,23.61 -4.22,23.50 -4.22,23.40 -4.18,23.30 -4.15,23.20 -4.08,23.11 -4.02,23.03 -3.93,22.97 -3.84,22.91 -3.84,22.91 -3.84,22.91 -1.84,21.48 0.14,20.04 1.30,19.05 2.47,18.06 2.96,16.67 3.46,15.29 3.05,13.18 2.64,11.07 0.43,8.49 -1.77,5.91 -4.09,3.27 -6.41,0.64 -6.09,-1.00 -5.77,-2.65 -3.70,-3.03 -1.64,-3.42 -0.84,-2.84 -0.04,-2.26 0.40,-1.55 0.85,-0.85 0.94,-0.73 1.03,-0.62 1.09,-0.49 1.15,-0.35 1.17,-0.21 1.20,-0.07 1.19,0.07 1.18,0.21 1.14,0.35 1.09,0.49 1.02,0.61 0.94,0.74 0.84,0.84 0.74,0.94 0.61,1.02 0.49,1.09 0.35,1.14 0.21,1.18 0.07,1.19 -0.07,1.20 -0.21,1.17 -0.35,1.15 -0.49,1.09 -0.62,1.03 -0.73,0.94 -0.85,0.85 -0.85,0.85 L -0.85,0.85 Z"></path></g><g transform="translate(122.66668701171875 44.80207824707031) rotate(0 0.33331298828125 0.33333587646484375)" stroke="none"><path fill="#1864ab" d="M 1.23,-0.38 Q 1.23,-0.38 1.25,-0.07 1.27,0.23 1.14,0.51 1.02,0.79 0.77,0.99 0.53,1.18 0.22,1.23 -0.07,1.29 -0.37,1.20 -0.67,1.10 -0.89,0.89 -1.11,0.67 -1.20,0.37 -1.29,0.07 -1.23,-0.22 -1.18,-0.53 -0.99,-0.77 -0.79,-1.02 -0.51,-1.14 -0.23,-1.27 0.07,-1.25 0.38,-1.23 0.65,-1.07 0.91,-0.91 1.07,-0.65 L 1.23,-0.38 Z"></path></g><g transform="translate(198.66668701171875 67.46876525878906) rotate(0 0.666656494140625 12.666656494140625)" stroke="none"><path fill="#1864ab" d="M 1.30,0 Q 1.30,0 1.48,2.10 1.66,4.21 2.05,6.30 2.43,8.40 2.61,10.97 2.79,13.54 2.86,15.78 2.94,18.01 2.46,21.35 1.98,24.69 1.96,24.80 1.95,24.90 1.90,25.00 1.85,25.09 1.77,25.17 1.70,25.24 1.60,25.29 1.50,25.33 1.40,25.34 1.29,25.36 1.19,25.34 1.09,25.31 0.99,25.26 0.90,25.21 0.83,25.13 0.76,25.05 0.72,24.95 0.68,24.85 0.67,24.74 0.67,24.64 0.69,24.54 0.72,24.43 0.78,24.34 0.84,24.26 0.92,24.19 1.01,24.13 1.11,24.09 1.21,24.06 1.31,24.05 1.42,24.05 1.52,24.09 1.62,24.12 1.71,24.18 1.79,24.24 1.85,24.33 1.91,24.42 1.94,24.52 1.97,24.62 1.97,24.73 1.96,24.83 1.93,24.93 1.89,25.03 1.82,25.12 1.75,25.20 1.66,25.25 1.57,25.31 1.47,25.33 1.36,25.36 1.26,25.35 1.15,25.34 1.06,25.29 0.96,25.25 0.88,25.18 0.80,25.11 0.75,25.01 0.70,24.92 0.68,24.81 0.66,24.71 0.66,24.71 0.66,24.71 0.09,21.42 -0.48,18.12 -0.54,15.94 -0.60,13.77 -0.75,11.37 -0.90,8.97 -1.28,6.59 -1.66,4.22 -1.48,2.11 -1.30,0 -1.28,-0.15 -1.26,-0.31 -1.20,-0.45 -1.15,-0.60 -1.06,-0.73 -0.97,-0.86 -0.85,-0.96 -0.73,-1.07 -0.60,-1.14 -0.46,-1.21 -0.30,-1.25 -0.15,-1.29 0.00,-1.29 0.15,-1.29 0.30,-1.25 0.46,-1.21 0.60,-1.14 0.73,-1.07 0.85,-0.96 0.97,-0.86 1.06,-0.73 1.15,-0.60 1.20,-0.45 1.26,-0.31 1.28,-0.15 1.30,0.00 1.30,0.00 L 1.30,0 Z"></path></g><g transform="translate(220.66668701171875 72.13542175292969) rotate(0 -1 7.6666717529296875)" stroke="none"><path fill="#1864ab" d="M -0.96,0.64 Q -0.96,0.64 -1.52,0.18 -2.08,-0.26 -2.56,-0.74 -3.03,-1.21 -4.10,-1.43 -5.17,-1.65 -6.53,-1.80 -7.89,-1.95 -8.71,-1.74 -9.52,-1.53 -10.16,-0.76 -10.80,0.01 -11.01,0.04 -11.23,0.06 -11.44,0.04 -11.65,0.01 -11.85,-0.06 -12.05,-0.13 -12.22,-0.25 -12.40,-0.38 -12.54,-0.54 -12.68,-0.70 -12.78,-0.89 -12.88,-1.08 -12.93,-1.28 -12.98,-1.49 -12.98,-1.70 -12.98,-1.92 -12.93,-2.13 -12.88,-2.33 -12.78,-2.52 -12.68,-2.71 -12.54,-2.87 -12.39,-3.03 -12.22,-3.15 -12.04,-3.27 -11.84,-3.35 -11.64,-3.42 -9.22,-2.02 -6.79,-0.61 -4.73,0.19 -2.66,1.01 0.84,2.77 4.35,4.53 6.35,5.78 8.34,7.04 9.42,9.60 10.50,12.15 10.41,14.02 10.32,15.89 7.91,17.47 5.50,19.06 3.40,19.66 1.29,20.27 -1.14,20.05 -3.58,19.84 -3.68,19.83 -3.79,19.83 -3.89,19.80 -3.99,19.76 -4.07,19.69 -4.16,19.63 -4.21,19.54 -4.27,19.45 -4.30,19.35 -4.32,19.24 -4.32,19.14 -4.31,19.03 -4.27,18.93 -4.23,18.84 -4.15,18.76 -4.08,18.68 -3.99,18.62 -3.90,18.57 -3.80,18.55 -3.69,18.53 -3.59,18.54 -3.48,18.56 -3.39,18.60 -3.29,18.65 -3.21,18.73 -3.14,18.80 -3.09,18.90 -3.04,18.99 -3.03,19.10 -3.01,19.20 -3.03,19.31 -3.05,19.41 -3.10,19.50 -3.16,19.60 -3.23,19.67 -3.31,19.74 -3.41,19.78 -3.51,19.82 -3.61,19.83 -3.72,19.84 -3.82,19.82 -3.93,19.79 -4.02,19.74 -4.11,19.68 -4.17,19.60 -4.24,19.51 -4.28,19.41 -4.31,19.31 -4.32,19.21 -4.32,19.10 -4.29,19.00 -4.26,18.90 -4.20,18.81 -4.14,18.73 -4.05,18.66 -3.97,18.60 -3.86,18.57 -3.76,18.54 -3.76,18.54 -3.76,18.54 -1.70,17.68 0.34,16.82 2.06,16.37 3.78,15.91 5.85,15.01 7.92,14.10 7.54,13.72 7.16,13.33 6.67,11.49 6.18,9.64 4.48,8.66 2.77,7.68 -0.61,5.97 -3.99,4.27 -6.43,3.25 -8.87,2.23 -9.84,1.12 -10.80,0.01 -11.01,0.04 -11.23,0.06 -11.44,0.04 -11.65,0.01 -11.85,-0.06 -12.05,-0.13 -12.22,-0.25 -12.40,-0.38 -12.54,-0.54 -12.68,-0.70 -12.78,-0.89 -12.88,-1.08 -12.93,-1.28 -12.98,-1.49 -12.98,-1.70 -12.98,-1.92 -12.93,-2.13 -12.88,-2.33 -12.78,-2.52 -12.68,-2.71 -12.54,-2.87 -12.39,-3.03 -12.22,-3.15 -12.04,-3.27 -11.84,-3.35 -11.64,-3.42 -11.23,-4.05 -10.82,-4.68 -9.18,-5.07 -7.53,-5.46 -5.80,-5.22 -4.07,-4.99 -2.37,-4.29 -0.68,-3.59 -0.06,-2.81 0.55,-2.03 0.76,-1.33 0.96,-0.64 1.03,-0.52 1.09,-0.39 1.12,-0.25 1.15,-0.12 1.15,0.01 1.15,0.15 1.11,0.29 1.08,0.43 1.01,0.55 0.94,0.67 0.85,0.78 0.75,0.88 0.64,0.96 0.52,1.04 0.39,1.08 0.26,1.13 0.12,1.15 -0.01,1.16 -0.15,1.14 -0.29,1.12 -0.42,1.07 -0.55,1.02 -0.67,0.94 -0.78,0.85 -0.87,0.75 -0.96,0.64 -0.96,0.64 L -0.96,0.64 Z"></path></g><g transform="translate(206 47.46875) rotate(0 0.3333740234375 1)" stroke="none"><path fill="#1864ab" d="M 1.27,-0.39 Q 1.27,-0.39 1.29,-0.07 1.31,0.24 1.18,0.53 1.05,0.82 0.80,1.02 0.54,1.22 0.23,1.27 -0.08,1.33 -0.38,1.24 -0.69,1.14 -0.92,0.91 -1.14,0.69 -1.24,0.38 -1.33,0.08 -1.27,-0.23 -1.22,-0.55 -1.02,-0.80 -0.82,-1.05 -0.53,-1.18 -0.24,-1.31 0.07,-1.29 0.39,-1.27 0.67,-1.11 0.94,-0.94 1.11,-0.67 L 1.27,-0.39 Z"></path></g><g transform="translate(318 77.46876525878906) rotate(0 -8.33331298828125 3.3333282470703125)" stroke="none"><path fill="#1864ab" d="M -1.18,0.65 Q -1.18,0.65 -2.29,-0.97 -3.39,-2.61 -4.37,-3.71 -5.35,-4.81 -6.71,-4.95 -8.08,-5.10 -9.37,-4.35 -10.67,-3.59 -12.13,-2.27 -13.60,-0.94 -14.49,1.49 -15.39,3.93 -15.82,5.69 -16.25,7.45 -15.91,8.42 -15.57,9.39 -14.44,9.52 -13.31,9.65 -12.12,9.13 -10.93,8.62 -9.64,7.04 -8.34,5.46 -7.35,4.01 -6.36,2.57 -5.74,1.56 -5.12,0.56 -4.86,0.32 -4.60,0.07 -4.46,-0.09 -4.32,-0.26 -4.15,-0.39 -3.98,-0.52 -3.78,-0.61 -3.58,-0.69 -3.36,-0.73 -3.15,-0.77 -2.93,-0.75 -2.72,-0.73 -2.51,-0.67 -2.30,-0.60 -2.12,-0.48 -1.93,-0.37 -1.78,-0.21 -1.63,-0.06 -1.52,0.12 -1.41,0.31 -1.35,0.52 -1.29,0.73 -1.28,0.94 -1.27,1.16 -1.31,1.37 -1.35,1.59 -1.44,1.78 -1.53,1.98 -1.11,2.74 -0.68,3.50 -0.18,5.20 0.30,6.89 0.88,8.32 1.45,9.75 1.81,11.67 2.17,13.59 2.21,13.69 2.24,13.79 2.24,13.90 2.24,14.01 2.21,14.11 2.17,14.21 2.11,14.29 2.04,14.38 1.95,14.43 1.87,14.49 1.76,14.52 1.66,14.55 1.56,14.54 1.45,14.54 1.35,14.50 1.25,14.46 1.17,14.39 1.09,14.32 1.04,14.23 0.98,14.14 0.96,14.03 0.94,13.93 0.95,13.82 0.96,13.72 1.01,13.62 1.05,13.53 1.13,13.45 1.20,13.37 1.29,13.32 1.39,13.27 1.49,13.26 1.60,13.24 1.70,13.26 1.81,13.27 1.90,13.33 1.99,13.38 2.07,13.45 2.14,13.53 2.18,13.63 2.23,13.72 2.24,13.83 2.25,13.93 2.23,14.04 2.20,14.14 2.15,14.23 2.09,14.32 2.01,14.39 1.93,14.46 1.83,14.50 1.73,14.54 1.63,14.54 1.52,14.55 1.42,14.52 1.32,14.49 1.23,14.43 1.14,14.37 1.08,14.29 1.01,14.20 1.01,14.20 1.01,14.20 -0.44,12.65 -1.90,11.09 -2.53,9.50 -3.16,7.91 -3.69,6.09 -4.22,4.26 -4.41,2.17 -4.60,0.07 -4.46,-0.09 -4.32,-0.26 -4.15,-0.39 -3.98,-0.52 -3.78,-0.61 -3.58,-0.69 -3.36,-0.73 -3.15,-0.77 -2.93,-0.75 -2.72,-0.73 -2.51,-0.67 -2.30,-0.60 -2.12,-0.48 -1.93,-0.37 -1.78,-0.21 -1.63,-0.06 -1.52,0.12 -1.41,0.31 -1.35,0.52 -1.29,0.73 -1.28,0.94 -1.27,1.16 -1.31,1.37 -1.35,1.59 -1.44,1.78 -1.53,1.98 -1.82,2.23 -2.11,2.48 -2.77,3.54 -3.44,4.60 -4.56,6.21 -5.69,7.82 -7.59,9.81 -9.49,11.80 -11.30,12.48 -13.10,13.15 -14.83,13.02 -16.56,12.89 -17.72,11.68 -18.87,10.48 -19.27,8.65 -19.68,6.83 -19.17,4.72 -18.67,2.62 -17.35,-0.42 -16.04,-3.46 -14.11,-5.11 -12.18,-6.77 -9.99,-7.63 -7.81,-8.48 -5.49,-7.90 -3.17,-7.31 -1.80,-5.80 -0.43,-4.28 0.37,-2.47 1.18,-0.65 1.24,-0.50 1.30,-0.35 1.33,-0.19 1.35,-0.03 1.33,0.13 1.32,0.29 1.26,0.44 1.21,0.60 1.12,0.73 1.03,0.87 0.91,0.98 0.79,1.09 0.65,1.17 0.51,1.25 0.35,1.29 0.19,1.34 0.03,1.34 -0.13,1.34 -0.29,1.31 -0.45,1.27 -0.59,1.20 -0.74,1.13 -0.86,1.02 -0.99,0.92 -1.08,0.79 -1.18,0.65 -1.18,0.65 L -1.18,0.65 Z"></path></g><g transform="translate(354.66668701171875 39.46875) rotate(0 12 26.00000762939453)" stroke="none"><path fill="#1864ab" d="M 1.16,0 Q 1.16,0 1.38,1.72 1.61,3.44 1.64,6.29 1.67,9.13 1.69,12.83 1.71,16.53 1.72,20.59 1.73,24.65 2.12,29.57 2.51,34.49 3.42,37.98 4.32,41.47 5.70,43.68 7.08,45.90 10.06,47.05 13.05,48.20 15.48,48.21 17.91,48.22 20.30,47.97 22.70,47.72 22.80,47.70 22.91,47.69 23.01,47.71 23.12,47.73 23.21,47.78 23.30,47.83 23.37,47.91 23.45,47.99 23.49,48.08 23.53,48.18 23.54,48.29 23.55,48.39 23.53,48.49 23.50,48.60 23.45,48.69 23.39,48.78 23.31,48.85 23.23,48.91 23.13,48.95 23.03,48.99 22.92,48.99 22.81,49.00 22.71,48.97 22.61,48.94 22.52,48.88 22.44,48.81 22.37,48.73 22.31,48.64 22.28,48.54 22.25,48.44 22.25,48.33 22.25,48.23 22.29,48.13 22.32,48.03 22.39,47.94 22.45,47.86 22.54,47.80 22.63,47.74 22.73,47.72 22.84,47.69 22.94,47.70 23.05,47.71 23.15,47.75 23.24,47.79 23.32,47.86 23.40,47.93 23.46,48.02 23.51,48.11 23.53,48.22 23.55,48.32 23.54,48.43 23.53,48.53 23.48,48.63 23.43,48.72 23.36,48.80 23.29,48.87 23.19,48.92 23.10,48.97 23.10,48.97 23.10,48.97 20.51,50.31 17.92,51.65 14.82,51.57 11.73,51.50 8.04,49.75 4.35,48.01 2.63,45.20 0.92,42.39 -0.02,38.58 -0.98,34.76 -1.35,29.71 -1.73,24.65 -1.72,20.59 -1.71,16.53 -1.69,12.83 -1.67,9.13 -1.64,6.29 -1.61,3.44 -1.38,1.72 -1.16,0 -1.14,-0.13 -1.12,-0.27 -1.07,-0.40 -1.02,-0.54 -0.95,-0.65 -0.87,-0.77 -0.76,-0.86 -0.66,-0.95 -0.53,-1.02 -0.41,-1.08 -0.27,-1.12 -0.14,-1.15 0.00,-1.15 0.14,-1.15 0.27,-1.12 0.41,-1.08 0.53,-1.02 0.66,-0.95 0.76,-0.86 0.87,-0.77 0.95,-0.65 1.02,-0.54 1.07,-0.40 1.12,-0.27 1.14,-0.13 1.16,0.00 1.16,0.00 L 1.16,0 Z"></path></g><g transform="translate(354.66668701171875 72.13542175292969) rotate(0 10.333343505859375 -1.6666717529296875)" stroke="none"><path fill="#1864ab" d="M -0.24,-1.21 Q -0.24,-1.21 0.68,-1.56 1.61,-1.91 3.79,-2.20 5.98,-2.48 9.16,-2.97 12.35,-3.46 15.72,-3.59 19.09,-3.72 19.20,-3.72 19.30,-3.72 19.40,-3.69 19.51,-3.66 19.59,-3.59 19.68,-3.53 19.74,-3.44 19.80,-3.36 19.83,-3.25 19.86,-3.15 19.85,-3.05 19.85,-2.94 19.81,-2.84 19.77,-2.74 19.70,-2.66 19.63,-2.58 19.54,-2.52 19.45,-2.47 19.35,-2.44 19.25,-2.42 19.14,-2.43 19.03,-2.44 18.94,-2.48 18.84,-2.53 18.76,-2.60 18.68,-2.67 18.63,-2.77 18.58,-2.86 18.57,-2.96 18.55,-3.07 18.56,-3.17 18.58,-3.28 18.63,-3.37 18.68,-3.47 18.75,-3.54 18.83,-3.61 18.93,-3.66 19.02,-3.71 19.13,-3.72 19.23,-3.73 19.34,-3.71 19.44,-3.69 19.53,-3.63 19.62,-3.58 19.69,-3.50 19.76,-3.42 19.80,-3.32 19.84,-3.22 19.85,-3.12 19.86,-3.01 19.83,-2.91 19.80,-2.80 19.74,-2.72 19.68,-2.63 19.60,-2.56 19.52,-2.50 19.42,-2.46 19.32,-2.43 19.32,-2.43 19.32,-2.43 16.07,-1.41 12.83,-0.38 9.60,0.11 6.38,0.62 4.30,0.88 2.22,1.14 1.23,1.18 0.24,1.21 0.09,1.22 -0.05,1.23 -0.20,1.20 -0.34,1.18 -0.48,1.12 -0.62,1.06 -0.73,0.97 -0.85,0.88 -0.95,0.77 -1.04,0.65 -1.10,0.52 -1.17,0.38 -1.20,0.24 -1.23,0.09 -1.22,-0.05 -1.21,-0.20 -1.17,-0.34 -1.13,-0.48 -1.05,-0.61 -0.98,-0.74 -0.88,-0.85 -0.77,-0.95 -0.65,-1.03 -0.52,-1.11 -0.38,-1.16 -0.24,-1.21 -0.24,-1.21 L -0.24,-1.21 Z"></path></g><g transform="translate(385.3333740234375 74.80207824707031) rotate(0 11.999969482421875 -0.3333282470703125)" stroke="none"><path fill="#1864ab" d="M 0.57,-0.86 Q 0.57,-0.86 1.16,-0.73 1.76,-0.60 3.13,-0.94 4.50,-1.27 6.52,-1.74 8.53,-2.21 10.46,-2.96 12.39,-3.71 14.23,-4.91 16.07,-6.12 16.65,-6.92 17.24,-7.72 16.88,-8.27 16.53,-8.81 15.54,-9.12 14.55,-9.42 13.01,-9.43 11.47,-9.43 9.68,-8.58 7.90,-7.72 5.69,-5.76 3.49,-3.80 2.28,-1.28 1.06,1.23 1.02,3.00 0.98,4.77 2.45,5.87 3.93,6.97 6.63,7.66 9.32,8.36 13.09,8.56 16.86,8.76 20.83,8.81 24.81,8.87 24.91,8.88 25.02,8.88 25.12,8.92 25.22,8.96 25.30,9.03 25.38,9.10 25.43,9.19 25.49,9.28 25.51,9.38 25.53,9.49 25.52,9.59 25.51,9.70 25.47,9.79 25.42,9.89 25.35,9.97 25.28,10.05 25.18,10.10 25.09,10.15 24.98,10.16 24.88,10.18 24.77,10.16 24.67,10.15 24.58,10.10 24.48,10.05 24.41,9.97 24.34,9.89 24.29,9.79 24.25,9.70 24.23,9.59 24.22,9.49 24.25,9.38 24.27,9.28 24.32,9.19 24.38,9.10 24.46,9.03 24.54,8.96 24.64,8.92 24.74,8.88 24.84,8.88 24.95,8.87 25.05,8.90 25.15,8.93 25.24,8.99 25.33,9.05 25.39,9.13 25.46,9.22 25.49,9.32 25.53,9.42 25.53,9.52 25.53,9.63 25.49,9.73 25.46,9.83 25.39,9.91 25.33,10.00 25.24,10.06 25.15,10.12 25.05,10.15 24.95,10.18 24.95,10.18 24.95,10.18 20.84,11.11 16.72,12.05 12.55,11.90 8.38,11.76 5.02,10.73 1.66,9.70 -0.27,7.66 -2.22,5.62 -2.20,2.69 -2.19,-0.22 -0.55,-3.33 1.07,-6.44 3.76,-8.71 6.45,-10.98 8.97,-11.96 11.48,-12.94 13.75,-12.76 16.01,-12.58 17.67,-11.54 19.32,-10.49 19.77,-8.77 20.22,-7.05 19.09,-5.22 17.95,-3.40 15.76,-2.02 13.57,-0.65 11.41,0.15 9.26,0.96 7.08,1.44 4.90,1.92 2.72,2.03 0.53,2.13 -0.01,1.49 -0.57,0.86 -0.66,0.78 -0.76,0.69 -0.83,0.59 -0.90,0.49 -0.95,0.38 -1.00,0.26 -1.01,0.14 -1.03,0.01 -1.02,-0.10 -1.00,-0.23 -0.96,-0.34 -0.92,-0.46 -0.85,-0.57 -0.78,-0.67 -0.69,-0.75 -0.60,-0.84 -0.49,-0.90 -0.38,-0.96 -0.26,-0.99 -0.14,-1.02 -0.01,-1.02 0.10,-1.03 0.23,-1.00 0.35,-0.97 0.46,-0.91 0.57,-0.86 0.57,-0.86 L 0.57,-0.86 Z"></path></g><g transform="translate(430.66668701171875 63.46876525878906) rotate(0 -5.666656494140625 11.999984741210938)" stroke="none"><path fill="#1864ab" d="M -0.07,1.26 Q -0.07,1.26 -3.15,1.27 -6.23,1.29 -9.37,1.41 -12.51,1.54 -14.17,1.78 -15.84,2.02 -16.30,1.45 -16.75,0.89 -16.20,1.67 -15.65,2.45 -13.16,3.50 -10.67,4.55 -8.56,5.46 -6.45,6.37 -3.14,8.34 0.16,10.31 2.73,12.13 5.31,13.95 6.78,15.76 8.26,17.58 8.16,19.78 8.07,21.99 6.47,23.18 4.87,24.36 2.28,24.99 -0.31,25.61 -3.82,24.64 -7.34,23.66 -10.24,20.34 -13.14,17.02 -13.20,16.94 -13.27,16.85 -13.30,16.75 -13.34,16.65 -13.34,16.55 -13.34,16.44 -13.31,16.34 -13.27,16.24 -13.21,16.15 -13.15,16.07 -13.06,16.01 -12.97,15.95 -12.87,15.92 -12.77,15.89 -12.66,15.89 -12.55,15.90 -12.46,15.93 -12.36,15.97 -12.27,16.04 -12.19,16.11 -12.14,16.20 -12.08,16.29 -12.06,16.39 -12.03,16.50 -12.04,16.60 -12.05,16.71 -12.10,16.80 -12.14,16.90 -12.21,16.98 -12.29,17.06 -12.38,17.11 -12.47,17.16 -12.58,17.18 -12.68,17.20 -12.79,17.18 -12.89,17.16 -12.99,17.11 -13.08,17.07 -13.15,16.99 -13.23,16.91 -13.27,16.82 -13.32,16.72 -13.33,16.62 -13.35,16.51 -13.32,16.41 -13.30,16.30 -13.25,16.21 -13.19,16.12 -13.11,16.05 -13.03,15.98 -12.94,15.94 -12.84,15.90 -12.73,15.89 -12.63,15.89 -12.52,15.91 -12.42,15.94 -12.33,16.00 -12.24,16.06 -12.24,16.06 -12.24,16.06 -9.22,18.23 -6.19,20.40 -3.53,21.27 -0.87,22.15 1.13,21.72 3.13,21.28 4.25,20.89 5.37,20.49 5.36,19.87 5.34,19.24 4.30,18.02 3.25,16.80 0.80,15.06 -1.64,13.33 -4.74,11.46 -7.84,9.59 -9.98,8.67 -12.12,7.75 -15.14,6.31 -18.16,4.87 -18.98,3.78 -19.80,2.70 -19.85,1.80 -19.90,0.90 -18.10,-0.24 -16.31,-1.39 -14.47,-1.63 -12.63,-1.87 -9.33,-1.96 -6.02,-2.05 -2.97,-1.65 0.07,-1.26 0.22,-1.23 0.37,-1.20 0.51,-1.14 0.65,-1.08 0.77,-0.98 0.89,-0.89 0.98,-0.77 1.08,-0.65 1.14,-0.51 1.20,-0.37 1.23,-0.22 1.26,-0.07 1.25,0.07 1.24,0.23 1.19,0.37 1.15,0.52 1.07,0.65 0.99,0.78 0.88,0.88 0.77,0.99 0.64,1.07 0.51,1.15 0.37,1.19 0.22,1.24 0.07,1.25 -0.07,1.26 -0.07,1.26 L -0.07,1.26 Z"></path></g><g transform="translate(447.3333740234375 40.13542175292969) rotate(0 11.999969482421875 23.666671752929688)" stroke="none"><path fill="#1864ab" d="M 1.12,0 Q 1.12,0 1.39,1.53 1.66,3.06 1.53,6.26 1.40,9.46 1.33,12.68 1.27,15.90 1.25,19.18 1.22,22.47 1.20,25.74 1.18,29.01 3.56,33.67 5.95,38.32 8.49,40.39 11.04,42.46 12.68,43.13 14.32,43.80 16.46,43.40 18.60,43.01 20.97,42.44 23.35,41.87 23.45,41.84 23.55,41.82 23.66,41.82 23.76,41.83 23.86,41.87 23.96,41.91 24.04,41.98 24.12,42.05 24.18,42.14 24.23,42.23 24.25,42.33 24.27,42.44 24.26,42.54 24.25,42.65 24.21,42.75 24.16,42.84 24.09,42.92 24.01,43.00 23.92,43.04 23.82,43.09 23.72,43.11 23.61,43.13 23.51,43.11 23.41,43.09 23.31,43.04 23.22,42.99 23.15,42.91 23.07,42.84 23.03,42.74 22.98,42.64 22.97,42.54 22.96,42.43 22.99,42.33 23.01,42.22 23.07,42.13 23.12,42.04 23.20,41.97 23.28,41.91 23.38,41.87 23.48,41.83 23.59,41.82 23.69,41.82 23.80,41.85 23.90,41.88 23.99,41.94 24.07,42.00 24.14,42.08 24.20,42.17 24.23,42.27 24.27,42.37 24.27,42.47 24.27,42.58 24.23,42.68 24.20,42.78 24.13,42.87 24.07,42.95 23.98,43.01 23.89,43.07 23.89,43.07 23.89,43.07 21.53,44.65 19.17,46.24 16.21,46.70 13.25,47.15 10.99,46.22 8.73,45.29 5.71,42.67 2.70,40.06 0.11,34.61 -2.47,29.17 -2.46,25.80 -2.45,22.43 -2.41,19.12 -2.36,15.81 -2.26,12.52 -2.17,9.24 -1.91,6.15 -1.66,3.06 -1.39,1.53 -1.12,0 -1.11,-0.13 -1.09,-0.27 -1.04,-0.39 -0.99,-0.52 -0.92,-0.63 -0.84,-0.74 -0.74,-0.83 -0.64,-0.92 -0.52,-0.99 -0.40,-1.05 -0.26,-1.08 -0.13,-1.12 0.00,-1.12 0.13,-1.12 0.26,-1.08 0.40,-1.05 0.52,-0.99 0.64,-0.92 0.74,-0.83 0.84,-0.74 0.92,-0.63 0.99,-0.52 1.04,-0.39 1.09,-0.26 1.11,-0.13 1.12,0.00 1.12,0.00 L 1.12,0 Z"></path></g><g transform="translate(456 62.80207824707031) rotate(0 8.333343505859375 -0.666656494140625)" stroke="none"><path fill="#1864ab" d="M 0,-1.11 Q 0,-1.11 1.72,-1.40 3.44,-1.70 7.71,-2.27 11.97,-2.84 13.90,-2.56 15.83,-2.28 15.93,-2.28 16.04,-2.28 16.14,-2.24 16.24,-2.20 16.32,-2.14 16.40,-2.07 16.46,-1.98 16.52,-1.89 16.54,-1.79 16.57,-1.68 16.56,-1.58 16.55,-1.47 16.51,-1.37 16.46,-1.28 16.39,-1.20 16.32,-1.12 16.23,-1.07 16.14,-1.02 16.03,-1.00 15.93,-0.98 15.82,-0.99 15.72,-1.01 15.62,-1.05 15.53,-1.10 15.45,-1.18 15.38,-1.25 15.33,-1.35 15.28,-1.44 15.27,-1.55 15.26,-1.65 15.28,-1.76 15.30,-1.86 15.35,-1.96 15.40,-2.05 15.48,-2.12 15.56,-2.19 15.66,-2.23 15.76,-2.27 15.86,-2.28 15.97,-2.29 16.07,-2.26 16.18,-2.24 16.26,-2.18 16.35,-2.12 16.42,-2.04 16.49,-1.95 16.52,-1.85 16.56,-1.75 16.56,-1.65 16.56,-1.54 16.53,-1.44 16.50,-1.34 16.44,-1.25 16.38,-1.17 16.29,-1.11 16.20,-1.04 16.10,-1.01 16.00,-0.98 16.00,-0.98 16.00,-0.98 14.21,-0.21 12.42,0.54 7.93,1.12 3.45,1.70 1.72,1.40 0,1.11 -0.13,1.09 -0.26,1.07 -0.39,1.03 -0.51,0.98 -0.62,0.90 -0.73,0.83 -0.82,0.73 -0.91,0.63 -0.97,0.51 -1.03,0.39 -1.07,0.26 -1.10,0.13 -1.10,-0.00 -1.10,-0.13 -1.07,-0.26 -1.03,-0.39 -0.97,-0.51 -0.91,-0.63 -0.82,-0.73 -0.73,-0.83 -0.62,-0.90 -0.51,-0.98 -0.39,-1.03 -0.26,-1.07 -0.13,-1.09 0.00,-1.11 0.00,-1.11 L 0,-1.11 Z"></path></g><g transform="translate(104 133.46876525878906) rotate(0 -0.666656494140625 15.999984741210938)" stroke="none"><path fill="#1864ab" d="M 0.21,0.84 Q 0.21,0.84 -0.13,1.00 -0.47,1.16 -0.49,2.73 -0.51,4.29 -0.61,6.87 -0.70,9.45 -0.56,12.23 -0.41,15.01 -0.15,17.92 0.09,20.83 0.38,23.39 0.67,25.95 1.09,28.60 1.50,31.26 1.52,31.36 1.54,31.47 1.53,31.57 1.52,31.68 1.47,31.77 1.42,31.87 1.35,31.94 1.27,32.02 1.18,32.07 1.08,32.11 0.98,32.13 0.87,32.14 0.77,32.13 0.67,32.11 0.57,32.05 0.48,32.00 0.41,31.92 0.34,31.85 0.29,31.75 0.25,31.65 0.24,31.54 0.23,31.44 0.26,31.34 0.28,31.23 0.34,31.14 0.40,31.05 0.48,30.99 0.56,30.92 0.66,30.88 0.76,30.84 0.87,30.84 0.97,30.84 1.07,30.87 1.18,30.90 1.26,30.96 1.35,31.02 1.41,31.11 1.47,31.19 1.51,31.29 1.54,31.39 1.54,31.50 1.53,31.61 1.50,31.71 1.46,31.81 1.40,31.89 1.33,31.97 1.24,32.03 1.15,32.09 1.05,32.12 0.95,32.14 0.84,32.13 0.73,32.13 0.64,32.08 0.54,32.04 0.46,31.97 0.38,31.90 0.33,31.81 0.27,31.72 0.27,31.72 0.27,31.72 -1.30,29.05 -2.88,26.38 -3.19,23.75 -3.49,21.13 -3.73,18.15 -3.98,15.17 -4.09,12.22 -4.21,9.27 -4.03,6.48 -3.85,3.69 -3.22,1.64 -2.59,-0.39 -1.40,-0.62 -0.21,-0.84 -0.10,-0.85 -0.00,-0.87 0.10,-0.85 0.20,-0.84 0.30,-0.80 0.40,-0.77 0.48,-0.71 0.57,-0.65 0.64,-0.57 0.71,-0.49 0.76,-0.40 0.81,-0.31 0.83,-0.20 0.86,-0.10 0.86,-0.00 0.86,0.10 0.83,0.20 0.81,0.30 0.76,0.39 0.71,0.49 0.64,0.57 0.57,0.64 0.49,0.70 0.40,0.76 0.30,0.80 0.21,0.84 0.21,0.84 L 0.21,0.84 Z"></path></g><g transform="translate(112.66668701171875 138.1354217529297) rotate(0 19.666656494140625 8.333328247070312)" stroke="none"><path fill="#1864ab" d="M 1.31,0 Q 1.31,0 1.45,1.72 1.59,3.44 1.98,5.16 2.37,6.88 2.91,8.77 3.46,10.66 4.07,12.40 4.67,14.14 5.15,15.91 5.63,17.68 5.85,18.02 6.06,18.37 6.09,18.58 6.12,18.79 6.09,19.00 6.07,19.20 6.00,19.40 5.93,19.60 5.81,19.77 5.70,19.95 5.54,20.09 5.39,20.23 5.20,20.33 5.02,20.43 4.82,20.48 4.61,20.54 4.40,20.54 4.20,20.55 3.99,20.50 3.79,20.45 3.60,20.36 3.41,20.26 3.25,20.13 3.09,19.99 2.97,19.82 2.85,19.65 2.77,19.45 2.70,19.26 2.75,17.96 2.80,16.67 3.02,14.68 3.25,12.69 3.54,10.32 3.83,7.94 4.76,4.85 5.70,1.76 7.37,-0.22 9.04,-2.22 11.03,-2.46 13.02,-2.70 15.94,-0.10 18.87,2.49 20.46,3.86 22.05,5.24 22.54,5.51 23.03,5.78 24.46,2.95 25.88,0.11 28.15,-1.61 30.42,-3.35 32.04,-3.08 33.65,-2.80 34.68,-1.84 35.70,-0.89 36.56,1.43 37.41,3.76 37.92,6.47 38.43,9.17 39.00,11.77 39.56,14.37 39.89,16.87 40.21,19.37 40.23,19.47 40.25,19.58 40.24,19.68 40.23,19.79 40.18,19.88 40.13,19.98 40.06,20.05 39.98,20.13 39.89,20.18 39.79,20.22 39.69,20.24 39.58,20.25 39.48,20.23 39.37,20.21 39.28,20.16 39.19,20.11 39.12,20.03 39.05,19.95 39.00,19.86 38.96,19.76 38.95,19.65 38.94,19.55 38.97,19.44 38.99,19.34 39.05,19.25 39.11,19.16 39.19,19.09 39.27,19.03 39.37,18.99 39.47,18.95 39.58,18.95 39.68,18.95 39.79,18.98 39.89,19.01 39.97,19.07 40.06,19.13 40.12,19.22 40.18,19.30 40.22,19.40 40.25,19.51 40.25,19.61 40.24,19.72 40.21,19.82 40.17,19.92 40.10,20.00 40.04,20.08 39.95,20.14 39.86,20.20 39.76,20.23 39.65,20.25 39.55,20.24 39.44,20.24 39.34,20.19 39.25,20.15 39.17,20.08 39.09,20.01 39.04,19.92 38.98,19.83 38.98,19.83 38.98,19.83 37.51,17.50 36.03,15.16 35.42,12.50 34.82,9.83 34.38,7.36 33.95,4.89 33.47,3.16 32.99,1.42 32.69,0.94 32.39,0.46 31.78,0.05 31.17,-0.35 30.02,0.81 28.86,1.97 26.74,5.21 24.63,8.45 23.48,8.72 22.34,8.99 21.07,8.44 19.79,7.89 18.12,6.42 16.45,4.95 14.40,2.66 12.36,0.38 11.68,0.37 11.00,0.35 10.00,1.61 9.00,2.87 8.15,5.62 7.31,8.38 7.02,10.73 6.74,13.09 6.51,15.02 6.29,16.95 6.17,17.66 6.06,18.37 6.09,18.58 6.12,18.79 6.09,19.00 6.07,19.20 6.00,19.40 5.93,19.60 5.81,19.77 5.70,19.95 5.54,20.09 5.39,20.23 5.20,20.33 5.02,20.43 4.82,20.48 4.61,20.54 4.41,20.54 4.20,20.55 3.99,20.50 3.79,20.45 3.60,20.36 3.41,20.26 3.25,20.13 3.09,19.99 2.97,19.82 2.85,19.65 2.77,19.45 2.70,19.26 2.52,18.91 2.35,18.57 1.92,16.90 1.50,15.23 0.87,13.40 0.25,11.56 -0.29,9.55 -0.84,7.54 -1.21,5.50 -1.59,3.45 -1.45,1.72 -1.31,0 -1.29,-0.15 -1.27,-0.31 -1.21,-0.46 -1.16,-0.60 -1.07,-0.74 -0.98,-0.87 -0.86,-0.97 -0.74,-1.08 -0.60,-1.15 -0.46,-1.22 -0.31,-1.26 -0.15,-1.30 0.00,-1.30 0.15,-1.30 0.31,-1.26 0.46,-1.22 0.60,-1.15 0.74,-1.08 0.86,-0.97 0.98,-0.87 1.07,-0.74 1.16,-0.60 1.21,-0.46 1.27,-0.31 1.29,-0.15 1.31,0.00 1.31,0.00 L 1.31,0 Z"></path></g><g transform="translate(178.66668701171875 141.46876525878906) rotate(0 -5.333343505859375 6)" stroke="none"><path fill="#1864ab" d="M -0.77,1.03 Q -0.77,1.03 -2.43,0.08 -4.09,-0.86 -5.38,-1.19 -6.67,-1.53 -7.63,-1.19 -8.59,-0.85 -9.39,0.21 -10.20,1.28 -10.94,2.95 -11.68,4.62 -12.00,6.29 -12.31,7.95 -11.56,9.49 -10.81,11.03 -10.19,11.95 -9.56,12.87 -8.91,11.82 -8.25,10.77 -7.30,9.32 -6.35,7.87 -5.83,6.45 -5.31,5.02 -5.08,4.07 -4.85,3.12 -4.74,2.48 -4.63,1.84 -4.55,1.63 -4.47,1.42 -4.35,1.23 -4.22,1.05 -4.05,0.90 -3.88,0.75 -3.68,0.65 -3.49,0.54 -3.27,0.49 -3.05,0.43 -2.83,0.43 -2.60,0.43 -2.39,0.49 -2.17,0.54 -1.97,0.64 -1.77,0.75 -1.60,0.90 -1.43,1.05 -1.31,1.23 -1.18,1.41 -1.10,1.62 -1.02,1.83 -0.99,2.06 -0.97,2.28 -0.99,2.50 -1.02,2.72 -0.32,3.98 0.37,5.24 0.93,6.56 1.49,7.88 2.24,9.13 2.99,10.38 3.52,12.02 4.06,13.66 4.11,13.75 4.16,13.85 4.17,13.95 4.19,14.06 4.17,14.16 4.16,14.27 4.11,14.36 4.06,14.45 3.98,14.53 3.90,14.60 3.81,14.65 3.71,14.69 3.61,14.70 3.50,14.71 3.40,14.69 3.29,14.67 3.20,14.61 3.11,14.56 3.04,14.48 2.97,14.40 2.93,14.30 2.89,14.20 2.89,14.09 2.88,13.99 2.91,13.89 2.94,13.78 3.00,13.70 3.06,13.61 3.14,13.54 3.22,13.48 3.33,13.44 3.43,13.41 3.53,13.41 3.64,13.41 3.74,13.44 3.84,13.48 3.92,13.54 4.01,13.61 4.07,13.69 4.13,13.78 4.16,13.88 4.19,13.99 4.18,14.09 4.18,14.20 4.14,14.30 4.10,14.40 4.03,14.48 3.96,14.56 3.87,14.61 3.78,14.67 3.67,14.69 3.57,14.71 3.47,14.70 3.36,14.69 3.26,14.65 3.17,14.60 3.09,14.53 3.01,14.46 3.01,14.46 3.01,14.46 1.45,13.36 -0.09,12.26 -1.00,10.79 -1.90,9.33 -2.52,7.87 -3.13,6.40 -3.48,5.20 -3.82,4.00 -4.22,2.92 -4.63,1.84 -4.55,1.63 -4.47,1.42 -4.35,1.23 -4.22,1.05 -4.05,0.90 -3.88,0.75 -3.68,0.65 -3.49,0.54 -3.27,0.49 -3.05,0.43 -2.83,0.43 -2.60,0.43 -2.39,0.49 -2.17,0.54 -1.97,0.64 -1.77,0.75 -1.60,0.90 -1.44,1.04 -1.31,1.23 -1.18,1.41 -1.10,1.62 -1.02,1.83 -0.99,2.06 -0.97,2.28 -0.99,2.50 -1.02,2.72 -1.13,3.37 -1.24,4.01 -1.54,5.18 -1.83,6.35 -2.54,8.13 -3.25,9.90 -4.28,11.46 -5.32,13.02 -6.73,14.47 -8.14,15.92 -9.97,15.71 -11.79,15.49 -13.00,13.96 -14.20,12.43 -15.05,10.01 -15.89,7.59 -15.45,5.34 -15.01,3.09 -13.97,0.97 -12.93,-1.14 -11.36,-2.68 -9.78,-4.22 -7.84,-4.62 -5.89,-5.01 -3.96,-4.37 -2.03,-3.73 -0.63,-2.38 0.77,-1.03 0.88,-0.92 0.99,-0.81 1.08,-0.68 1.16,-0.55 1.21,-0.40 1.26,-0.25 1.27,-0.10 1.28,0.05 1.26,0.20 1.24,0.35 1.17,0.50 1.11,0.64 1.02,0.76 0.93,0.89 0.81,0.99 0.69,1.09 0.55,1.15 0.40,1.22 0.25,1.25 0.10,1.28 -0.05,1.28 -0.20,1.27 -0.35,1.23 -0.50,1.18 -0.63,1.11 -0.77,1.03 -0.77,1.03 L -0.77,1.03 Z"></path></g><g transform="translate(207.3333740234375 144.1354217529297) rotate(0 -0.66668701171875 20.333328247070312)" stroke="none"><path fill="#1864ab" d="M -0.97,0.97 Q -0.97,0.97 -1.87,0.35 -2.78,-0.25 -3.87,-0.79 -4.95,-1.33 -6.38,-1.52 -7.81,-1.71 -9.06,-1.63 -10.32,-1.56 -11.13,-1.08 -11.95,-0.61 -12.32,0.10 -12.70,0.81 -12.87,2.39 -13.03,3.97 -12.44,5.95 -11.84,7.92 -10.64,9.15 -9.44,10.37 -7.78,11.03 -6.12,11.69 -2.70,12.79 0.71,13.89 2.92,14.84 5.13,15.79 8.27,20.28 11.42,24.77 12.47,28.25 13.53,31.73 11.00,35.79 8.46,39.86 5.53,41.82 2.60,43.79 -2.38,42.96 -7.36,42.13 -7.47,42.11 -7.57,42.08 -7.66,42.03 -7.75,41.97 -7.82,41.89 -7.89,41.80 -7.92,41.70 -7.96,41.61 -7.96,41.50 -7.97,41.39 -7.94,41.29 -7.91,41.19 -7.85,41.10 -7.78,41.02 -7.70,40.95 -7.61,40.89 -7.51,40.86 -7.41,40.83 -7.30,40.83 -7.20,40.83 -7.10,40.87 -7.00,40.90 -6.91,40.97 -6.83,41.03 -6.77,41.12 -6.71,41.21 -6.69,41.32 -6.66,41.42 -6.67,41.52 -6.68,41.63 -6.72,41.73 -6.76,41.83 -6.83,41.91 -6.90,41.99 -6.99,42.04 -7.09,42.09 -7.19,42.11 -7.29,42.13 -7.40,42.12 -7.50,42.11 -7.60,42.06 -7.70,42.01 -7.77,41.94 -7.85,41.86 -7.89,41.77 -7.94,41.67 -7.96,41.57 -7.97,41.46 -7.95,41.36 -7.93,41.25 -7.88,41.16 -7.83,41.07 -7.75,41.00 -7.67,40.93 -7.58,40.88 -7.48,40.84 -7.37,40.83 -7.27,40.82 -7.27,40.82 -7.27,40.82 -3.12,40.67 1.01,40.51 3.22,39.08 5.44,37.64 7.81,34.61 10.18,31.59 9.25,29.19 8.31,26.80 5.86,22.89 3.42,18.98 1.49,18.20 -0.42,17.42 -4.02,16.25 -7.62,15.08 -9.86,14.01 -12.09,12.94 -13.73,11.00 -15.37,9.06 -16.06,6.30 -16.74,3.53 -16.31,1.18 -15.87,-1.16 -14.84,-2.50 -13.81,-3.83 -12.21,-4.56 -10.61,-5.29 -8.89,-5.34 -7.17,-5.39 -5.20,-4.98 -3.24,-4.57 -1.76,-3.69 -0.28,-2.81 0.34,-1.89 0.97,-0.97 1.07,-0.84 1.17,-0.71 1.24,-0.56 1.31,-0.40 1.34,-0.24 1.37,-0.08 1.36,0.08 1.35,0.24 1.30,0.40 1.25,0.56 1.16,0.70 1.08,0.84 0.96,0.96 0.84,1.08 0.70,1.16 0.56,1.25 0.40,1.30 0.24,1.35 0.08,1.36 -0.08,1.37 -0.24,1.34 -0.40,1.31 -0.56,1.24 -0.71,1.17 -0.84,1.07 -0.97,0.97 -0.97,0.97 L -0.97,0.97 Z"></path></g><g transform="translate(224 148.8020782470703) rotate(0 10.000030517578125 -4)" stroke="none"><path fill="#1864ab" d="M -0.35,-1.05 Q -0.35,-1.05 0.74,-1.60 1.83,-2.15 3.24,-2.72 4.65,-3.29 5.98,-3.91 7.31,-4.54 8.83,-5.19 10.35,-5.84 11.26,-7.05 12.17,-8.26 12.33,-9.16 12.49,-10.06 11.99,-10.66 11.50,-11.26 9.46,-11.99 7.42,-12.73 5.31,-13.12 3.20,-13.51 1.45,-12.96 -0.30,-12.41 -1.86,-11.18 -3.42,-9.94 -4.37,-8.30 -5.31,-6.66 -5.33,-4.96 -5.35,-3.26 -4.23,-1.49 -3.11,0.27 0.53,1.88 4.19,3.48 8.50,4.03 12.81,4.57 17.25,4.28 21.70,3.99 23.71,4.43 25.71,4.87 25.82,4.88 25.92,4.89 26.02,4.93 26.12,4.97 26.19,5.05 26.27,5.12 26.32,5.21 26.37,5.31 26.39,5.41 26.41,5.51 26.40,5.62 26.38,5.72 26.33,5.82 26.28,5.91 26.21,5.99 26.13,6.06 26.03,6.11 25.94,6.15 25.83,6.17 25.73,6.18 25.62,6.16 25.52,6.14 25.43,6.08 25.34,6.03 25.27,5.95 25.20,5.87 25.16,5.77 25.11,5.67 25.11,5.57 25.10,5.46 25.13,5.36 25.16,5.25 25.21,5.17 25.27,5.08 25.36,5.01 25.44,4.95 25.54,4.91 25.64,4.88 25.75,4.88 25.85,4.87 25.95,4.91 26.05,4.94 26.14,5.00 26.23,5.07 26.29,5.15 26.35,5.24 26.38,5.34 26.41,5.44 26.40,5.55 26.40,5.66 26.36,5.76 26.32,5.85 26.25,5.94 26.19,6.02 26.10,6.07 26.00,6.13 25.90,6.15 25.80,6.18 25.80,6.18 25.80,6.18 23.87,6.88 21.94,7.58 17.13,7.91 12.32,8.24 7.48,7.53 2.64,6.83 -1.69,4.60 -6.03,2.37 -7.49,-0.38 -8.96,-3.13 -8.74,-5.76 -8.53,-8.38 -7.12,-10.61 -5.70,-12.83 -3.52,-14.39 -1.34,-15.94 1.19,-16.54 3.74,-17.14 6.33,-16.62 8.92,-16.11 11.63,-14.71 14.34,-13.31 15.10,-11.59 15.85,-9.87 15.35,-8.03 14.84,-6.18 13.29,-4.55 11.74,-2.91 10.17,-2.27 8.60,-1.63 7.17,-1.03 5.73,-0.42 4.24,0.09 2.76,0.61 1.55,0.83 0.35,1.05 0.21,1.07 0.08,1.10 -0.04,1.09 -0.17,1.09 -0.30,1.05 -0.43,1.01 -0.55,0.95 -0.66,0.88 -0.76,0.79 -0.85,0.70 -0.93,0.58 -1.00,0.47 -1.04,0.34 -1.08,0.22 -1.09,0.08 -1.10,-0.04 -1.08,-0.17 -1.06,-0.30 -1.01,-0.43 -0.95,-0.55 -0.87,-0.66 -0.79,-0.76 -0.69,-0.85 -0.59,-0.93 -0.47,-0.99 -0.35,-1.05 -0.35,-1.05 L -0.35,-1.05 Z"></path></g><g transform="translate(76 224.8020782470703) rotate(0 -0.33331298828125 23.333343505859375)" stroke="none"><path fill="#1864ab" d="M -0.63,0.63 Q -0.63,0.63 -1.36,0.21 -2.08,-0.21 -2.79,-0.77 -3.50,-1.32 -3.77,-1.76 -4.05,-2.20 -4.17,-2.35 -4.29,-2.50 -4.37,-2.67 -4.45,-2.85 -4.48,-3.03 -4.51,-3.22 -4.50,-3.41 -4.49,-3.60 -4.43,-3.78 -4.38,-3.97 -4.28,-4.13 -4.18,-4.29 -4.05,-4.43 -3.91,-4.56 -3.75,-4.66 -3.58,-4.76 -3.40,-4.82 -3.22,-4.87 -3.03,-4.89 -2.84,-4.90 -2.65,-4.86 -2.46,-4.83 -2.29,-4.75 -2.11,-4.67 -1.96,-4.55 -1.81,-4.44 -1.22,-3.53 -0.63,-2.62 0.21,-0.22 1.05,2.16 2.00,7.25 2.95,12.34 3.35,18.39 3.76,24.43 3.93,29.09 4.10,33.75 3.98,37.50 3.87,41.25 3.62,43.83 3.36,46.41 2.98,48.12 2.59,49.82 2.58,49.93 2.57,50.03 2.53,50.13 2.49,50.23 2.42,50.30 2.34,50.38 2.25,50.43 2.16,50.49 2.05,50.50 1.95,50.52 1.84,50.51 1.74,50.49 1.64,50.44 1.55,50.39 1.48,50.32 1.40,50.24 1.36,50.15 1.31,50.05 1.30,49.95 1.28,49.84 1.30,49.74 1.33,49.63 1.38,49.54 1.43,49.45 1.51,49.38 1.59,49.31 1.69,49.27 1.79,49.23 1.89,49.22 2.00,49.21 2.10,49.24 2.21,49.27 2.30,49.32 2.38,49.38 2.45,49.47 2.52,49.55 2.55,49.65 2.59,49.75 2.59,49.86 2.59,49.96 2.56,50.06 2.52,50.16 2.46,50.25 2.40,50.34 2.31,50.40 2.22,50.46 2.12,50.49 2.02,50.52 1.91,50.51 1.81,50.51 1.71,50.47 1.61,50.43 1.53,50.37 1.45,50.30 1.39,50.21 1.33,50.12 1.31,50.01 1.28,49.91 1.28,49.91 1.28,49.91 0.65,48.01 0.01,46.10 0.25,43.62 0.49,41.14 0.61,37.50 0.74,33.87 0.59,29.25 0.43,24.64 0.07,18.79 -0.28,12.93 -1.14,8.07 -2.00,3.21 -2.69,1.12 -3.39,-0.97 -3.72,-1.58 -4.05,-2.20 -4.17,-2.35 -4.29,-2.50 -4.37,-2.67 -4.45,-2.85 -4.48,-3.03 -4.51,-3.22 -4.50,-3.41 -4.49,-3.60 -4.43,-3.78 -4.38,-3.97 -4.28,-4.13 -4.18,-4.29 -4.05,-4.43 -3.91,-4.56 -3.75,-4.66 -3.58,-4.76 -3.40,-4.82 -3.22,-4.87 -3.03,-4.89 -2.84,-4.90 -2.65,-4.86 -2.46,-4.83 -2.29,-4.75 -2.11,-4.67 -1.96,-4.55 -1.81,-4.44 -1.56,-3.96 -1.30,-3.48 -0.76,-2.78 -0.21,-2.08 0.21,-1.36 0.63,-0.63 0.70,-0.55 0.77,-0.46 0.81,-0.36 0.86,-0.26 0.88,-0.16 0.90,-0.05 0.89,0.05 0.88,0.16 0.85,0.26 0.82,0.37 0.76,0.46 0.71,0.55 0.63,0.63 0.55,0.71 0.46,0.76 0.37,0.82 0.26,0.85 0.16,0.88 0.05,0.89 -0.05,0.90 -0.16,0.88 -0.26,0.86 -0.36,0.81 -0.46,0.77 -0.55,0.70 -0.63,0.63 -0.63,0.63 L -0.63,0.63 Z"></path></g><g transform="translate(72 246.8020782470703) rotate(0 21.666671752929688 -6.33331298828125)" stroke="none"><path fill="#1864ab" d="M 0.14,-1.14 Q 0.14,-1.14 1.69,-1.12 3.24,-1.09 5.49,-1.22 7.74,-1.35 10.99,-1.78 14.24,-2.22 17.89,-2.97 21.54,-3.73 24.99,-4.62 28.44,-5.52 31.95,-6.82 35.45,-8.12 38.79,-10.38 42.13,-12.63 42.23,-12.69 42.32,-12.74 42.42,-12.76 42.52,-12.78 42.63,-12.77 42.74,-12.76 42.83,-12.71 42.93,-12.67 43.00,-12.59 43.08,-12.52 43.13,-12.43 43.18,-12.33 43.19,-12.23 43.21,-12.12 43.19,-12.02 43.17,-11.91 43.12,-11.82 43.07,-11.73 43.00,-11.65 42.92,-11.58 42.82,-11.54 42.72,-11.49 42.62,-11.48 42.51,-11.47 42.41,-11.50 42.31,-11.52 42.21,-11.58 42.12,-11.63 42.06,-11.71 41.99,-11.79 41.95,-11.89 41.91,-11.99 41.91,-12.10 41.90,-12.21 41.93,-12.31 41.96,-12.41 42.02,-12.50 42.08,-12.58 42.17,-12.65 42.25,-12.71 42.35,-12.74 42.45,-12.78 42.56,-12.78 42.67,-12.77 42.77,-12.74 42.87,-12.70 42.95,-12.64 43.04,-12.57 43.09,-12.49 43.15,-12.40 43.18,-12.29 43.21,-12.19 43.20,-12.09 43.19,-11.98 43.15,-11.88 43.11,-11.78 43.04,-11.70 42.97,-11.62 42.97,-11.62 42.97,-11.62 39.78,-8.43 36.59,-5.24 32.90,-3.87 29.22,-2.49 25.69,-1.59 22.16,-0.69 18.40,0.06 14.63,0.82 11.26,1.25 7.89,1.67 5.38,1.76 2.88,1.85 1.37,1.50 -0.14,1.14 -0.27,1.11 -0.41,1.08 -0.53,1.01 -0.66,0.95 -0.76,0.85 -0.86,0.76 -0.94,0.64 -1.02,0.53 -1.07,0.40 -1.12,0.27 -1.14,0.13 -1.15,-0.00 -1.14,-0.14 -1.12,-0.28 -1.07,-0.41 -1.02,-0.54 -0.94,-0.65 -0.86,-0.77 -0.75,-0.86 -0.65,-0.95 -0.53,-1.02 -0.40,-1.08 -0.27,-1.11 -0.13,-1.15 0.00,-1.14 0.14,-1.14 0.14,-1.14 L 0.14,-1.14 Z"></path></g><g transform="translate(109.33334350585938 216.8020782470703) rotate(0 3.66668701171875 25.000015258789062)" stroke="none"><path fill="#1864ab" d="M 0.87,0.29 Q 0.87,0.29 0.91,0.89 0.95,1.50 1.30,2.77 1.64,4.05 2.18,7.03 2.72,10.01 3.74,15.09 4.75,20.16 5.37,23.68 5.99,27.20 6.64,31.79 7.30,36.37 7.77,39.64 8.24,42.92 8.32,46.05 8.40,49.19 8.40,49.29 8.40,49.40 8.37,49.50 8.34,49.60 8.27,49.69 8.21,49.77 8.12,49.84 8.04,49.90 7.93,49.93 7.83,49.96 7.73,49.95 7.62,49.95 7.52,49.91 7.42,49.87 7.34,49.80 7.26,49.74 7.20,49.65 7.14,49.56 7.12,49.45 7.10,49.35 7.11,49.24 7.12,49.14 7.16,49.04 7.20,48.94 7.27,48.87 7.34,48.79 7.44,48.74 7.53,48.69 7.64,48.67 7.74,48.65 7.85,48.66 7.95,48.68 8.05,48.73 8.14,48.78 8.21,48.85 8.29,48.93 8.33,49.02 8.38,49.12 8.39,49.22 8.41,49.33 8.39,49.43 8.36,49.54 8.31,49.63 8.26,49.72 8.18,49.79 8.10,49.86 8.00,49.90 7.90,49.94 7.80,49.95 7.69,49.96 7.59,49.93 7.48,49.90 7.40,49.85 7.31,49.79 7.24,49.70 7.18,49.62 7.14,49.52 7.10,49.42 7.10,49.42 7.10,49.42 6.07,46.40 5.04,43.38 4.58,40.10 4.12,36.81 3.50,32.28 2.87,27.75 2.27,24.25 1.66,20.76 0.71,15.64 -0.23,10.52 -0.72,7.55 -1.20,4.59 -1.46,2.69 -1.72,0.79 -1.29,0.25 -0.87,-0.29 -0.82,-0.39 -0.77,-0.49 -0.70,-0.57 -0.63,-0.66 -0.54,-0.72 -0.46,-0.79 -0.35,-0.83 -0.25,-0.88 -0.14,-0.90 -0.03,-0.91 0.07,-0.91 0.18,-0.90 0.28,-0.86 0.39,-0.83 0.48,-0.77 0.58,-0.71 0.65,-0.63 0.73,-0.55 0.79,-0.45 0.84,-0.36 0.87,-0.25 0.90,-0.14 0.91,-0.03 0.91,0.07 0.89,0.18 0.87,0.29 0.87,0.29 L 0.87,0.29 Z"></path></g><g transform="translate(128.66668701171875 255.46876525878906) rotate(0 26 -1.333343505859375)" stroke="none"><path fill="#1864ab" d="M 0.53,-1.07 Q 0.53,-1.07 1.73,-0.62 2.92,-0.17 4.90,-0.02 6.89,0.12 9.24,0.02 11.60,-0.07 13.77,-0.84 15.94,-1.61 18.10,-3.19 20.25,-4.78 21.47,-6.29 22.69,-7.80 22.95,-9.07 23.20,-10.34 22.68,-11.16 22.15,-11.98 21.01,-12.59 19.87,-13.20 17.89,-13.47 15.91,-13.74 13.38,-12.78 10.85,-11.82 8.68,-10.36 6.52,-8.90 5.18,-6.80 3.85,-4.70 3.87,-2.00 3.89,0.69 4.89,2.78 5.90,4.86 8.04,6.37 10.18,7.89 13.26,8.91 16.33,9.94 20.01,10.19 23.69,10.44 27.68,10.00 31.66,9.55 35.95,8.27 40.24,6.99 43.33,5.23 46.42,3.48 48.03,3.05 49.63,2.63 49.73,2.59 49.83,2.55 49.93,2.55 50.04,2.54 50.14,2.57 50.24,2.60 50.33,2.66 50.42,2.72 50.48,2.81 50.55,2.89 50.58,2.99 50.61,3.09 50.61,3.20 50.61,3.31 50.58,3.41 50.54,3.51 50.48,3.59 50.41,3.68 50.32,3.73 50.24,3.79 50.13,3.82 50.03,3.85 49.92,3.84 49.82,3.84 49.72,3.80 49.62,3.76 49.54,3.69 49.46,3.62 49.41,3.53 49.35,3.43 49.33,3.33 49.31,3.23 49.32,3.12 49.33,3.02 49.38,2.92 49.42,2.82 49.50,2.75 49.57,2.67 49.67,2.62 49.76,2.57 49.86,2.56 49.97,2.54 50.07,2.56 50.18,2.58 50.27,2.63 50.37,2.68 50.44,2.75 50.51,2.83 50.55,2.93 50.60,3.03 50.61,3.13 50.62,3.24 50.60,3.34 50.57,3.44 50.52,3.53 50.46,3.62 50.38,3.69 50.30,3.76 50.30,3.76 50.30,3.76 49.16,4.96 48.01,6.16 44.64,8.23 41.27,10.30 36.66,11.70 32.06,13.10 27.74,13.55 23.43,13.99 19.31,13.64 15.19,13.30 11.64,12.01 8.09,10.72 5.45,8.60 2.81,6.47 1.61,3.60 0.40,0.73 0.62,-2.81 0.84,-6.36 2.68,-9.05 4.52,-11.73 7.12,-13.40 9.72,-15.08 13.00,-16.08 16.28,-17.09 18.94,-16.56 21.61,-16.04 23.27,-14.79 24.94,-13.55 25.61,-11.80 26.28,-10.05 25.74,-7.98 25.20,-5.91 23.65,-4.07 22.10,-2.23 19.54,-0.45 16.97,1.32 14.36,2.15 11.74,2.99 9.15,3.07 6.56,3.15 4.11,2.81 1.67,2.47 0.56,1.77 -0.53,1.07 -0.65,0.99 -0.77,0.91 -0.87,0.80 -0.97,0.69 -1.04,0.57 -1.11,0.44 -1.14,0.30 -1.18,0.16 -1.18,0.02 -1.19,-0.12 -1.15,-0.26 -1.12,-0.40 -1.06,-0.53 -0.99,-0.66 -0.90,-0.77 -0.81,-0.88 -0.69,-0.96 -0.57,-1.04 -0.44,-1.10 -0.30,-1.15 -0.16,-1.17 -0.02,-1.19 0.12,-1.18 0.26,-1.16 0.39,-1.11 0.53,-1.07 0.53,-1.07 L 0.53,-1.07 Z"></path></g><g transform="translate(174 216.1354217529297) rotate(0 8.66668701171875 25)" stroke="none"><path fill="#1864ab" d="M 0.99,-0.16 Q 0.99,-0.16 1.31,0.96 1.63,2.09 2.15,4.06 2.67,6.03 3.92,10.68 5.16,15.34 6.45,19.80 7.74,24.25 9.04,28.23 10.34,32.21 11.65,35.38 12.95,38.56 14.25,41.45 15.54,44.33 16.41,46.53 17.28,48.73 17.32,48.83 17.37,48.93 17.38,49.03 17.39,49.14 17.36,49.24 17.34,49.35 17.28,49.44 17.23,49.53 17.15,49.60 17.07,49.66 16.97,49.70 16.87,49.74 16.76,49.74 16.66,49.75 16.55,49.72 16.45,49.69 16.36,49.63 16.28,49.57 16.21,49.48 16.15,49.40 16.12,49.30 16.08,49.20 16.09,49.09 16.09,48.98 16.12,48.88 16.16,48.78 16.22,48.70 16.29,48.62 16.37,48.56 16.46,48.50 16.57,48.47 16.67,48.44 16.77,48.45 16.88,48.46 16.98,48.50 17.08,48.54 17.16,48.61 17.24,48.68 17.29,48.77 17.35,48.86 17.37,48.96 17.39,49.07 17.38,49.17 17.36,49.28 17.32,49.38 17.27,49.47 17.20,49.55 17.13,49.62 17.03,49.67 16.94,49.72 16.83,49.74 16.73,49.75 16.62,49.74 16.52,49.72 16.42,49.67 16.33,49.62 16.26,49.54 16.19,49.46 16.19,49.46 16.19,49.46 14.36,47.59 12.52,45.72 11.16,42.78 9.80,39.85 8.47,36.55 7.13,33.25 5.83,29.20 4.53,25.15 3.30,20.63 2.07,16.11 1.01,11.38 -0.05,6.65 -0.46,4.58 -0.86,2.50 -0.93,1.33 -0.99,0.16 -0.99,0.04 -1.00,-0.07 -0.98,-0.19 -0.95,-0.31 -0.90,-0.42 -0.85,-0.53 -0.77,-0.62 -0.70,-0.72 -0.60,-0.79 -0.50,-0.86 -0.39,-0.91 -0.28,-0.96 -0.16,-0.98 -0.04,-1.00 0.07,-0.99 0.19,-0.98 0.31,-0.94 0.42,-0.91 0.53,-0.84 0.63,-0.78 0.71,-0.69 0.80,-0.60 0.86,-0.50 0.92,-0.39 0.95,-0.28 0.99,-0.16 0.99,-0.16 L 0.99,-0.16 Z"></path></g><g transform="translate(196.66668701171875 220.8020782470703) rotate(0 7.333343505859375 23)" stroke="none"><path fill="#1864ab" d="M 1.28,-0.35 Q 1.28,-0.35 2.01,1.71 2.74,3.78 3.41,7.23 4.08,10.67 5.12,14.54 6.15,18.41 7.54,22.51 8.93,26.62 10.29,30.48 11.65,34.35 13.03,39.04 14.42,43.74 14.45,43.84 14.47,43.95 14.46,44.05 14.45,44.16 14.41,44.26 14.37,44.35 14.30,44.43 14.22,44.51 14.13,44.56 14.04,44.61 13.93,44.63 13.83,44.65 13.73,44.64 13.62,44.62 13.53,44.58 13.43,44.53 13.36,44.45 13.28,44.38 13.23,44.28 13.19,44.19 13.17,44.08 13.16,43.97 13.18,43.87 13.20,43.77 13.25,43.67 13.31,43.58 13.39,43.51 13.47,43.44 13.56,43.40 13.66,43.36 13.77,43.35 13.87,43.34 13.98,43.37 14.08,43.39 14.17,43.45 14.26,43.51 14.32,43.59 14.39,43.68 14.43,43.78 14.46,43.88 14.46,43.98 14.47,44.09 14.43,44.19 14.40,44.29 14.34,44.38 14.28,44.46 14.19,44.53 14.10,44.59 14.00,44.62 13.90,44.65 13.79,44.64 13.69,44.64 13.59,44.60 13.49,44.57 13.41,44.50 13.33,44.43 13.27,44.34 13.21,44.25 13.21,44.25 13.21,44.25 10.77,39.88 8.32,35.51 6.96,31.62 5.60,27.73 4.19,23.51 2.78,19.29 1.75,15.30 0.72,11.30 0.14,7.97 -0.44,4.65 -0.86,2.50 -1.28,0.35 -1.31,0.19 -1.33,0.03 -1.31,-0.12 -1.30,-0.28 -1.24,-0.43 -1.19,-0.59 -1.10,-0.72 -1.01,-0.85 -0.90,-0.96 -0.78,-1.07 -0.64,-1.15 -0.50,-1.23 -0.34,-1.27 -0.19,-1.31 -0.03,-1.32 0.12,-1.32 0.28,-1.29 0.44,-1.25 0.58,-1.18 0.73,-1.11 0.85,-1.01 0.97,-0.90 1.07,-0.77 1.16,-0.64 1.22,-0.49 1.28,-0.35 1.28,-0.35 L 1.28,-0.35 Z"></path></g><g transform="translate(245.3333740234375 244.8020782470703) rotate(0 -0.333343505859375 8.666671752929688)" stroke="none"><path fill="#1864ab" d="M -0.77,0.77 Q -0.77,0.77 -1.70,0.18 -2.63,-0.41 -3.73,-0.93 -4.84,-1.45 -6.34,-1.45 -7.85,-1.45 -9.96,-0.23 -12.07,0.99 -13.64,2.87 -15.21,4.76 -16.01,7.09 -16.81,9.41 -16.81,11.86 -16.81,14.30 -15.68,15.78 -14.55,17.26 -12.44,18.00 -10.33,18.74 -7.11,18.72 -3.88,18.71 -0.47,17.98 2.93,17.26 6.37,15.87 9.81,14.49 11.97,11.64 14.13,8.79 14.85,6.49 15.56,4.20 15.16,2.79 14.76,1.38 11.79,0.30 8.82,-0.77 5.34,-0.87 1.87,-0.96 1.78,-0.90 1.69,-0.84 1.59,-0.81 1.49,-0.77 1.39,-0.78 1.28,-0.78 1.18,-0.81 1.08,-0.85 1.00,-0.92 0.91,-0.98 0.85,-1.07 0.80,-1.16 0.77,-1.26 0.74,-1.37 0.75,-1.47 0.76,-1.58 0.80,-1.67 0.84,-1.77 0.91,-1.85 0.98,-1.93 1.07,-1.99 1.17,-2.04 1.27,-2.06 1.37,-2.08 1.48,-2.07 1.58,-2.05 1.68,-2.01 1.78,-1.96 1.85,-1.89 1.93,-1.81 1.98,-1.72 2.02,-1.62 2.04,-1.52 2.05,-1.41 2.04,-1.31 2.02,-1.20 1.96,-1.11 1.91,-1.02 1.83,-0.95 1.76,-0.87 1.66,-0.83 1.56,-0.79 1.46,-0.78 1.35,-0.77 1.25,-0.79 1.14,-0.82 1.05,-0.88 0.96,-0.93 0.90,-1.01 0.83,-1.10 0.79,-1.20 0.75,-1.29 0.75,-1.40 0.75,-1.51 0.78,-1.61 0.81,-1.71 0.87,-1.80 0.93,-1.88 0.93,-1.88 0.93,-1.88 5.62,-3.05 10.30,-4.23 13.97,-2.38 17.64,-0.53 18.41,2.23 19.18,5.01 18.15,8.04 17.12,11.08 14.26,14.46 11.41,17.84 7.55,19.38 3.70,20.93 -0.11,21.69 -3.92,22.45 -7.79,22.33 -11.66,22.21 -14.52,20.89 -17.37,19.57 -18.90,17.10 -20.42,14.64 -20.36,11.42 -20.30,8.19 -19.15,5.30 -18.00,2.41 -15.89,0.12 -13.78,-2.15 -10.84,-3.51 -7.89,-4.88 -5.62,-4.66 -3.35,-4.44 -1.89,-3.55 -0.43,-2.65 0.17,-1.71 0.77,-0.77 0.86,-0.67 0.94,-0.57 0.99,-0.44 1.05,-0.32 1.07,-0.19 1.09,-0.06 1.09,0.06 1.08,0.19 1.04,0.32 1.00,0.45 0.93,0.56 0.86,0.67 0.77,0.77 0.67,0.86 0.56,0.93 0.45,1.00 0.32,1.04 0.19,1.08 0.06,1.09 -0.06,1.09 -0.19,1.07 -0.32,1.05 -0.44,0.99 -0.57,0.94 -0.67,0.86 -0.77,0.77 -0.77,0.77 L -0.77,0.77 Z"></path></g><g transform="translate(50.66668701171875 289.46876525878906) rotate(0 98.66665649414062 -1.333343505859375)" stroke="none"><path fill="#1864ab" d="M 0.37,-1.11 Q 0.37,-1.11 1.55,-0.88 2.73,-0.64 26.94,-1.53 51.14,-2.42 72.27,-2.98 93.39,-3.54 117.51,-4.18 141.63,-4.82 157.84,-4.85 174.05,-4.88 180.94,-4.41 187.82,-3.94 187.92,-3.93 188.03,-3.91 188.12,-3.86 188.22,-3.81 188.29,-3.73 188.36,-3.66 188.41,-3.56 188.45,-3.46 188.47,-3.36 188.48,-3.25 188.46,-3.15 188.43,-3.05 188.38,-2.95 188.32,-2.86 188.24,-2.79 188.16,-2.73 188.06,-2.69 187.97,-2.65 187.86,-2.64 187.75,-2.63 187.65,-2.66 187.55,-2.69 187.46,-2.75 187.37,-2.81 187.31,-2.89 187.24,-2.98 187.21,-3.08 187.17,-3.18 187.17,-3.28 187.17,-3.39 187.21,-3.49 187.24,-3.59 187.30,-3.68 187.37,-3.76 187.46,-3.82 187.54,-3.88 187.65,-3.91 187.75,-3.94 187.85,-3.93 187.96,-3.93 188.06,-3.89 188.16,-3.85 188.24,-3.78 188.32,-3.71 188.38,-3.62 188.43,-3.53 188.45,-3.43 188.48,-3.32 188.47,-3.22 188.46,-3.11 188.41,-3.02 188.37,-2.92 188.29,-2.84 188.22,-2.77 188.13,-2.71 188.03,-2.66 187.93,-2.65 187.82,-2.63 187.82,-2.63 187.82,-2.63 180.95,-2.11 174.07,-1.58 157.89,-1.48 141.72,-1.38 117.60,-0.80 93.48,-0.22 72.36,0.27 51.24,0.77 26.55,1.47 1.86,2.18 0.74,1.64 -0.37,1.11 -0.49,1.05 -0.62,0.99 -0.73,0.90 -0.84,0.81 -0.93,0.70 -1.01,0.58 -1.07,0.45 -1.12,0.32 -1.15,0.18 -1.17,0.04 -1.16,-0.09 -1.15,-0.23 -1.10,-0.36 -1.06,-0.50 -0.98,-0.62 -0.91,-0.74 -0.80,-0.84 -0.70,-0.93 -0.58,-1.00 -0.46,-1.08 -0.32,-1.11 -0.18,-1.15 -0.04,-1.16 0.09,-1.17 0.23,-1.14 0.37,-1.11 0.37,-1.11 L 0.37,-1.11 Z"></path></g><g transform="translate(619.3333740234375 185.46876525878906) rotate(0 -2.333343505859375 -4.6666717529296875)" stroke="none"><path fill="#1864ab" d="M -0.82,0.48 Q -0.82,0.48 -2.21,-1.79 -3.59,-4.06 -4.25,-6.14 -4.91,-8.22 -4.93,-8.32 -4.96,-8.43 -4.95,-8.53 -4.94,-8.64 -4.90,-8.74 -4.85,-8.83 -4.78,-8.91 -4.71,-8.99 -4.62,-9.04 -4.52,-9.09 -4.42,-9.11 -4.31,-9.13 -4.21,-9.11 -4.10,-9.10 -4.01,-9.05 -3.92,-9.00 -3.84,-8.93 -3.77,-8.85 -3.72,-8.76 -3.67,-8.66 -3.66,-8.55 -3.65,-8.45 -3.67,-8.35 -3.69,-8.24 -3.74,-8.15 -3.80,-8.06 -3.88,-7.99 -3.96,-7.92 -4.05,-7.88 -4.15,-7.83 -4.26,-7.83 -4.36,-7.82 -4.47,-7.85 -4.57,-7.87 -4.66,-7.93 -4.75,-7.99 -4.81,-8.07 -4.88,-8.16 -4.91,-8.26 -4.95,-8.36 -4.95,-8.46 -4.95,-8.57 -4.92,-8.67 -4.89,-8.77 -4.83,-8.86 -4.76,-8.94 -4.68,-9.00 -4.59,-9.06 -4.49,-9.09 -4.39,-9.12 -4.28,-9.12 -4.17,-9.12 -4.07,-9.08 -3.97,-9.04 -3.89,-8.97 -3.81,-8.91 -3.75,-8.82 -3.70,-8.73 -3.70,-8.73 -3.70,-8.73 -2.73,-6.93 -1.76,-5.13 -0.46,-2.80 0.82,-0.48 0.87,-0.37 0.91,-0.27 0.93,-0.15 0.95,-0.04 0.94,0.07 0.93,0.18 0.90,0.29 0.86,0.40 0.80,0.50 0.74,0.60 0.66,0.68 0.57,0.76 0.47,0.82 0.37,0.87 0.26,0.91 0.15,0.94 0.04,0.95 -0.07,0.95 -0.18,0.93 -0.29,0.91 -0.40,0.86 -0.50,0.81 -0.59,0.73 -0.68,0.66 -0.75,0.57 -0.82,0.48 -0.82,0.48 L -0.82,0.48 Z"></path></g><g transform="translate(350 214.8020782470703) rotate(0 118.00003051757812 -31.999984741210938)" stroke="none"><path fill="" d="M -1.24,0.15 Q -1.24,0.15 -1.53,-1.36 -1.81,-2.88 -1.89,-4.35 -1.98,-5.82 -1.62,-8.11 -1.27,-10.40 -0.72,-12.52 -0.17,-14.64 0.65,-17.10 1.47,-19.55 2.97,-24.20 4.47,-28.85 6.27,-33.38 8.07,-37.90 11.40,-42.81 14.73,-47.72 17.47,-49.92 20.21,-52.12 22.75,-52.27 25.28,-52.41 27.45,-50.39 29.63,-48.37 32.45,-42.21 35.28,-36.06 37.20,-30.99 39.13,-25.92 40.91,-20.69 42.69,-15.47 44.19,-11.96 45.69,-8.46 46.68,-6.44 47.66,-4.42 49.20,-3.39 50.73,-2.37 52.63,-2.30 54.54,-2.23 57.66,-4.38 60.77,-6.53 63.84,-9.86 66.91,-13.19 70.13,-17.66 73.35,-22.12 77.18,-29.15 81.02,-36.17 84.20,-42.07 87.38,-47.96 90.10,-52.23 92.82,-56.51 95.18,-58.87 97.54,-61.23 99.75,-61.08 101.96,-60.93 103.80,-56.91 105.65,-52.89 106.94,-47.71 108.22,-42.52 109.52,-36.71 110.82,-30.89 112.32,-25.59 113.82,-20.29 116.10,-16.08 118.39,-11.87 120.96,-10.08 123.54,-8.28 128.32,-9.17 133.11,-10.05 143.44,-22.30 153.78,-34.56 160.41,-42.89 167.04,-51.22 170.49,-55.39 173.95,-59.56 178.08,-60.33 182.21,-61.10 184.68,-54.80 187.16,-48.50 189.71,-42.21 192.26,-35.91 195.91,-31.70 199.56,-27.49 202.17,-25.35 204.78,-23.20 209.46,-22.58 214.15,-21.95 217.45,-22.20 220.75,-22.46 225.11,-24.02 229.47,-25.57 231.53,-25.91 233.59,-26.25 233.69,-26.27 233.79,-26.29 233.90,-26.27 234.01,-26.26 234.10,-26.21 234.20,-26.16 234.27,-26.09 234.34,-26.01 234.39,-25.92 234.44,-25.82 234.45,-25.72 234.47,-25.61 234.44,-25.51 234.42,-25.40 234.37,-25.31 234.32,-25.22 234.24,-25.15 234.16,-25.08 234.06,-25.04 233.96,-24.99 233.86,-24.99 233.75,-24.98 233.65,-25.00 233.55,-25.03 233.46,-25.09 233.37,-25.15 233.30,-25.23 233.24,-25.31 233.20,-25.41 233.16,-25.51 233.16,-25.62 233.16,-25.72 233.19,-25.83 233.22,-25.93 233.28,-26.01 233.35,-26.10 233.43,-26.16 233.52,-26.22 233.62,-26.25 233.72,-26.28 233.83,-26.28 233.94,-26.28 234.04,-26.24 234.14,-26.20 234.22,-26.13 234.30,-26.07 234.36,-25.98 234.41,-25.89 234.44,-25.78 234.46,-25.68 234.45,-25.58 234.45,-25.47 234.40,-25.37 234.36,-25.27 234.29,-25.20 234.22,-25.12 234.12,-25.07 234.03,-25.01 234.03,-25.01 234.03,-25.01 232.23,-23.96 230.43,-22.90 225.71,-21.18 220.99,-19.47 217.35,-19.22 213.71,-18.98 208.39,-19.88 203.07,-20.79 200.18,-23.16 197.28,-25.53 193.39,-30.14 189.50,-34.74 186.93,-41.08 184.36,-47.42 182.00,-53.70 179.65,-59.97 177.82,-58.77 175.99,-57.57 172.65,-53.49 169.31,-49.41 162.65,-41.04 155.99,-32.66 144.98,-20.04 133.98,-7.42 128.23,-6.60 122.48,-5.78 119.21,-8.09 115.94,-10.39 113.49,-14.94 111.04,-19.49 109.52,-24.87 108.00,-30.26 106.71,-36.05 105.41,-41.83 104.20,-46.82 102.99,-51.80 101.68,-55.48 100.36,-59.15 99.63,-59.07 98.90,-58.98 97.05,-56.98 95.20,-54.98 92.53,-50.80 89.86,-46.61 86.68,-40.72 83.49,-34.82 79.56,-27.65 75.62,-20.48 72.29,-15.88 68.96,-11.29 65.63,-7.74 62.31,-4.19 58.49,-1.87 54.68,0.44 52.01,0.19 49.33,-0.04 47.31,-1.56 45.28,-3.07 44.21,-5.22 43.14,-7.37 41.60,-10.97 40.07,-14.58 38.31,-19.76 36.54,-24.94 34.65,-29.93 32.76,-34.92 30.20,-40.71 27.63,-46.50 26.17,-48.23 24.70,-49.96 23.16,-49.91 21.63,-49.87 19.31,-48.01 16.99,-46.15 13.81,-41.50 10.64,-36.86 8.88,-32.44 7.11,-28.01 5.63,-23.33 4.15,-18.66 3.37,-16.29 2.60,-13.93 2.08,-11.93 1.57,-9.94 1.23,-7.96 0.89,-5.97 0.96,-4.61 1.04,-3.24 1.14,-1.70 1.24,-0.15 1.25,-0.00 1.25,0.14 1.21,0.29 1.17,0.44 1.10,0.57 1.03,0.71 0.93,0.82 0.83,0.93 0.71,1.02 0.58,1.11 0.44,1.16 0.30,1.22 0.15,1.24 0.00,1.25 -0.14,1.24 -0.29,1.22 -0.43,1.17 -0.58,1.11 -0.70,1.03 -0.83,0.94 -0.93,0.83 -1.03,0.71 -1.10,0.58 -1.17,0.45 -1.21,0.30 -1.24,0.15 -1.24,0.15 L -1.24,0.15 Z"></path></g></svg>