<svg version="1.1" xmlns="http://www.w3.org/2000/svg" viewBox="0 0 85.33344350585938 141.13550649414063" width="85.33344350585938" height="141.13550649414063">
  <!-- svg-source:excalidraw -->
  
  <defs>
    <style>
      @font-face {
        font-family: "Virgil";
        src: url("https://excalidraw.com/Virgil.woff2");
      }
      @font-face {
        font-family: "Cascadia";
        src: url("https://excalidraw.com/Cascadia.woff2");
      }
    </style>
  </defs>
  <rect x="0" y="0" width="85.33344350585938" height="141.13550649414063" fill="#fff0"></rect><g stroke-linecap="round" transform="translate(10 10) rotate(0 0.5 0.5)"><path d="M-0.06 -0.03 C0.4 -0.08, 0.7 0.04, 0.91 0.03 M0.05 -0.04 C0.42 -0.05, 0.75 0.03, 0.99 0.01 M1.08 -0.06 C1.09 0.27, 1.05 0.48, 1.09 0.92 M0.97 0.01 C0.95 0.33, 0.98 0.72, 1 0.99 M1.03 1.06 C0.65 1.06, 0.49 0.96, -0.03 0.97 M1 1.02 C0.74 0.96, 0.52 1.04, -0.04 0.98 M-0.04 1.01 C0 0.63, -0.06 0.15, 0.05 -0.03 M-0.04 0.95 C-0.04 0.73, -0.03 0.59, -0.05 -0.02" stroke="transparent" stroke-width="0.5" fill="none"></path></g><g transform="translate(36 33.135406494140625) rotate(0 -3 7.333343505859375)" stroke="none"><path fill="#1864ab" d="M -0.22,1.56 Q -0.22,1.56 -1.61,2.26 -3.00,2.96 -4.56,4.39 -6.12,5.81 -6.78,7.14 -7.44,8.48 -7.10,9.55 -6.76,10.62 -5.30,10.41 -3.85,10.20 -3.22,8.79 -2.60,7.37 -2.48,5.68 -2.37,4.00 -2.32,2.42 -2.28,0.85 -2.27,0.77 -2.26,0.69 -2.19,0.27 -2.13,-0.15 -1.97,-0.55 -1.81,-0.95 -1.55,-1.30 -1.30,-1.65 -0.97,-1.93 -0.64,-2.21 -0.25,-2.40 0.12,-2.60 0.55,-2.69 0.97,-2.78 1.40,-2.77 1.83,-2.76 2.25,-2.65 2.67,-2.54 3.04,-2.33 3.42,-2.12 3.74,-1.83 4.06,-1.53 4.29,-1.17 4.53,-0.81 4.68,-0.40 4.82,0.00 4.86,0.43 4.90,0.86 5.07,1.91 5.24,2.97 5.35,4.63 5.45,6.28 5.66,7.71 5.87,9.14 6.28,10.50 6.69,11.86 6.63,13.31 6.57,14.76 6.71,14.92 6.84,15.08 6.92,15.28 7.00,15.48 7.01,15.69 7.02,15.90 6.97,16.11 6.91,16.31 6.79,16.49 6.67,16.66 6.50,16.79 6.33,16.92 6.13,16.99 5.93,17.06 5.72,17.05 5.50,17.05 5.30,16.99 5.10,16.92 4.93,16.79 4.76,16.66 4.64,16.48 4.52,16.31 4.47,16.10 4.41,15.90 4.42,15.69 4.44,15.47 4.51,15.28 4.59,15.08 4.73,14.92 4.87,14.76 5.05,14.65 5.23,14.54 5.44,14.49 5.65,14.45 5.86,14.47 6.07,14.49 6.26,14.58 6.46,14.67 6.61,14.82 6.77,14.97 6.86,15.15 6.96,15.34 7.00,15.55 7.03,15.76 7.00,15.97 6.96,16.18 6.86,16.37 6.76,16.56 6.61,16.70 6.45,16.85 6.26,16.94 6.07,17.02 5.86,17.05 5.64,17.07 5.44,17.02 5.23,16.98 5.05,16.87 4.87,16.76 4.87,16.76 4.87,16.76 2.37,15.36 -0.11,13.97 -0.66,12.06 -1.20,10.16 -1.45,8.42 -1.69,6.68 -1.75,5.38 -1.81,4.09 -2.04,2.39 -2.26,0.69 -2.19,0.27 -2.13,-0.15 -1.97,-0.55 -1.81,-0.95 -1.55,-1.30 -1.30,-1.65 -0.97,-1.93 -0.64,-2.21 -0.25,-2.40 0.12,-2.60 0.55,-2.69 0.97,-2.78 1.40,-2.77 1.83,-2.76 2.25,-2.65 2.67,-2.54 3.04,-2.33 3.42,-2.12 3.74,-1.83 4.06,-1.53 4.29,-1.17 4.53,-0.81 4.68,-0.40 4.82,-0.00 4.86,0.43 4.90,0.86 4.89,1.58 4.87,2.31 4.84,3.41 4.80,4.52 4.70,5.74 4.61,6.97 4.30,8.59 3.98,10.21 3.45,11.39 2.91,12.58 1.74,14.12 0.57,15.66 -0.89,16.41 -2.37,17.16 -4.28,17.39 -6.18,17.63 -8.46,16.87 -10.74,16.11 -12.03,14.62 -13.32,13.13 -13.88,10.84 -14.45,8.55 -14.04,6.81 -13.63,5.07 -12.33,2.95 -11.02,0.82 -8.97,-0.88 -6.93,-2.59 -4.64,-3.16 -2.35,-3.73 -1.06,-2.65 0.22,-1.56 0.40,-1.51 0.59,-1.47 0.76,-1.37 0.92,-1.28 1.06,-1.15 1.20,-1.02 1.31,-0.86 1.41,-0.70 1.48,-0.52 1.54,-0.34 1.56,-0.15 1.58,0.03 1.55,0.22 1.53,0.41 1.45,0.58 1.38,0.76 1.27,0.92 1.16,1.07 1.01,1.19 0.87,1.32 0.70,1.40 0.53,1.49 0.34,1.53 0.15,1.57 -0.03,1.57 -0.22,1.56 -0.22,1.56 L -0.22,1.56 Z"></path></g><g transform="translate(42 17.135406494140625) rotate(0 5.333343505859375 21.333343505859375)" stroke="none"><path fill="#1864ab" d="M 0,-2.33 Q 0,-2.33 1.02,-2.73 2.04,-3.12 3.79,-2.02 5.55,-0.92 6.88,1.39 8.21,3.72 9.42,6.29 10.62,8.87 11.78,12.65 12.94,16.44 13.46,19.95 13.97,23.46 13.39,27.26 12.82,31.06 11.71,33.79 10.60,36.52 7.35,39.81 4.10,43.10 3.96,43.26 3.82,43.42 3.64,43.52 3.45,43.63 3.25,43.67 3.04,43.71 2.83,43.69 2.62,43.66 2.42,43.57 2.23,43.48 2.08,43.33 1.93,43.18 1.83,42.99 1.74,42.80 1.71,42.59 1.67,42.38 1.71,42.17 1.75,41.96 1.85,41.78 1.95,41.59 2.11,41.45 2.27,41.30 2.46,41.22 2.66,41.13 2.87,41.11 3.08,41.09 3.29,41.14 3.49,41.19 3.67,41.30 3.85,41.41 3.99,41.58 4.12,41.74 4.20,41.94 4.27,42.14 4.28,42.35 4.29,42.56 4.23,42.77 4.17,42.97 4.05,43.15 3.93,43.32 3.76,43.45 3.58,43.57 3.38,43.64 3.18,43.70 2.97,43.70 2.75,43.69 2.55,43.62 2.35,43.55 2.19,43.42 2.02,43.29 1.90,43.11 1.79,42.93 1.73,42.73 1.68,42.52 1.69,42.31 1.71,42.10 1.79,41.90 1.87,41.71 1.87,41.71 1.87,41.71 3.12,37.77 4.37,33.84 5.29,31.85 6.20,29.86 6.77,27.08 7.34,24.29 6.94,21.32 6.54,18.36 5.55,15.02 4.56,11.69 3.42,9.23 2.28,6.78 1.65,4.95 1.02,3.12 0.51,2.73 0,2.33 -0.27,2.30 -0.55,2.26 -0.82,2.16 -1.08,2.06 -1.31,1.90 -1.54,1.74 -1.73,1.53 -1.92,1.32 -2.05,1.07 -2.18,0.82 -2.25,0.55 -2.31,0.28 -2.31,-0.00 -2.31,-0.28 -2.25,-0.55 -2.18,-0.82 -2.05,-1.07 -1.92,-1.32 -1.73,-1.53 -1.54,-1.74 -1.31,-1.90 -1.08,-2.06 -0.82,-2.16 -0.55,-2.26 -0.27,-2.30 0.00,-2.33 0.00,-2.33 L 0,-2.33 Z"></path></g><g transform="translate(75.33334350585938 131.13540649414062) rotate(0 0.00005000000000165983 0.00005000000000165983)" stroke="none"><path fill="#1864ab" d="M 1.57,-1.57 Q 1.57,-1.57 1.77,-1.27 1.98,-0.98 2.09,-0.64 2.20,-0.29 2.19,0.05 2.18,0.41 2.05,0.75 1.93,1.09 1.70,1.37 1.48,1.65 1.18,1.84 0.87,2.04 0.52,2.12 0.18,2.21 -0.17,2.18 -0.53,2.15 -0.86,2.01 -1.19,1.87 -1.46,1.63 -1.73,1.39 -1.90,1.07 -2.08,0.76 -2.15,0.41 -2.21,0.05 -2.17,-0.29 -2.12,-0.65 -1.96,-0.97 -1.80,-1.29 -1.54,-1.54 -1.29,-1.80 -0.97,-1.96 -0.65,-2.12 -0.29,-2.17 0.06,-2.21 0.41,-2.15 0.76,-2.08 1.07,-1.90 1.39,-1.73 1.63,-1.46 1.87,-1.19 2.01,-0.86 2.15,-0.53 2.18,-0.17 2.21,0.18 2.12,0.52 2.03,0.87 1.84,1.18 1.65,1.48 1.37,1.70 1.09,1.93 0.75,2.05 0.41,2.18 0.05,2.19 -0.30,2.20 -0.64,2.09 -0.98,1.98 -1.27,1.77 -1.57,1.56 -1.57,1.57 -1.57,1.57 -1.73,1.35 -1.90,1.14 -2.01,0.90 -2.12,0.66 -2.16,0.39 -2.21,0.13 -2.20,-0.13 -2.18,-0.40 -2.10,-0.65 -2.02,-0.91 -1.88,-1.14 -1.74,-1.36 -1.55,-1.55 -1.36,-1.74 -1.14,-1.88 -0.91,-2.02 -0.65,-2.10 -0.40,-2.18 -0.13,-2.20 0.13,-2.21 0.39,-2.16 0.66,-2.12 0.90,-2.01 1.14,-1.90 1.35,-1.73 1.57,-1.57 1.57,-1.57 L 1.57,-1.57 Z"></path></g></svg>