<svg version="1.1" xmlns="http://www.w3.org/2000/svg" viewBox="0 0 304.66668701171875 114.77081298828125" width="304.66668701171875" height="114.77081298828125">
  <!-- svg-source:excalidraw -->
  
  <defs>
    <style>
      @font-face {
        font-family: "Virgil";
        src: url("https://excalidraw.com/Virgil.woff2");
      }
      @font-face {
        font-family: "Cascadia";
        src: url("https://excalidraw.com/Cascadia.woff2");
      }
    </style>
  </defs>
  <rect x="0" y="0" width="304.66668701171875" height="114.77081298828125" fill="#fff0"></rect><g stroke-linecap="round" transform="translate(10 10) rotate(0 0.5 0.5)"><path d="M-0.06 -0.03 C0.4 -0.08, 0.7 0.04, 0.91 0.03 M0.05 -0.04 C0.42 -0.05, 0.75 0.03, 0.99 0.01 M1.08 -0.06 C1.09 0.27, 1.05 0.48, 1.09 0.92 M0.97 0.01 C0.95 0.33, 0.98 0.72, 1 0.99 M1.03 1.06 C0.65 1.06, 0.49 0.96, -0.03 0.97 M1 1.02 C0.74 0.96, 0.52 1.04, -0.04 0.98 M-0.04 1.01 C0 0.63, -0.06 0.15, 0.05 -0.03 M-0.04 0.95 C-0.04 0.73, -0.03 0.59, -0.05 -0.02" stroke="transparent" stroke-width="1" fill="none"></path></g><g transform="translate(107.33334350585938 33.4375) rotate(0 -2.3333282470703125 19.666656494140625)" stroke="none"><path fill="#000" d="M -0.97,1.36 Q -0.97,1.36 -2.58,1.02 -4.20,0.68 -4.99,0.73 -5.78,0.77 -6.08,0.50 -6.38,0.23 -6.60,-0.10 -6.83,-0.44 -6.97,-0.82 -7.10,-1.21 -7.15,-1.61 -7.19,-2.01 -7.13,-2.42 -7.08,-2.82 -6.93,-3.20 -6.78,-3.57 -6.54,-3.90 -6.31,-4.24 -6.00,-4.50 -5.69,-4.76 -5.33,-4.95 -4.96,-5.13 -4.57,-5.22 -4.17,-5.31 -3.76,-5.31 -3.36,-5.30 -2.97,-5.20 -2.57,-5.09 -2.22,-4.90 -1.86,-4.70 -1.15,-0.63 -0.45,3.44 -0.25,7.15 -0.06,10.86 0.21,15.14 0.48,19.41 0.79,23.32 1.10,27.23 1.61,30.71 2.11,34.18 1.37,37.18 0.63,40.17 0.79,40.32 0.94,40.46 1.05,40.64 1.15,40.83 1.19,41.04 1.23,41.25 1.20,41.46 1.17,41.67 1.08,41.86 0.98,42.05 0.83,42.20 0.68,42.35 0.49,42.44 0.30,42.54 0.09,42.56 -0.11,42.59 -0.32,42.55 -0.53,42.51 -0.71,42.41 -0.90,42.30 -1.04,42.14 -1.18,41.98 -1.26,41.79 -1.35,41.59 -1.36,41.38 -1.38,41.17 -1.33,40.96 -1.28,40.76 -1.16,40.58 -1.05,40.40 -0.88,40.27 -0.71,40.13 -0.51,40.06 -0.32,39.99 -0.10,39.98 0.10,39.98 0.30,40.04 0.51,40.10 0.68,40.23 0.85,40.35 0.97,40.53 1.10,40.70 1.16,40.90 1.22,41.11 1.21,41.32 1.21,41.53 1.13,41.73 1.06,41.93 0.93,42.09 0.79,42.26 0.61,42.37 0.43,42.49 0.23,42.54 0.02,42.59 -0.18,42.57 -0.39,42.55 -0.59,42.47 -0.78,42.38 -0.78,42.38 -0.78,42.38 -2.87,38.79 -4.96,35.19 -5.48,31.49 -6.00,27.78 -6.30,23.81 -6.60,19.85 -6.85,15.51 -7.10,11.17 -7.25,7.24 -7.39,3.31 -6.58,2.04 -5.78,0.77 -6.08,0.50 -6.38,0.23 -6.60,-0.10 -6.83,-0.44 -6.97,-0.82 -7.10,-1.21 -7.15,-1.61 -7.19,-2.01 -7.13,-2.42 -7.08,-2.82 -6.93,-3.20 -6.78,-3.57 -6.54,-3.90 -6.31,-4.24 -6.00,-4.50 -5.69,-4.76 -5.33,-4.95 -4.96,-5.13 -4.57,-5.22 -4.17,-5.31 -3.76,-5.31 -3.36,-5.30 -2.97,-5.20 -2.57,-5.09 -2.22,-4.90 -1.86,-4.70 -1.51,-4.61 -1.16,-4.51 -0.09,-2.94 0.97,-1.36 1.12,-1.22 1.27,-1.09 1.38,-0.92 1.49,-0.75 1.56,-0.56 1.63,-0.37 1.65,-0.17 1.67,0.02 1.64,0.22 1.62,0.42 1.54,0.61 1.47,0.80 1.35,0.96 1.23,1.13 1.08,1.26 0.92,1.39 0.74,1.48 0.56,1.57 0.37,1.62 0.17,1.66 -0.02,1.66 -0.22,1.65 -0.42,1.60 -0.61,1.55 -0.79,1.46 -0.97,1.36 -0.97,1.36 L -0.97,1.36 Z"></path></g><g transform="translate(104 54.104156494140625) rotate(0 10 -2.3333282470703125)" stroke="none"><path fill="#000" d="M -0.57,-2.30 Q -0.57,-2.30 1.59,-3.37 3.77,-4.45 6.72,-5.09 9.66,-5.73 12.09,-6.13 14.52,-6.53 16.65,-6.11 18.77,-5.68 18.98,-5.71 19.19,-5.73 19.40,-5.68 19.61,-5.64 19.79,-5.53 19.97,-5.42 20.11,-5.26 20.24,-5.10 20.32,-4.90 20.40,-4.70 20.41,-4.49 20.42,-4.28 20.37,-4.07 20.31,-3.87 20.19,-3.69 20.07,-3.52 19.90,-3.39 19.73,-3.26 19.53,-3.19 19.33,-3.12 19.12,-3.12 18.91,-3.12 18.70,-3.19 18.50,-3.26 18.33,-3.39 18.16,-3.52 18.05,-3.69 17.93,-3.87 17.87,-4.07 17.81,-4.28 17.82,-4.49 17.84,-4.70 17.92,-4.90 17.99,-5.10 18.13,-5.26 18.27,-5.42 18.45,-5.53 18.63,-5.64 18.84,-5.68 19.05,-5.73 19.26,-5.71 19.47,-5.68 19.66,-5.59 19.86,-5.51 20.01,-5.36 20.16,-5.21 20.26,-5.03 20.36,-4.84 20.40,-4.63 20.43,-4.42 20.40,-4.21 20.36,-4.00 20.26,-3.81 20.16,-3.62 20.01,-3.48 19.85,-3.33 19.66,-3.24 19.47,-3.15 19.47,-3.15 19.47,-3.15 17.62,-1.63 15.76,-0.11 13.43,0.40 11.11,0.92 8.26,1.53 5.42,2.15 3.00,2.22 0.57,2.30 0.29,2.34 0.00,2.37 -0.27,2.34 -0.56,2.31 -0.82,2.21 -1.09,2.10 -1.33,1.94 -1.57,1.78 -1.76,1.57 -1.95,1.35 -2.08,1.10 -2.22,0.85 -2.29,0.57 -2.36,0.29 -2.36,0.00 -2.36,-0.27 -2.29,-0.55 -2.22,-0.83 -2.09,-1.09 -1.96,-1.34 -1.77,-1.56 -1.58,-1.77 -1.34,-1.93 -1.11,-2.10 -0.84,-2.20 -0.57,-2.30 -0.57,-2.30 L -0.57,-2.30 Z"></path></g><g transform="translate(124.66668701171875 36.104156494140625) rotate(0 1.666656494140625 14.666656494140625)" stroke="none"><path fill="#000" d="M 2.51,0.50 Q 2.51,0.50 2.77,1.53 3.03,2.57 3.18,4.28 3.33,5.99 3.75,8.64 4.17,11.29 4.74,14.36 5.30,17.42 5.90,20.00 6.51,22.58 6.34,25.77 6.18,28.96 6.20,29.17 6.23,29.38 6.19,29.59 6.15,29.80 6.05,29.98 5.95,30.17 5.79,30.31 5.63,30.45 5.44,30.54 5.24,30.62 5.03,30.64 4.82,30.66 4.61,30.61 4.41,30.56 4.23,30.44 4.05,30.33 3.91,30.16 3.78,30.00 3.71,29.80 3.63,29.60 3.63,29.39 3.62,29.17 3.68,28.97 3.74,28.77 3.87,28.59 3.99,28.42 4.16,28.30 4.33,28.17 4.54,28.11 4.74,28.05 4.95,28.05 5.17,28.06 5.36,28.13 5.56,28.20 5.73,28.34 5.90,28.47 6.01,28.65 6.13,28.83 6.18,29.03 6.23,29.24 6.21,29.45 6.20,29.66 6.11,29.86 6.03,30.05 5.89,30.21 5.75,30.37 5.56,30.47 5.38,30.58 5.17,30.62 4.96,30.66 4.75,30.63 4.54,30.60 4.35,30.51 4.16,30.42 4.01,30.27 3.86,30.12 3.76,29.93 3.67,29.74 3.67,29.74 3.67,29.74 1.65,26.96 -0.36,24.19 -1.00,21.44 -1.64,18.69 -2.21,15.52 -2.78,12.35 -3.22,9.36 -3.66,6.36 -3.73,3.81 -3.79,1.26 -3.15,0.37 -2.51,-0.50 -2.41,-0.79 -2.32,-1.09 -2.15,-1.35 -1.99,-1.61 -1.77,-1.83 -1.54,-2.04 -1.28,-2.20 -1.01,-2.35 -0.71,-2.44 -0.42,-2.53 -0.11,-2.54 0.19,-2.55 0.49,-2.49 0.80,-2.43 1.08,-2.30 1.36,-2.17 1.60,-1.97 1.84,-1.78 2.03,-1.53 2.21,-1.29 2.33,-1.00 2.46,-0.72 2.51,-0.41 2.56,-0.11 2.53,0.19 2.51,0.50 2.51,0.50 L 2.51,0.50 Z"></path></g><g transform="translate(135.3333740234375 59.4375) rotate(0 17.33331298828125 -10.666671752929688)" stroke="none"><path fill="#000" d="M -0.93,-2.44 Q -0.93,-2.44 1.40,-3.79 3.73,-5.14 5.85,-6.09 7.97,-7.04 9.54,-8.21 11.11,-9.39 9.65,-9.46 8.20,-9.53 6.90,-9.15 5.60,-8.78 4.76,-7.35 3.92,-5.93 3.55,-4.38 3.17,-2.83 3.17,-1.71 3.17,-0.59 4.64,0.31 6.11,1.22 8.02,1.63 9.93,2.05 12.40,2.33 14.86,2.62 16.22,2.27 17.59,1.92 18.97,-0.39 20.35,-2.71 20.78,-4.99 21.21,-7.27 21.41,-9.59 21.61,-11.91 21.47,-15.10 21.33,-18.29 21.02,-20.57 20.70,-22.84 20.47,-24.23 20.25,-25.61 20.25,-26.00 20.26,-26.39 20.36,-26.77 20.46,-27.15 20.65,-27.49 20.84,-27.83 21.11,-28.12 21.37,-28.41 21.70,-28.63 22.03,-28.84 22.40,-28.97 22.76,-29.11 23.15,-29.15 23.54,-29.18 23.93,-29.13 24.32,-29.08 24.68,-28.93 25.05,-28.78 25.37,-28.55 25.68,-28.32 25.94,-28.03 26.19,-27.73 26.37,-27.38 26.54,-27.03 26.63,-26.64 26.71,-26.26 27.13,-24.73 27.55,-23.19 27.90,-21.51 28.24,-19.83 29.16,-16.34 30.08,-12.84 30.82,-10.45 31.57,-8.06 33.24,-5.02 34.92,-1.97 35.59,0.48 36.27,2.93 36.38,3.11 36.48,3.30 36.53,3.51 36.57,3.71 36.54,3.93 36.52,4.14 36.43,4.33 36.33,4.52 36.18,4.67 36.04,4.82 35.85,4.92 35.66,5.02 35.45,5.05 35.24,5.08 35.03,5.04 34.82,5.00 34.63,4.90 34.45,4.80 34.30,4.64 34.16,4.49 34.07,4.29 33.99,4.10 33.97,3.89 33.95,3.67 34.00,3.47 34.05,3.26 34.16,3.08 34.27,2.90 34.43,2.76 34.60,2.63 34.80,2.55 35.00,2.48 35.21,2.47 35.42,2.46 35.62,2.52 35.83,2.58 36.00,2.70 36.18,2.83 36.30,3.00 36.43,3.17 36.49,3.37 36.56,3.57 36.55,3.79 36.55,4.00 36.48,4.20 36.41,4.40 36.28,4.57 36.15,4.73 35.97,4.85 35.79,4.97 35.58,5.02 35.38,5.07 35.17,5.06 34.95,5.04 34.76,4.96 34.56,4.88 34.40,4.74 34.24,4.60 34.24,4.60 34.24,4.60 31.57,2.99 28.91,1.38 26.86,-2.27 24.81,-5.94 24.02,-8.52 23.22,-11.10 22.32,-14.79 21.42,-18.47 21.09,-20.16 20.77,-21.84 20.51,-23.73 20.25,-25.61 20.25,-26.00 20.26,-26.39 20.36,-26.77 20.46,-27.15 20.65,-27.49 20.84,-27.83 21.11,-28.12 21.37,-28.41 21.70,-28.63 22.03,-28.84 22.40,-28.97 22.76,-29.11 23.15,-29.15 23.54,-29.18 23.93,-29.13 24.32,-29.08 24.68,-28.93 25.05,-28.78 25.37,-28.55 25.68,-28.32 25.94,-28.03 26.19,-27.73 26.37,-27.38 26.54,-27.03 26.63,-26.64 26.71,-26.26 26.69,-24.86 26.67,-23.45 26.83,-20.97 27.00,-18.49 27.10,-15.00 27.19,-11.51 27.04,-8.94 26.88,-6.36 26.48,-3.44 26.07,-0.51 24.71,2.70 23.36,5.92 21.31,7.31 19.27,8.69 16.71,9.21 14.15,9.72 10.99,9.35 7.84,8.97 4.64,7.82 1.44,6.67 -0.99,3.90 -3.43,1.13 -3.60,-1.88 -3.78,-4.90 -2.76,-7.68 -1.74,-10.46 0.69,-12.92 3.14,-15.37 5.95,-16.01 8.76,-16.64 11.18,-16.20 13.61,-15.75 15.48,-14.09 17.34,-12.43 17.59,-10.13 17.83,-7.83 16.55,-5.85 15.27,-3.86 13.05,-2.29 10.82,-0.72 8.52,0.29 6.22,1.31 3.58,1.87 0.93,2.44 0.63,2.51 0.32,2.59 0.01,2.59 -0.30,2.59 -0.60,2.52 -0.91,2.45 -1.19,2.30 -1.47,2.15 -1.71,1.95 -1.94,1.74 -2.13,1.48 -2.31,1.22 -2.42,0.93 -2.53,0.63 -2.57,0.32 -2.61,0.01 -2.57,-0.30 -2.54,-0.61 -2.43,-0.90 -2.32,-1.20 -2.14,-1.46 -1.96,-1.72 -1.73,-1.93 -1.49,-2.14 -1.21,-2.29 -0.93,-2.44 -0.93,-2.44 L -0.93,-2.44 Z"></path></g><g transform="translate(174 30.104156494140625) rotate(0 4.000030517578125 16.666671752929688)" stroke="none"><path fill="#000" d="M 2.62,0 Q 2.62,0 3.05,3.64 3.48,7.28 3.87,10.55 4.26,13.82 4.97,16.81 5.68,19.80 6.67,22.24 7.66,24.68 8.59,27.98 9.53,31.27 9.62,31.47 9.70,31.66 9.73,31.87 9.75,32.08 9.70,32.29 9.66,32.50 9.55,32.68 9.44,32.86 9.27,33.00 9.11,33.13 8.91,33.21 8.72,33.29 8.50,33.30 8.29,33.31 8.09,33.25 7.88,33.20 7.71,33.08 7.53,32.96 7.40,32.79 7.28,32.62 7.21,32.41 7.14,32.21 7.14,32.00 7.14,31.79 7.21,31.59 7.28,31.39 7.41,31.22 7.54,31.05 7.71,30.93 7.89,30.81 8.10,30.76 8.30,30.70 8.51,30.71 8.72,30.72 8.92,30.80 9.12,30.88 9.28,31.02 9.44,31.16 9.55,31.34 9.66,31.52 9.70,31.73 9.75,31.94 9.73,32.15 9.70,32.36 9.61,32.55 9.52,32.75 9.38,32.90 9.23,33.05 9.04,33.15 8.85,33.25 8.64,33.28 8.43,33.32 8.22,33.28 8.01,33.25 7.83,33.15 7.64,33.05 7.49,32.89 7.35,32.74 7.35,32.74 7.35,32.74 4.24,30.03 1.13,27.33 -0.02,24.36 -1.19,21.40 -1.96,18.00 -2.73,14.60 -3.11,10.94 -3.48,7.28 -3.05,3.64 -2.62,0 -2.58,-0.31 -2.54,-0.62 -2.43,-0.92 -2.32,-1.21 -2.14,-1.48 -1.96,-1.74 -1.72,-1.95 -1.49,-2.16 -1.21,-2.30 -0.93,-2.45 -0.62,-2.53 -0.31,-2.60 0.00,-2.60 0.31,-2.60 0.62,-2.53 0.93,-2.45 1.21,-2.30 1.49,-2.16 1.72,-1.95 1.96,-1.74 2.14,-1.48 2.32,-1.21 2.43,-0.92 2.54,-0.62 2.58,-0.31 2.62,0.00 2.62,0.00 L 2.62,0 Z"></path></g><g transform="translate(201.3333740234375 46.77081298828125) rotate(0 -1.333343505859375 4.6666717529296875)" stroke="none"><path fill="#000" d="M -1.70,1.46 Q -1.70,1.46 -3.23,0.64 -4.76,-0.16 -5.42,1.93 -6.08,4.03 -6.11,5.46 -6.14,6.88 -5.50,7.82 -4.86,8.77 -2.68,9.07 -0.50,9.38 0.66,8.50 1.84,7.63 2.29,6.10 2.75,4.57 1.90,3.44 1.05,2.30 -0.08,1.67 -1.22,1.04 -0.99,-0.53 -0.76,-2.11 -0.61,-1.97 -0.45,-1.82 -0.36,-1.63 -0.26,-1.44 -0.22,-1.23 -0.19,-1.02 -0.23,-0.81 -0.26,-0.60 -0.36,-0.42 -0.46,-0.23 -0.62,-0.08 -0.77,0.05 -0.97,0.14 -1.16,0.23 -1.37,0.25 -1.58,0.27 -1.79,0.22 -2.00,0.18 -2.18,0.07 -2.36,-0.03 -2.50,-0.20 -2.63,-0.36 -2.71,-0.56 -2.79,-0.76 -2.80,-0.97 -2.81,-1.18 -2.75,-1.38 -2.69,-1.59 -2.57,-1.76 -2.45,-1.94 -2.28,-2.07 -2.11,-2.19 -1.91,-2.26 -1.71,-2.33 -1.50,-2.33 -1.28,-2.33 -1.08,-2.26 -0.88,-2.19 -0.71,-2.06 -0.55,-1.93 -0.43,-1.75 -0.31,-1.57 -0.25,-1.37 -0.20,-1.16 -0.21,-0.95 -0.22,-0.74 -0.30,-0.54 -0.38,-0.35 -0.52,-0.19 -0.66,-0.02 -0.84,0.07 -1.03,0.18 -1.23,0.23 -1.44,0.27 -1.65,0.25 -1.86,0.22 -2.06,0.13 -2.25,0.04 -2.25,0.04 -2.25,0.04 0.15,-2.62 2.55,-5.29 5.02,-3.38 7.48,-1.47 8.80,1.55 10.11,4.59 9.60,7.36 9.09,10.14 7.22,12.14 5.34,14.15 2.36,15.38 -0.61,16.61 -3.67,16.16 -6.74,15.70 -8.92,14.04 -11.09,12.39 -12.23,9.61 -13.37,6.83 -13.09,4.00 -12.81,1.18 -11.49,-1.30 -10.18,-3.79 -7.68,-5.22 -5.17,-6.65 -2.50,-5.92 0.16,-5.19 0.93,-3.33 1.70,-1.46 1.85,-1.23 2.00,-1.01 2.10,-0.75 2.19,-0.50 2.22,-0.23 2.25,0.03 2.21,0.30 2.17,0.57 2.07,0.82 1.97,1.07 1.81,1.29 1.65,1.51 1.45,1.69 1.24,1.87 1.00,1.99 0.76,2.11 0.49,2.17 0.23,2.23 -0.03,2.23 -0.30,2.22 -0.57,2.16 -0.83,2.09 -1.07,1.96 -1.30,1.83 -1.50,1.64 -1.70,1.46 -1.70,1.46 L -1.70,1.46 Z"></path></g><g transform="translate(110 96.10415649414062) rotate(0 66.66668701171875 -15)" stroke="none"><path fill="#000" d="M -0.75,-2.89 Q -0.75,-2.89 3.60,-4.21 7.97,-5.53 14.70,-6.98 21.44,-8.42 29.81,-10.37 38.18,-12.31 47.46,-14.68 56.74,-17.04 65.87,-19.40 75.00,-21.75 85.61,-24.29 96.23,-26.83 104.23,-28.50 112.23,-30.17 118.20,-30.98 124.18,-31.79 126.81,-31.26 129.44,-30.73 129.65,-30.73 129.87,-30.73 130.07,-30.66 130.27,-30.59 130.44,-30.46 130.60,-30.33 130.72,-30.15 130.84,-29.97 130.89,-29.77 130.95,-29.56 130.93,-29.35 130.92,-29.14 130.84,-28.94 130.76,-28.74 130.62,-28.58 130.48,-28.42 130.30,-28.32 130.11,-28.21 129.90,-28.16 129.70,-28.12 129.48,-28.15 129.27,-28.17 129.08,-28.26 128.89,-28.36 128.74,-28.50 128.59,-28.65 128.49,-28.84 128.39,-29.03 128.36,-29.24 128.33,-29.45 128.36,-29.66 128.40,-29.87 128.50,-30.05 128.60,-30.24 128.76,-30.39 128.92,-30.53 129.11,-30.62 129.30,-30.70 129.51,-30.72 129.73,-30.74 129.93,-30.70 130.14,-30.65 130.32,-30.54 130.50,-30.42 130.64,-30.26 130.77,-30.10 130.85,-29.90 130.93,-29.70 130.93,-29.49 130.94,-29.28 130.88,-29.07 130.83,-28.87 130.70,-28.69 130.58,-28.52 130.41,-28.39 130.24,-28.27 130.04,-28.20 129.84,-28.14 129.84,-28.14 129.84,-28.14 127.48,-26.85 125.12,-25.56 119.36,-24.58 113.59,-23.61 105.69,-21.97 97.78,-20.34 87.22,-17.82 76.65,-15.30 67.51,-12.96 58.37,-10.62 49.02,-8.26 39.67,-5.90 31.26,-3.92 22.84,-1.95 16.25,-0.50 9.66,0.93 5.20,1.91 0.75,2.89 0.39,2.94 0.04,2.98 -0.31,2.94 -0.67,2.91 -1.01,2.78 -1.35,2.66 -1.65,2.46 -1.95,2.26 -2.19,1.99 -2.43,1.73 -2.60,1.41 -2.77,1.09 -2.87,0.74 -2.96,0.40 -2.96,0.03 -2.97,-0.32 -2.88,-0.67 -2.80,-1.02 -2.64,-1.34 -2.48,-1.66 -2.24,-1.93 -2.01,-2.21 -1.71,-2.41 -1.42,-2.62 -1.08,-2.75 -0.75,-2.89 -0.75,-2.89 L -0.75,-2.89 Z"></path></g><g transform="translate(141.3333740234375 104.77081298828125) rotate(0 76.66665649414062 -14.666656494140625)" stroke="none"><path fill="#000" d="M -0.24,-2.98 Q -0.24,-2.98 2.02,-3.44 4.30,-3.90 9.36,-4.73 14.41,-5.56 22.85,-7.43 31.28,-9.31 42.38,-11.84 53.47,-14.36 66.05,-17.17 78.64,-19.97 96.14,-23.05 113.64,-26.12 124.90,-27.99 136.15,-29.86 141.10,-29.65 146.05,-29.43 146.26,-29.43 146.48,-29.43 146.68,-29.37 146.88,-29.30 147.05,-29.17 147.22,-29.05 147.34,-28.87 147.46,-28.69 147.52,-28.49 147.57,-28.29 147.56,-28.07 147.55,-27.86 147.47,-27.66 147.40,-27.47 147.26,-27.30 147.12,-27.14 146.94,-27.03 146.76,-26.92 146.55,-26.87 146.35,-26.83 146.13,-26.85 145.92,-26.87 145.73,-26.96 145.54,-27.05 145.38,-27.19 145.23,-27.34 145.13,-27.53 145.03,-27.71 144.99,-27.92 144.96,-28.13 144.99,-28.34 145.02,-28.55 145.12,-28.74 145.22,-28.93 145.37,-29.07 145.53,-29.22 145.72,-29.31 145.91,-29.40 146.12,-29.43 146.33,-29.45 146.54,-29.40 146.75,-29.36 146.93,-29.25 147.11,-29.14 147.25,-28.98 147.39,-28.82 147.47,-28.62 147.55,-28.43 147.56,-28.21 147.57,-28.00 147.52,-27.80 147.46,-27.59 147.34,-27.41 147.23,-27.24 147.06,-27.11 146.89,-26.98 146.69,-26.91 146.49,-26.84 146.49,-26.84 146.49,-26.84 141.88,-25.02 137.28,-23.19 126.06,-21.27 114.85,-19.35 97.51,-16.21 80.17,-13.07 67.60,-10.28 55.04,-7.48 43.92,-4.95 32.81,-2.42 24.18,-0.50 15.55,1.40 10.22,2.27 4.89,3.14 2.57,3.06 0.24,2.98 -0.11,2.96 -0.47,2.95 -0.81,2.85 -1.16,2.75 -1.47,2.57 -1.79,2.39 -2.05,2.14 -2.31,1.89 -2.50,1.59 -2.69,1.28 -2.81,0.94 -2.92,0.60 -2.95,0.24 -2.98,-0.11 -2.93,-0.46 -2.87,-0.82 -2.73,-1.15 -2.59,-1.48 -2.37,-1.77 -2.16,-2.06 -1.88,-2.29 -1.60,-2.52 -1.27,-2.67 -0.95,-2.83 -0.60,-2.90 -0.24,-2.98 -0.24,-2.98 L -0.24,-2.98 Z"></path></g></svg>