<svg version="1.1" xmlns="http://www.w3.org/2000/svg" viewBox="0 0 603.3333740234375 104.13540649414062" width="603.3333740234375" height="104.13540649414062">
  <!-- svg-source:excalidraw -->
  
  <defs>
    <style>
      @font-face {
        font-family: "Virgil";
        src: url("https://excalidraw.com/Virgil.woff2");
      }
      @font-face {
        font-family: "Cascadia";
        src: url("https://excalidraw.com/Cascadia.woff2");
      }
    </style>
  </defs>
  <rect x="0" y="0" width="603.3333740234375" height="104.13540649414062" fill="#fff0"></rect><g stroke-linecap="round" transform="translate(10 10) rotate(0 0.5 0.5)"><path d="M-0.06 -0.03 C0.4 -0.08, 0.7 0.04, 0.91 0.03 M0.05 -0.04 C0.42 -0.05, 0.75 0.03, 0.99 0.01 M1.08 -0.06 C1.09 0.27, 1.05 0.48, 1.09 0.92 M0.97 0.01 C0.95 0.33, 0.98 0.72, 1 0.99 M1.03 1.06 C0.65 1.06, 0.49 0.96, -0.03 0.97 M1 1.02 C0.74 0.96, 0.52 1.04, -0.04 0.98 M-0.04 1.01 C0 0.63, -0.06 0.15, 0.05 -0.03 M-0.04 0.95 C-0.04 0.73, -0.03 0.59, -0.05 -0.02" stroke="transparent" stroke-width="0.5" fill="none"></path></g><g transform="translate(136 38.135406494140625) rotate(0 70.66668701171875 28)" stroke="none"><path fill="#000" d="M 1.32,-0.18 Q 1.32,-0.18 1.61,1.13 1.90,2.46 2.36,4.30 2.81,6.14 3.76,8.79 4.71,11.44 6.09,15.07 7.47,18.71 8.65,23.01 9.84,27.31 10.91,31.42 11.98,35.53 12.83,39.81 13.68,44.09 14.41,46.79 15.14,49.50 15.64,51.22 16.14,52.95 16.55,53.70 16.96,54.44 16.99,54.64 17.02,54.83 17.00,55.03 16.99,55.22 16.93,55.41 16.86,55.60 16.76,55.76 16.65,55.93 16.51,56.06 16.37,56.20 16.20,56.30 16.03,56.40 15.84,56.45 15.65,56.50 15.46,56.51 15.26,56.52 15.07,56.48 14.88,56.44 14.70,56.36 14.52,56.27 14.37,56.15 14.22,56.02 14.10,55.87 13.98,55.71 13.91,55.53 13.83,55.35 14.09,54.47 14.34,53.58 14.30,52.67 14.25,51.76 14.47,48.16 14.69,44.55 15.17,41.04 15.65,37.53 16.29,35.50 16.93,33.47 18.13,32.31 19.34,31.14 20.90,31.04 22.46,30.93 24.56,31.79 26.65,32.64 30.10,35.39 33.55,38.13 36.53,41.03 39.51,43.92 41.87,46.06 44.22,48.19 47.28,49.34 50.33,50.49 52.19,50.42 54.05,50.34 55.61,49.64 57.18,48.94 58.27,47.66 59.37,46.37 60.20,44.60 61.03,42.83 61.57,40.62 62.11,38.41 62.35,36.18 62.58,33.95 62.50,32.14 62.41,30.33 61.92,29.28 61.43,28.23 61.11,29.05 60.79,29.87 60.68,31.20 60.58,32.53 60.89,34.31 61.20,36.10 61.87,37.95 62.55,39.80 63.56,41.68 64.57,43.55 66.03,44.98 67.50,46.41 69.25,47.79 71.00,49.18 72.57,49.88 74.14,50.59 75.86,51.07 77.58,51.56 78.97,51.20 80.36,50.85 81.59,50.06 82.81,49.27 83.78,47.60 84.74,45.93 85.76,43.16 86.78,40.39 87.41,36.81 88.03,33.23 88.31,28.29 88.59,23.35 88.52,19.35 88.44,15.36 88.04,12.40 87.64,9.44 86.76,7.60 85.88,5.76 85.29,5.06 84.70,4.37 84.64,4.18 84.58,3.98 84.56,3.79 84.55,3.59 84.59,3.39 84.62,3.19 84.70,3.01 84.78,2.83 84.90,2.67 85.03,2.51 85.18,2.39 85.34,2.26 85.52,2.18 85.70,2.10 85.90,2.06 86.10,2.03 86.30,2.04 86.50,2.05 86.69,2.11 86.88,2.17 87.05,2.27 87.22,2.37 87.36,2.51 87.50,2.65 87.61,2.82 87.71,2.99 87.45,4.06 87.19,5.13 87.71,6.82 88.23,8.51 89.19,12.06 90.15,15.60 91.51,19.97 92.87,24.34 95.71,30.31 98.55,36.29 101.26,40.51 103.96,44.73 106.71,47.35 109.45,49.97 110.96,50.43 112.47,50.89 113.60,50.07 114.73,49.26 115.92,47.24 117.10,45.21 117.82,41.43 118.55,37.65 118.89,32.78 119.24,27.91 119.00,22.24 118.77,16.57 118.47,12.81 118.18,9.05 117.86,6.92 117.54,4.80 117.40,4.44 117.25,4.08 117.25,3.89 117.24,3.69 117.29,3.50 117.33,3.31 117.42,3.13 117.50,2.96 117.63,2.81 117.76,2.66 117.92,2.55 118.07,2.43 118.25,2.36 118.44,2.28 118.63,2.26 118.82,2.23 119.02,2.25 119.21,2.27 119.40,2.33 119.58,2.40 119.75,2.50 119.91,2.61 120.04,2.76 120.17,2.90 120.27,3.07 120.36,3.24 120.42,3.43 120.47,3.62 120.77,4.71 121.08,5.81 121.62,8.88 122.16,11.95 123.32,15.81 124.48,19.68 127.07,26.68 129.66,33.68 132.05,38.32 134.44,42.96 136.18,45.68 137.92,48.40 139.72,51.10 141.52,53.79 141.58,53.88 141.64,53.97 141.66,54.08 141.69,54.18 141.68,54.29 141.67,54.39 141.62,54.49 141.58,54.59 141.51,54.67 141.44,54.74 141.34,54.79 141.25,54.85 141.14,54.86 141.04,54.88 140.94,54.87 140.83,54.85 140.74,54.80 140.64,54.76 140.57,54.68 140.49,54.60 140.45,54.51 140.40,54.41 140.39,54.31 140.37,54.20 140.40,54.10 140.42,53.99 140.47,53.90 140.52,53.81 140.60,53.74 140.68,53.67 140.78,53.63 140.88,53.59 140.99,53.58 141.09,53.57 141.19,53.60 141.30,53.63 141.39,53.69 141.48,53.74 141.54,53.83 141.61,53.91 141.64,54.01 141.68,54.11 141.68,54.22 141.68,54.32 141.65,54.42 141.62,54.53 141.55,54.61 141.49,54.70 141.40,54.76 141.31,54.82 141.21,54.85 141.11,54.88 141.00,54.87 140.90,54.87 140.80,54.83 140.70,54.79 140.62,54.73 140.54,54.66 140.54,54.66 140.54,54.66 137.96,52.36 135.39,50.06 133.51,47.23 131.64,44.41 129.13,39.61 126.62,34.81 123.99,27.71 121.36,20.61 120.15,16.56 118.95,12.51 118.45,9.59 117.95,6.66 117.60,5.37 117.25,4.08 117.25,3.89 117.24,3.69 117.29,3.50 117.33,3.31 117.42,3.14 117.50,2.96 117.63,2.81 117.76,2.66 117.91,2.55 118.07,2.43 118.25,2.36 118.44,2.28 118.63,2.26 118.82,2.23 119.02,2.25 119.21,2.27 119.40,2.33 119.58,2.40 119.74,2.50 119.91,2.61 120.04,2.76 120.17,2.90 120.27,3.07 120.36,3.24 120.42,3.43 120.47,3.62 120.59,3.97 120.72,4.32 121.03,6.56 121.35,8.81 121.63,12.62 121.92,16.44 122.16,22.28 122.40,28.13 122.06,33.21 121.72,38.29 120.82,42.59 119.92,46.90 118.20,49.46 116.48,52.03 114.38,53.00 112.28,53.96 109.79,53.20 107.31,52.43 104.26,49.47 101.21,46.52 98.39,42.11 95.58,37.70 92.66,31.51 89.74,25.32 88.36,20.89 86.98,16.46 86.01,12.84 85.04,9.22 84.87,6.79 84.70,4.37 84.64,4.18 84.58,3.98 84.56,3.79 84.55,3.59 84.59,3.39 84.62,3.19 84.70,3.01 84.78,2.83 84.90,2.67 85.03,2.51 85.18,2.39 85.34,2.26 85.52,2.18 85.70,2.10 85.90,2.06 86.10,2.03 86.30,2.04 86.50,2.05 86.69,2.11 86.88,2.16 87.05,2.27 87.22,2.37 87.36,2.51 87.50,2.65 87.61,2.82 87.71,2.99 88.30,3.67 88.89,4.35 89.90,6.65 90.91,8.95 91.34,12.12 91.76,15.30 91.84,19.41 91.91,23.53 91.63,28.67 91.35,33.81 90.67,37.69 89.98,41.58 88.81,44.66 87.64,47.75 86.17,49.92 84.70,52.09 82.89,53.13 81.09,54.17 78.96,54.51 76.83,54.85 74.77,54.26 72.71,53.67 70.81,52.76 68.91,51.85 67.00,50.33 65.09,48.80 63.34,47.00 61.60,45.19 60.47,43.07 59.34,40.94 58.60,38.79 57.85,36.64 57.52,34.43 57.20,32.22 57.40,30.45 57.60,28.68 58.27,27.40 58.95,26.11 60.35,25.60 61.76,25.10 63.06,25.84 64.36,26.59 65.09,28.35 65.82,30.11 65.90,32.21 65.99,34.32 65.71,36.78 65.43,39.25 64.76,41.79 64.10,44.32 62.99,46.49 61.89,48.66 60.23,50.33 58.58,52.01 56.38,52.86 54.17,53.71 51.68,53.68 49.19,53.64 45.61,52.18 42.03,50.72 39.60,48.52 37.18,46.32 34.31,43.53 31.45,40.73 28.38,38.21 25.30,35.69 23.76,34.97 22.23,34.25 21.56,34.04 20.88,33.84 20.44,34.24 19.99,34.65 19.46,36.32 18.93,37.99 18.45,41.37 17.97,44.76 17.75,48.35 17.52,51.95 17.24,53.20 16.96,54.44 16.99,54.64 17.02,54.83 17.00,55.03 16.99,55.22 16.93,55.41 16.86,55.60 16.76,55.76 16.65,55.93 16.51,56.06 16.37,56.20 16.20,56.30 16.03,56.40 15.84,56.45 15.65,56.50 15.46,56.51 15.26,56.52 15.07,56.48 14.88,56.44 14.70,56.36 14.52,56.27 14.37,56.15 14.22,56.02 14.10,55.87 13.98,55.71 13.91,55.53 13.83,55.35 13.43,54.61 13.02,53.87 12.51,52.11 12.00,50.34 11.25,47.53 10.50,44.72 9.68,40.53 8.86,36.34 7.80,32.25 6.74,28.16 5.61,23.99 4.48,19.82 3.12,16.15 1.76,12.48 0.78,9.68 -0.18,6.87 -0.66,4.88 -1.14,2.90 -1.23,1.54 -1.32,0.18 -1.32,0.02 -1.32,-0.13 -1.29,-0.28 -1.25,-0.44 -1.18,-0.59 -1.11,-0.73 -1.00,-0.85 -0.90,-0.97 -0.77,-1.07 -0.64,-1.16 -0.49,-1.22 -0.34,-1.28 -0.18,-1.31 -0.02,-1.33 0.13,-1.31 0.29,-1.30 0.44,-1.24 0.59,-1.19 0.72,-1.10 0.86,-1.01 0.97,-0.89 1.08,-0.78 1.15,-0.63 1.23,-0.49 1.27,-0.34 1.32,-0.18 1.32,-0.18 L 1.32,-0.18 Z"></path></g><g transform="translate(217.3333740234375 69.46875) rotate(0 159 -11.666671752929688)" stroke="none"><path fill="#000" d="M -0.11,1.21 Q -0.11,1.21 -4.15,0.97 -8.19,0.73 -11.26,0.39 -14.33,0.06 -18.00,-0.62 -21.67,-1.32 -25.10,-2.64 -28.54,-3.96 -30.46,-6.25 -32.37,-8.53 -32.20,-11.88 -32.02,-15.24 -30.07,-18.88 -28.12,-22.52 -24.30,-26.06 -20.47,-29.59 -14.88,-32.29 -9.29,-34.98 -2.55,-35.95 4.18,-36.91 13.67,-35.57 23.17,-34.22 30.86,-32.10 38.54,-29.97 45.90,-26.74 53.26,-23.51 57.82,-20.34 62.39,-17.18 64.84,-13.90 67.29,-10.62 67.53,-7.15 67.76,-3.69 65.51,-0.39 63.25,2.89 59.10,5.39 54.95,7.88 48.59,9.68 42.23,11.48 37.40,12.25 32.57,13.02 28.98,12.72 25.39,12.43 23.16,10.57 20.93,8.70 21.00,6.18 21.06,3.66 22.95,0.55 24.84,-2.55 28.17,-5.99 31.50,-9.43 34.44,-12.04 37.39,-14.64 41.40,-17.17 45.41,-19.69 57.21,-23.49 69.00,-27.29 79.60,-29.28 90.19,-31.27 103.02,-31.55 115.85,-31.83 126.68,-31.18 137.51,-30.52 147.34,-28.90 157.17,-27.28 166.36,-25.05 175.55,-22.82 184.28,-19.95 193.01,-17.09 201.91,-13.77 210.81,-10.45 219.55,-7.33 228.30,-4.22 239.05,-1.18 249.81,1.85 258.94,3.71 268.08,5.56 278.66,7.31 289.25,9.06 297.96,10.36 306.68,11.67 314.18,12.41 321.68,13.15 331.07,12.51 340.46,11.87 346.72,10.84 352.99,9.81 356.71,8.63 360.43,7.46 363.37,5.53 366.31,3.61 368.55,-0.20 370.78,-4.03 371.00,-9.80 371.22,-15.58 369.69,-19.58 368.17,-23.58 365.01,-26.26 361.86,-28.95 357.00,-31.04 352.15,-33.13 345.75,-34.41 339.36,-35.69 331.88,-36.23 324.41,-36.78 313.06,-36.06 301.72,-35.33 290.98,-33.69 280.24,-32.05 269.57,-29.64 258.91,-27.22 244.45,-22.74 229.99,-18.27 217.31,-14.25 204.63,-10.22 193.30,-6.59 181.97,-2.96 171.40,0.31 160.82,3.58 150.74,6.32 140.66,9.06 130.77,11.01 120.88,12.95 108.39,14.36 95.89,15.76 85.18,16.17 74.47,16.58 62.39,15.98 50.31,15.38 40.56,14.36 30.81,13.33 22.62,12.13 14.44,10.92 7.30,9.64 0.17,8.36 -6.12,7.04 -12.42,5.73 -17.81,4.40 -23.19,3.07 -28.17,1.73 -33.14,0.40 -38.12,-0.92 -43.10,-2.26 -46.75,-3.21 -50.39,-4.16 -53.05,-5.46 -55.72,-6.76 -56.03,-8.64 -56.35,-10.53 -54.38,-12.28 -52.41,-14.04 -48.58,-15.68 -44.74,-17.33 -39.26,-18.97 -33.79,-20.61 -26.80,-21.89 -19.82,-23.17 1.75,-25.42 23.34,-27.67 36.13,-29.01 48.91,-30.36 58.18,-31.31 67.45,-32.27 83.13,-33.06 98.80,-33.85 109.68,-34.18 120.56,-34.52 134.06,-33.69 147.57,-32.85 162.73,-30.72 177.88,-28.58 184.24,-27.27 190.60,-25.95 190.70,-25.92 190.80,-25.88 190.89,-25.82 190.97,-25.76 191.03,-25.67 191.10,-25.59 191.13,-25.49 191.16,-25.38 191.16,-25.28 191.15,-25.17 191.12,-25.07 191.08,-24.97 191.01,-24.89 190.95,-24.81 190.86,-24.75 190.77,-24.69 190.66,-24.67 190.56,-24.64 190.45,-24.65 190.35,-24.66 190.25,-24.70 190.15,-24.74 190.07,-24.81 190.00,-24.89 189.94,-24.98 189.89,-25.07 189.87,-25.18 189.85,-25.28 189.87,-25.38 189.88,-25.49 189.93,-25.59 189.98,-25.68 190.05,-25.76 190.13,-25.83 190.22,-25.88 190.32,-25.92 190.42,-25.94 190.53,-25.95 190.63,-25.93 190.74,-25.91 190.83,-25.86 190.92,-25.81 190.99,-25.73 191.06,-25.65 191.10,-25.55 191.15,-25.45 191.15,-25.35 191.16,-25.24 191.14,-25.14 191.11,-25.04 191.05,-24.95 191.00,-24.86 190.91,-24.79 190.83,-24.72 190.73,-24.69 190.63,-24.65 190.52,-24.65 190.42,-24.65 190.42,-24.65 190.42,-24.65 183.94,-25.09 177.46,-25.53 162.42,-27.54 147.37,-29.55 134.02,-30.35 120.66,-31.15 109.82,-30.81 98.97,-30.47 83.39,-29.69 67.80,-28.90 58.54,-27.95 49.27,-26.99 36.48,-25.65 23.69,-24.30 2.24,-22.03 -19.20,-19.76 -25.99,-18.52 -32.79,-17.28 -38.08,-15.69 -43.38,-14.10 -46.84,-12.65 -50.30,-11.21 -51.86,-10.11 -53.42,-9.01 -51.45,-8.35 -49.47,-7.69 -45.81,-6.75 -42.16,-5.80 -37.17,-4.47 -32.19,-3.14 -27.25,-1.81 -22.31,-0.49 -16.99,0.82 -11.67,2.13 -5.42,3.44 0.82,4.74 7.90,6.01 14.97,7.28 23.08,8.48 31.19,9.68 40.84,10.69 50.49,11.71 62.41,12.30 74.33,12.90 84.91,12.50 95.48,12.11 107.83,10.72 120.17,9.34 129.94,7.43 139.70,5.52 149.72,2.81 159.74,0.09 170.31,-3.15 180.87,-6.41 192.21,-10.02 203.55,-13.63 216.25,-17.63 228.95,-21.63 243.54,-26.12 258.14,-30.61 268.93,-33.04 279.72,-35.47 290.61,-37.13 301.50,-38.78 313.08,-39.49 324.66,-40.20 332.35,-39.62 340.04,-39.03 346.77,-37.65 353.50,-36.26 358.79,-33.89 364.07,-31.51 367.65,-28.21 371.22,-24.90 372.89,-20.21 374.57,-15.52 374.19,-8.97 373.82,-2.42 371.07,2.00 368.31,6.43 364.91,8.60 361.51,10.77 357.53,12.01 353.56,13.25 347.12,14.30 340.69,15.34 331.02,15.98 321.34,16.61 313.76,15.85 306.17,15.08 297.43,13.75 288.69,12.41 278.04,10.65 267.40,8.88 258.14,6.99 248.89,5.10 238.02,2.02 227.16,-1.05 218.41,-4.21 209.65,-7.37 200.83,-10.70 192.01,-14.03 183.40,-16.88 174.79,-19.74 165.72,-21.95 156.66,-24.17 146.99,-25.79 137.32,-27.41 126.61,-28.07 115.91,-28.73 103.33,-28.49 90.75,-28.25 80.34,-26.32 69.92,-24.39 58.45,-20.75 46.98,-17.12 43.14,-14.79 39.30,-12.45 36.41,-9.94 33.53,-7.43 30.34,-4.25 27.15,-1.07 25.43,1.48 23.71,4.03 23.40,5.82 23.09,7.62 24.49,8.67 25.89,9.73 29.04,10.01 32.20,10.29 36.91,9.69 41.63,9.10 47.80,7.68 53.98,6.27 57.69,3.90 61.39,1.54 63.19,-1.16 64.98,-3.88 64.83,-6.45 64.68,-9.01 62.60,-11.80 60.53,-14.59 56.25,-17.59 51.96,-20.59 44.82,-23.75 37.69,-26.91 30.20,-28.99 22.71,-31.07 13.64,-32.41 4.58,-33.75 -1.69,-32.92 -7.96,-32.08 -13.15,-29.64 -18.34,-27.20 -21.84,-24.06 -25.33,-20.92 -27.08,-17.87 -28.82,-14.82 -29.23,-12.36 -29.63,-9.90 -28.40,-8.43 -27.17,-6.95 -24.09,-5.73 -21.02,-4.52 -17.49,-3.77 -13.97,-3.02 -10.94,-2.64 -7.90,-2.26 -3.89,-1.73 0.11,-1.21 0.25,-1.17 0.40,-1.14 0.53,-1.08 0.66,-1.01 0.77,-0.92 0.88,-0.83 0.97,-0.71 1.06,-0.59 1.11,-0.45 1.17,-0.32 1.19,-0.17 1.21,-0.03 1.20,0.11 1.18,0.26 1.13,0.39 1.09,0.53 1.01,0.66 0.93,0.78 0.82,0.88 0.71,0.98 0.58,1.05 0.46,1.12 0.31,1.16 0.17,1.20 0.03,1.20 -0.11,1.21 -0.11,1.21 L -0.11,1.21 Z"></path></g></svg>