<svg version="1.1" xmlns="http://www.w3.org/2000/svg" viewBox="0 0 10020 577.375" width="10020" height="577.375">
  <!-- svg-source:excalidraw -->
  
  <defs>
    <style>
      @font-face {
        font-family: "Virgil";
        src: url("https://excalidraw.com/Virgil.woff2");
      }
      @font-face {
        font-family: "Cascadia";
        src: url("https://excalidraw.com/Cascadia.woff2");
      }
    </style>
  </defs>
  <rect x="0" y="0" width="10020" height="577.375" fill="#fff0"></rect><g stroke-linecap="round" transform="translate(10 10) rotate(0 5000 0.5)"><path d="M-0.52 -0.26 C3022.65 -30.2, 6044.59 -29.2, 9999.32 0.22 M0.38 -0.31 C3948.03 -0.44, 7895.41 0.2, 9999.95 0.08 M10000.08 -0.06 C10000.09 0.27, 10000.05 0.48, 10000.09 0.92 M9999.97 0.01 C9999.95 0.33, 9999.98 0.72, 10000 0.99 M10000.22 1.51 C7095.77 35.76, 4193.15 34.95, -0.25 0.75 M10000.01 1.13 C7827.97 2.74, 5656.23 3.35, -0.33 0.84 M-0.04 1.01 C0 0.63, -0.06 0.15, 0.05 -0.03 M-0.04 0.95 C-0.04 0.73, -0.03 0.59, -0.05 -0.02" stroke="transparent" stroke-width="1" fill="none"></path></g><g transform="translate(620 564.9750366210938) rotate(0 204 -1.60003662109375)" stroke="none"><path fill="#000" d="M -0.25,-1.54 Q -0.25,-1.54 5.26,-2.42 10.79,-3.31 16.86,-3.91 22.94,-4.51 38.88,-5.22 54.83,-5.93 74.02,-6.23 93.22,-6.52 107.36,-6.64 121.49,-6.77 138.08,-6.81 154.67,-6.86 174.17,-6.19 193.66,-5.52 218.73,-4.31 243.81,-3.10 260.23,-1.90 276.65,-0.69 290.03,-0.18 303.42,0.32 312.33,0.54 321.24,0.75 327.33,0.85 333.41,0.94 336.69,0.98 339.96,1.02 342.73,1.04 345.50,1.05 347.83,1.06 350.16,1.07 351.84,0.99 353.51,0.90 355.84,0.93 358.16,0.95 360.99,0.97 363.82,0.99 368.70,1.00 373.58,1.01 377.72,1.02 381.87,1.03 386.62,1.04 391.37,1.05 395.92,1.05 400.47,1.06 403.55,0.93 406.64,0.81 406.89,0.85 407.14,0.89 407.37,1.01 407.60,1.13 407.77,1.32 407.95,1.50 408.06,1.74 408.17,1.97 408.20,2.23 408.22,2.48 408.17,2.73 408.11,2.98 407.98,3.20 407.85,3.42 407.65,3.59 407.46,3.76 407.22,3.85 406.98,3.95 406.72,3.96 406.46,3.98 406.22,3.91 405.97,3.84 405.76,3.69 405.54,3.55 405.39,3.34 405.23,3.14 405.15,2.90 405.07,2.65 405.07,2.39 405.07,2.14 405.15,1.89 405.23,1.65 405.39,1.45 405.54,1.24 405.76,1.10 405.97,0.95 406.22,0.88 406.46,0.81 406.72,0.83 406.98,0.84 407.22,0.94 407.46,1.03 407.65,1.20 407.85,1.37 407.98,1.59 408.11,1.81 408.17,2.06 408.22,2.31 408.20,2.56 408.17,2.82 408.06,3.05 407.95,3.29 407.77,3.47 407.60,3.66 407.37,3.78 407.14,3.90 406.89,3.94 406.64,3.98 406.64,3.98 406.64,3.98 403.55,3.86 400.47,3.73 395.92,3.74 391.37,3.74 386.62,3.75 381.87,3.76 377.72,3.77 373.58,3.77 368.70,3.79 363.81,3.80 360.99,3.82 358.16,3.83 355.83,3.86 353.51,3.88 351.83,3.79 350.15,3.70 347.82,3.69 345.49,3.69 342.71,3.67 339.93,3.65 336.65,3.62 333.37,3.58 327.27,3.49 321.18,3.39 312.25,3.18 303.32,2.96 289.89,2.45 276.45,1.94 260.07,0.75 243.68,-0.44 218.62,-1.64 193.57,-2.84 174.13,-3.50 154.68,-4.16 138.10,-4.10 121.52,-4.04 107.39,-3.90 93.27,-3.76 74.11,-3.44 54.95,-3.12 39.09,-2.38 23.23,-1.64 17.26,-1.00 11.28,-0.36 5.77,0.58 0.25,1.54 0.06,1.54 -0.11,1.55 -0.30,1.52 -0.48,1.48 -0.65,1.40 -0.82,1.32 -0.97,1.20 -1.12,1.08 -1.23,0.93 -1.34,0.78 -1.42,0.61 -1.49,0.44 -1.52,0.25 -1.56,0.06 -1.54,-0.11 -1.53,-0.30 -1.47,-0.48 -1.41,-0.66 -1.31,-0.82 -1.21,-0.98 -1.07,-1.11 -0.94,-1.24 -0.78,-1.33 -0.61,-1.43 -0.43,-1.48 -0.25,-1.54 -0.25,-1.54 L -0.25,-1.54 Z"></path></g></svg>