<svg version="1.1" xmlns="http://www.w3.org/2000/svg" viewBox="0 0 450.66668701171875 166.8021240234375" width="450.66668701171875" height="166.8021240234375">
  <!-- svg-source:excalidraw -->
  
  <defs>
    <style>
      @font-face {
        font-family: "Virgil";
        src: url("https://excalidraw.com/Virgil.woff2");
      }
      @font-face {
        font-family: "Cascadia";
        src: url("https://excalidraw.com/Cascadia.woff2");
      }
    </style>
  </defs>
  <rect x="0" y="0" width="450.66668701171875" height="166.8021240234375" fill="#fff0"></rect><g stroke-linecap="round" transform="translate(10 10) rotate(0 0.5 0.5)"><path d="M-0.06 -0.03 C0.4 -0.08, 0.7 0.04, 0.91 0.03 M0.05 -0.04 C0.42 -0.05, 0.75 0.03, 0.99 0.01 M1.08 -0.06 C1.09 0.27, 1.05 0.48, 1.09 0.92 M0.97 0.01 C0.95 0.33, 0.98 0.72, 1 0.99 M1.03 1.06 C0.65 1.06, 0.49 0.96, -0.03 0.97 M1 1.02 C0.74 0.96, 0.52 1.04, -0.04 0.98 M-0.04 1.01 C0 0.63, -0.06 0.15, 0.05 -0.03 M-0.04 0.95 C-0.04 0.73, -0.03 0.59, -0.05 -0.02" stroke="transparent" stroke-width="0.5" fill="none"></path></g><g transform="translate(75.33334350585938 57.46875) rotate(0 12.666656494140625 20)" stroke="none"><path fill="#000" d="M 1.04,0 Q 1.04,0 1.27,1.72 1.50,3.44 1.51,4.94 1.51,6.44 1.51,8.81 1.52,11.17 1.33,14.90 1.14,18.62 1.25,21.85 1.36,25.08 1.41,27.64 1.46,30.20 1.67,32.57 1.89,34.94 2.16,36.48 2.44,38.02 2.56,38.92 2.69,39.82 2.75,40.00 2.82,40.18 2.82,40.37 2.82,40.56 2.78,40.75 2.74,40.93 2.65,41.10 2.56,41.27 2.44,41.42 2.32,41.56 2.16,41.67 2.01,41.78 1.83,41.85 1.65,41.92 1.47,41.95 1.28,41.97 1.09,41.95 0.90,41.93 0.72,41.87 0.54,41.80 0.38,41.70 0.23,41.59 0.10,41.45 -0.02,41.31 -0.11,41.14 -0.20,40.98 -0.25,40.79 -0.30,40.61 -0.09,38.93 0.11,37.25 0.39,35.29 0.67,33.33 1.17,30.19 1.68,27.04 2.49,24.09 3.30,21.14 4.45,18.65 5.61,16.16 6.44,14.98 7.26,13.79 8.57,13.33 9.87,12.86 11.41,13.38 12.95,13.90 14.99,15.78 17.03,17.66 18.49,19.87 19.95,22.09 21.14,24.38 22.33,26.67 23.06,28.66 23.79,30.66 24.47,32.40 25.15,34.15 25.65,35.93 26.16,37.70 26.58,39.49 26.99,41.28 27.04,41.38 27.08,41.48 27.08,41.59 27.09,41.69 27.06,41.80 27.04,41.90 26.98,41.99 26.92,42.08 26.83,42.14 26.75,42.21 26.65,42.24 26.55,42.28 26.44,42.28 26.34,42.28 26.24,42.25 26.13,42.21 26.05,42.15 25.96,42.09 25.90,42.00 25.84,41.91 25.81,41.81 25.78,41.71 25.79,41.60 25.79,41.50 25.83,41.40 25.87,41.30 25.94,41.22 26.01,41.13 26.10,41.08 26.19,41.02 26.29,41.00 26.39,40.97 26.50,40.98 26.60,40.99 26.70,41.04 26.80,41.08 26.88,41.15 26.95,41.23 27.00,41.32 27.06,41.41 27.07,41.52 27.09,41.62 27.08,41.73 27.06,41.83 27.01,41.93 26.96,42.02 26.89,42.09 26.81,42.17 26.71,42.21 26.62,42.26 26.51,42.27 26.41,42.29 26.30,42.26 26.20,42.24 26.11,42.19 26.02,42.13 25.95,42.05 25.88,41.97 25.88,41.97 25.88,41.97 24.48,40.27 23.09,38.57 22.64,36.92 22.19,35.28 21.52,33.49 20.86,31.70 20.23,29.89 19.60,28.08 18.49,25.92 17.38,23.76 16.14,21.81 14.91,19.87 13.30,18.28 11.70,16.69 10.57,16.26 9.44,15.84 8.95,16.67 8.46,17.50 7.41,19.74 6.36,21.99 5.59,24.77 4.82,27.55 4.32,30.67 3.82,33.79 3.54,35.75 3.25,37.71 3.03,38.95 2.82,40.18 2.82,40.37 2.82,40.56 2.78,40.75 2.74,40.93 2.65,41.10 2.56,41.27 2.44,41.42 2.32,41.56 2.16,41.67 2.01,41.78 1.83,41.85 1.65,41.92 1.47,41.95 1.28,41.97 1.09,41.95 0.90,41.93 0.72,41.87 0.54,41.80 0.38,41.70 0.23,41.59 0.10,41.45 -0.02,41.31 -0.11,41.14 -0.20,40.98 -0.25,40.79 -0.30,40.61 -0.34,40.43 -0.38,40.25 -0.49,39.40 -0.60,38.56 -0.89,36.88 -1.18,35.21 -1.39,32.73 -1.60,30.26 -1.64,27.72 -1.69,25.18 -1.79,21.82 -1.90,18.47 -1.71,14.82 -1.52,11.17 -1.51,8.81 -1.51,6.44 -1.51,4.94 -1.50,3.44 -1.27,1.72 -1.04,0 -1.03,-0.12 -1.01,-0.25 -0.97,-0.36 -0.92,-0.48 -0.85,-0.59 -0.78,-0.69 -0.69,-0.77 -0.59,-0.86 -0.48,-0.92 -0.37,-0.98 -0.24,-1.01 -0.12,-1.04 0.00,-1.04 0.12,-1.04 0.24,-1.01 0.37,-0.98 0.48,-0.92 0.59,-0.86 0.69,-0.77 0.78,-0.69 0.85,-0.59 0.92,-0.48 0.97,-0.36 1.01,-0.25 1.03,-0.12 1.04,0.00 1.04,0.00 L 1.04,0 Z"></path></g><g transform="translate(106.66668701171875 88.13543701171875) rotate(0 14.33331298828125 -9.666656494140625)" stroke="none"><path fill="#000" d="M 0,-1.17 Q 0,-1.17 1.34,-1.30 2.68,-1.43 4.32,-1.62 5.95,-1.81 7.32,-2.26 8.68,-2.70 10.24,-3.28 11.79,-3.85 12.87,-4.58 13.94,-5.30 14.23,-5.85 14.53,-6.39 14.12,-7.32 13.71,-8.24 13.16,-8.90 12.61,-9.56 11.28,-9.93 9.96,-10.30 8.42,-10.14 6.88,-9.97 5.39,-9.22 3.91,-8.47 2.36,-7.25 0.80,-6.04 -0.14,-4.68 -1.10,-3.33 -1.67,-1.91 -2.24,-0.50 -1.01,1.53 0.22,3.56 1.88,4.94 3.54,6.32 7.06,7.04 10.57,7.75 14.17,6.79 17.78,5.83 19.51,5.10 21.25,4.37 21.97,3.73 22.70,3.10 23.16,0.03 23.63,-3.02 23.47,-6.11 23.32,-9.21 22.84,-12.05 22.36,-14.89 21.95,-16.87 21.54,-18.84 20.92,-21.59 20.29,-24.34 19.83,-26.27 19.38,-28.19 19.37,-29.01 19.37,-29.83 19.36,-29.99 19.34,-30.14 19.37,-30.30 19.39,-30.45 19.45,-30.60 19.51,-30.74 19.60,-30.87 19.69,-31.00 19.81,-31.10 19.93,-31.20 20.07,-31.27 20.22,-31.34 20.37,-31.37 20.52,-31.41 20.68,-31.40 20.84,-31.40 20.99,-31.36 21.14,-31.31 21.28,-31.24 21.41,-31.16 21.53,-31.05 21.64,-30.95 21.73,-30.82 21.81,-30.68 21.87,-30.54 21.92,-30.39 22.34,-28.77 22.76,-27.14 23.36,-24.59 23.96,-22.04 24.79,-18.89 25.62,-15.74 26.75,-11.53 27.88,-7.31 28.74,-3.98 29.61,-0.65 30.72,2.20 31.83,5.06 32.60,7.81 33.38,10.57 33.41,10.67 33.44,10.77 33.43,10.88 33.43,10.98 33.39,11.08 33.35,11.18 33.28,11.26 33.21,11.34 33.12,11.40 33.03,11.45 32.93,11.48 32.83,11.50 32.72,11.49 32.62,11.48 32.52,11.44 32.42,11.39 32.34,11.32 32.27,11.25 32.22,11.15 32.17,11.06 32.15,10.96 32.13,10.85 32.15,10.75 32.16,10.64 32.21,10.55 32.26,10.45 32.34,10.38 32.41,10.31 32.51,10.26 32.61,10.22 32.71,10.20 32.82,10.19 32.92,10.21 33.02,10.23 33.12,10.29 33.21,10.34 33.28,10.42 33.35,10.50 33.39,10.60 33.43,10.70 33.43,10.81 33.44,10.91 33.41,11.01 33.38,11.12 33.32,11.21 33.27,11.29 33.18,11.36 33.10,11.42 33.00,11.46 32.90,11.49 32.79,11.49 32.68,11.50 32.58,11.46 32.48,11.43 32.40,11.37 32.31,11.30 32.25,11.21 32.19,11.13 32.19,11.13 32.19,11.13 30.51,8.67 28.82,6.21 27.67,3.17 26.52,0.14 25.67,-3.18 24.83,-6.51 23.74,-10.75 22.65,-14.99 21.86,-18.20 21.08,-21.42 20.59,-23.92 20.09,-26.43 19.73,-28.13 19.37,-29.83 19.36,-29.99 19.34,-30.14 19.37,-30.30 19.39,-30.45 19.45,-30.60 19.51,-30.74 19.60,-30.87 19.69,-31.00 19.81,-31.10 19.93,-31.20 20.07,-31.27 20.22,-31.34 20.37,-31.37 20.52,-31.41 20.68,-31.40 20.84,-31.40 20.99,-31.36 21.14,-31.31 21.28,-31.24 21.41,-31.16 21.53,-31.05 21.64,-30.95 21.73,-30.82 21.81,-30.68 21.87,-30.54 21.92,-30.39 21.90,-29.56 21.87,-28.72 22.26,-26.77 22.66,-24.81 23.13,-22.03 23.61,-19.25 23.98,-17.23 24.36,-15.22 24.82,-12.28 25.28,-9.34 25.54,-6.05 25.79,-2.76 25.42,1.08 25.04,4.93 23.80,6.11 22.56,7.30 20.56,8.15 18.56,9.01 14.28,9.98 10.00,10.95 5.79,9.90 1.58,8.85 -0.50,6.96 -2.58,5.08 -3.86,2.14 -5.13,-0.79 -4.38,-2.96 -3.63,-5.14 -2.37,-6.81 -1.11,-8.48 0.72,-9.88 2.57,-11.28 4.58,-12.18 6.58,-13.07 8.75,-13.16 10.91,-13.25 12.88,-12.42 14.85,-11.60 15.75,-10.34 16.64,-9.09 16.93,-7.31 17.22,-5.53 16.45,-4.23 15.68,-2.92 14.25,-2.01 12.82,-1.09 11.18,-0.50 9.55,0.08 7.92,0.56 6.28,1.05 4.48,1.24 2.68,1.43 1.34,1.30 0,1.17 -0.14,1.15 -0.28,1.13 -0.41,1.08 -0.54,1.03 -0.66,0.95 -0.77,0.87 -0.87,0.77 -0.96,0.66 -1.02,0.54 -1.09,0.41 -1.12,0.27 -1.16,0.14 -1.16,-0.00 -1.16,-0.14 -1.12,-0.27 -1.09,-0.41 -1.02,-0.54 -0.96,-0.66 -0.87,-0.77 -0.77,-0.87 -0.66,-0.95 -0.54,-1.03 -0.41,-1.08 -0.28,-1.13 -0.14,-1.15 0.00,-1.17 0.00,-1.17 L 0,-1.17 Z"></path></g><g transform="translate(140 60.8021240234375) rotate(0 5.66668701171875 16.666656494140625)" stroke="none"><path fill="#000" d="M 1.17,0 Q 1.17,0 1.34,1.53 1.52,3.06 1.93,5.11 2.33,7.16 3.08,9.93 3.82,12.71 5.09,16.35 6.36,19.98 7.63,22.61 8.91,25.24 10.32,28.73 11.73,32.22 11.77,32.32 11.81,32.42 11.81,32.52 11.82,32.63 11.78,32.73 11.75,32.83 11.69,32.92 11.63,33.01 11.55,33.07 11.46,33.13 11.36,33.16 11.26,33.20 11.15,33.19 11.04,33.19 10.94,33.15 10.84,33.12 10.76,33.05 10.68,32.99 10.62,32.90 10.56,32.81 10.54,32.71 10.51,32.60 10.52,32.50 10.53,32.39 10.57,32.29 10.61,32.19 10.68,32.12 10.75,32.04 10.84,31.98 10.93,31.93 11.04,31.91 11.14,31.89 11.25,31.90 11.35,31.92 11.45,31.96 11.54,32.01 11.62,32.08 11.70,32.16 11.74,32.25 11.79,32.35 11.81,32.45 11.82,32.56 11.80,32.66 11.78,32.77 11.73,32.86 11.68,32.95 11.60,33.03 11.52,33.10 11.42,33.14 11.33,33.18 11.22,33.19 11.11,33.20 11.01,33.18 10.91,33.15 10.82,33.09 10.73,33.04 10.66,32.95 10.59,32.87 10.59,32.87 10.59,32.87 8.24,29.78 5.89,26.70 4.55,23.88 3.21,21.07 1.93,17.30 0.65,13.53 -0.07,10.62 -0.80,7.71 -1.16,5.39 -1.52,3.07 -1.34,1.53 -1.17,0 -1.15,-0.14 -1.13,-0.28 -1.08,-0.41 -1.03,-0.54 -0.95,-0.66 -0.87,-0.77 -0.77,-0.87 -0.66,-0.96 -0.54,-1.02 -0.41,-1.09 -0.27,-1.12 -0.14,-1.16 0.00,-1.16 0.14,-1.16 0.27,-1.12 0.41,-1.09 0.54,-1.02 0.66,-0.96 0.77,-0.87 0.87,-0.77 0.95,-0.66 1.03,-0.54 1.08,-0.41 1.13,-0.28 1.15,-0.14 1.17,0.00 1.17,0.00 L 1.17,0 Z"></path></g><g transform="translate(176.66668701171875 74.8021240234375) rotate(0 -6 5.999969482421875)" stroke="none"><path fill="#000" d="M -0.97,0.73 Q -0.97,0.73 -1.64,0.04 -2.31,-0.63 -3.18,-1.16 -4.04,-1.69 -4.95,-2.09 -5.87,-2.49 -6.81,-2.61 -7.75,-2.73 -8.84,-2.28 -9.93,-1.82 -11.24,-0.62 -12.56,0.58 -13.64,2.29 -14.72,4.01 -14.96,6.12 -15.21,8.23 -14.12,9.82 -13.02,11.41 -11.42,12.40 -9.82,13.39 -7.77,13.80 -5.72,14.20 -3.57,14.21 -1.43,14.22 0.08,13.84 1.60,13.46 2.22,11.70 2.85,9.94 2.49,8.40 2.13,6.86 -0.09,4.88 -2.33,2.90 -5.50,0.79 -8.66,-1.30 -8.75,-1.36 -8.84,-1.42 -8.90,-1.51 -8.96,-1.59 -9.00,-1.70 -9.03,-1.80 -9.03,-1.90 -9.03,-2.01 -8.99,-2.11 -8.96,-2.21 -8.89,-2.29 -8.83,-2.38 -8.74,-2.44 -8.65,-2.50 -8.55,-2.52 -8.45,-2.55 -8.34,-2.54 -8.23,-2.54 -8.13,-2.50 -8.04,-2.46 -7.96,-2.39 -7.88,-2.32 -7.82,-2.23 -7.77,-2.14 -7.75,-2.03 -7.72,-1.93 -7.74,-1.82 -7.75,-1.72 -7.79,-1.62 -7.84,-1.52 -7.91,-1.45 -7.99,-1.37 -8.08,-1.32 -8.18,-1.27 -8.28,-1.26 -8.39,-1.24 -8.49,-1.26 -8.59,-1.28 -8.69,-1.33 -8.78,-1.38 -8.85,-1.46 -8.93,-1.53 -8.97,-1.63 -9.01,-1.73 -9.02,-1.83 -9.04,-1.94 -9.01,-2.04 -8.99,-2.15 -8.93,-2.24 -8.88,-2.33 -8.79,-2.40 -8.71,-2.46 -8.61,-2.50 -8.52,-2.54 -8.41,-2.54 -8.30,-2.55 -8.20,-2.52 -8.10,-2.49 -8.10,-2.49 -8.10,-2.49 -3.94,-1.13 0.22,0.22 2.86,3.06 5.51,5.90 5.82,8.50 6.13,11.09 4.71,13.64 3.30,16.18 0.93,16.93 -1.44,17.67 -3.95,17.61 -6.47,17.55 -9.06,16.90 -11.65,16.24 -13.74,14.73 -15.84,13.23 -17.15,10.74 -18.45,8.25 -18.02,5.28 -17.59,2.31 -16.17,0.19 -14.76,-1.92 -12.91,-3.43 -11.06,-4.94 -9.22,-5.45 -7.37,-5.97 -5.93,-5.67 -4.49,-5.38 -3.39,-4.79 -2.29,-4.20 -1.14,-3.31 0.01,-2.43 0.49,-1.58 0.97,-0.73 1.04,-0.60 1.12,-0.47 1.16,-0.33 1.20,-0.19 1.21,-0.04 1.21,0.09 1.18,0.24 1.15,0.38 1.09,0.52 1.03,0.65 0.93,0.76 0.84,0.88 0.72,0.96 0.60,1.05 0.47,1.11 0.33,1.17 0.19,1.19 0.04,1.21 -0.09,1.20 -0.24,1.19 -0.38,1.14 -0.52,1.10 -0.64,1.02 -0.77,0.94 -0.87,0.83 -0.97,0.73 -0.97,0.73 L -0.97,0.73 Z"></path></g><g transform="translate(43.333343505859375 130.8021240234375) rotate(0 74.66667175292969 -12.66668701171875)" stroke="none"><path fill="#000" d="M -0.41,-1.07 Q -0.41,-1.07 2.02,-2.16 4.46,-3.25 9.42,-4.65 14.37,-6.05 21.65,-7.79 28.93,-9.53 40.85,-12.02 52.76,-14.51 66.45,-17.14 80.13,-19.78 91.15,-21.47 102.17,-23.16 110.90,-24.08 119.63,-24.99 126.22,-25.58 132.80,-26.16 137.35,-26.39 141.89,-26.63 144.75,-26.29 147.62,-25.95 147.72,-25.95 147.83,-25.94 147.93,-25.90 148.02,-25.86 148.10,-25.78 148.18,-25.71 148.23,-25.62 148.29,-25.53 148.31,-25.43 148.33,-25.32 148.31,-25.22 148.30,-25.11 148.25,-25.02 148.21,-24.92 148.13,-24.84 148.06,-24.77 147.96,-24.72 147.87,-24.67 147.76,-24.66 147.66,-24.64 147.55,-24.66 147.45,-24.68 147.36,-24.74 147.26,-24.79 147.19,-24.87 147.12,-24.94 147.08,-25.04 147.04,-25.14 147.03,-25.25 147.02,-25.35 147.04,-25.45 147.07,-25.56 147.12,-25.65 147.18,-25.74 147.26,-25.80 147.35,-25.87 147.45,-25.91 147.55,-25.95 147.65,-25.95 147.76,-25.95 147.86,-25.92 147.96,-25.89 148.05,-25.83 148.13,-25.77 148.20,-25.68 148.26,-25.59 148.29,-25.49 148.32,-25.39 148.32,-25.29 148.32,-25.18 148.28,-25.08 148.24,-24.98 148.18,-24.90 148.11,-24.81 148.02,-24.76 147.93,-24.70 147.83,-24.67 147.73,-24.65 147.73,-24.65 147.73,-24.65 144.90,-23.98 142.07,-23.31 137.58,-23.05 133.10,-22.80 126.54,-22.23 119.98,-21.66 111.32,-20.77 102.66,-19.88 91.70,-18.24 80.74,-16.59 67.06,-14.06 53.38,-11.54 41.49,-9.11 29.61,-6.68 22.38,-4.96 15.16,-3.23 10.32,-1.90 5.49,-0.58 2.95,0.24 0.41,1.07 0.27,1.10 0.14,1.13 0.00,1.13 -0.13,1.13 -0.26,1.10 -0.40,1.07 -0.52,1.01 -0.64,0.94 -0.75,0.85 -0.85,0.76 -0.93,0.65 -1.01,0.53 -1.06,0.40 -1.11,0.27 -1.12,0.14 -1.14,0.00 -1.13,-0.13 -1.11,-0.26 -1.06,-0.39 -1.01,-0.52 -0.93,-0.64 -0.86,-0.75 -0.75,-0.84 -0.65,-0.94 -0.53,-1.00 -0.41,-1.07 -0.41,-1.07 L -0.41,-1.07 Z"></path></g><g transform="translate(68 146.8021240234375) rotate(0 75.33334350585938 -15.333343505859375)" stroke="none"><path fill="#000" d="M -0.24,-1.34 Q -0.24,-1.34 1.84,-1.84 3.92,-2.35 6.72,-2.91 9.52,-3.47 16.26,-4.87 23.01,-6.27 33.33,-8.59 43.66,-10.91 60.90,-14.77 78.14,-18.64 94.50,-21.81 110.86,-24.98 122.22,-27.07 133.58,-29.16 138.50,-29.57 143.41,-29.98 143.52,-29.98 143.62,-29.98 143.72,-29.95 143.83,-29.92 143.91,-29.86 144.00,-29.79 144.06,-29.71 144.12,-29.62 144.15,-29.52 144.18,-29.42 144.18,-29.31 144.17,-29.21 144.14,-29.11 144.10,-29.01 144.03,-28.92 143.97,-28.84 143.88,-28.78 143.79,-28.73 143.68,-28.70 143.58,-28.68 143.47,-28.69 143.37,-28.70 143.27,-28.74 143.17,-28.78 143.10,-28.85 143.02,-28.92 142.96,-29.02 142.91,-29.11 142.89,-29.21 142.87,-29.32 142.89,-29.42 142.90,-29.53 142.95,-29.62 143.00,-29.72 143.07,-29.79 143.15,-29.87 143.25,-29.91 143.34,-29.96 143.45,-29.98 143.55,-29.99 143.66,-29.97 143.76,-29.95 143.85,-29.90 143.94,-29.84 144.02,-29.76 144.09,-29.68 144.13,-29.59 144.17,-29.49 144.18,-29.38 144.18,-29.28 144.16,-29.17 144.13,-29.07 144.07,-28.98 144.02,-28.89 143.93,-28.83 143.85,-28.76 143.75,-28.72 143.65,-28.69 143.65,-28.69 143.65,-28.69 138.92,-27.30 134.18,-25.91 122.85,-23.77 111.51,-21.63 95.20,-18.45 78.89,-15.28 61.65,-11.43 44.41,-7.58 34.05,-5.27 23.68,-2.96 16.92,-1.60 10.15,-0.24 7.33,0.28 4.50,0.82 2.37,1.08 0.24,1.34 0.07,1.35 -0.08,1.36 -0.24,1.33 -0.40,1.30 -0.55,1.23 -0.70,1.16 -0.83,1.06 -0.96,0.96 -1.06,0.83 -1.16,0.70 -1.23,0.55 -1.30,0.40 -1.33,0.24 -1.36,0.08 -1.35,-0.08 -1.34,-0.24 -1.29,-0.40 -1.24,-0.56 -1.15,-0.70 -1.07,-0.84 -0.95,-0.96 -0.84,-1.07 -0.69,-1.16 -0.55,-1.24 -0.40,-1.29 -0.24,-1.34 -0.24,-1.34 L -0.24,-1.34 Z"></path></g><g transform="translate(298 64.13543701171875) rotate(0 71.33334350585938 46.333343505859375)" stroke="none"><path fill="#000" d="M 1.43,-0.03 Q 1.43,-0.03 1.78,7.43 2.13,14.90 2.41,19.39 2.69,23.88 3.59,30.13 4.50,36.39 5.64,41.89 6.79,47.40 8.22,52.37 9.65,57.35 11.39,61.91 13.13,66.48 14.84,70.73 16.54,74.99 18.02,78.30 19.50,81.62 21.05,84.49 22.60,87.37 23.13,88.31 23.65,89.24 25.02,88.22 26.39,87.19 27.82,85.10 29.25,83.01 31.01,78.39 32.77,73.77 34.52,69.05 36.27,64.33 38.35,58.31 40.43,52.29 42.49,47.19 44.54,42.09 46.37,37.63 48.19,33.18 49.75,29.73 51.31,26.27 52.75,23.43 54.19,20.60 55.64,18.35 57.08,16.09 59.67,14.35 62.25,12.60 64.14,12.06 66.03,11.52 68.34,12.14 70.64,12.77 72.51,14.57 74.39,16.37 76.10,18.89 77.81,21.42 80.47,26.35 83.12,31.28 85.41,36.27 87.69,41.25 90.39,47.39 93.08,53.52 95.54,58.17 97.99,62.82 100.30,65.83 102.60,68.84 104.73,70.37 106.86,71.89 108.52,72.11 110.18,72.33 112.13,71.04 114.09,69.75 116.43,67.05 118.77,64.35 121.86,58.87 124.95,53.39 127.64,48.16 130.32,42.93 133.23,37.26 136.13,31.59 138.66,27.59 141.18,23.60 141.24,23.51 141.30,23.42 141.39,23.36 141.47,23.29 141.57,23.26 141.67,23.23 141.78,23.23 141.89,23.23 141.99,23.26 142.09,23.30 142.17,23.36 142.25,23.43 142.31,23.52 142.37,23.60 142.40,23.71 142.43,23.81 142.42,23.92 142.41,24.02 142.37,24.12 142.33,24.22 142.26,24.30 142.20,24.38 142.10,24.43 142.01,24.49 141.91,24.51 141.80,24.53 141.70,24.52 141.59,24.51 141.50,24.46 141.40,24.42 141.32,24.34 141.25,24.27 141.20,24.17 141.15,24.08 141.13,23.98 141.12,23.87 141.14,23.77 141.15,23.66 141.20,23.57 141.25,23.47 141.33,23.40 141.41,23.33 141.51,23.29 141.60,23.24 141.71,23.23 141.81,23.22 141.92,23.24 142.02,23.27 142.11,23.32 142.20,23.38 142.27,23.46 142.34,23.54 142.38,23.64 142.42,23.74 142.42,23.85 142.43,23.95 142.40,24.05 142.37,24.16 142.37,24.16 142.37,24.16 140.86,28.69 139.36,33.22 136.52,38.93 133.68,44.65 130.96,49.95 128.24,55.26 124.92,61.05 121.61,66.85 118.80,69.92 116.00,73.00 113.06,74.48 110.11,75.96 107.46,75.48 104.82,75.01 102.22,73.08 99.63,71.16 97.15,67.87 94.66,64.58 92.15,59.81 89.64,55.03 86.97,48.92 84.30,42.80 82.07,37.92 79.85,33.03 77.30,28.25 74.75,23.48 73.24,21.20 71.73,18.93 70.53,17.55 69.33,16.18 68.01,15.64 66.69,15.11 65.47,15.45 64.25,15.78 62.22,17.01 60.19,18.24 58.89,20.29 57.59,22.33 56.19,25.09 54.79,27.84 53.26,31.24 51.74,34.63 49.91,39.08 48.09,43.52 46.07,48.53 44.05,53.55 41.96,59.60 39.86,65.66 38.10,70.41 36.34,75.16 34.35,80.20 32.36,85.24 30.37,87.83 28.38,90.42 26.23,91.39 24.07,92.36 21.71,90.79 19.35,89.21 17.71,86.18 16.08,83.14 14.57,79.76 13.07,76.38 11.35,72.09 9.64,67.80 7.85,63.09 6.07,58.38 4.61,53.26 3.16,48.14 2.02,42.52 0.88,36.89 0.02,30.49 -0.83,24.09 -1.10,19.54 -1.37,14.99 -1.40,7.51 -1.43,0.03 -1.41,-0.13 -1.39,-0.30 -1.34,-0.46 -1.28,-0.63 -1.19,-0.77 -1.09,-0.92 -0.96,-1.03 -0.84,-1.15 -0.69,-1.24 -0.54,-1.32 -0.37,-1.37 -0.20,-1.41 -0.03,-1.42 0.13,-1.42 0.30,-1.38 0.47,-1.35 0.62,-1.27 0.78,-1.19 0.91,-1.08 1.04,-0.97 1.14,-0.83 1.25,-0.69 1.31,-0.53 1.38,-0.37 1.40,-0.20 1.43,-0.03 1.43,-0.03 L 1.43,-0.03 Z"></path></g></svg>