<svg version="1.1" xmlns="http://www.w3.org/2000/svg" viewBox="0 0 580.4000244140625 81.6624755859375" width="580.4000244140625" height="81.6624755859375">
  <!-- svg-source:excalidraw -->
  
  <defs>
    <style>
      @font-face {
        font-family: "Virgil";
        src: url("https://excalidraw.com/Virgil.woff2");
      }
      @font-face {
        font-family: "Cascadia";
        src: url("https://excalidraw.com/Cascadia.woff2");
      }
    </style>
  </defs>
  <rect x="0" y="0" width="580.4000244140625" height="81.6624755859375" fill="#fff0"></rect><g stroke-linecap="round" transform="translate(10 10) rotate(0 0.5 0.5)"><path d="M-0.06 -0.03 C0.4 -0.08, 0.7 0.04, 0.91 0.03 M0.05 -0.04 C0.42 -0.05, 0.75 0.03, 0.99 0.01 M1.08 -0.06 C1.09 0.27, 1.05 0.48, 1.09 0.92 M0.97 0.01 C0.95 0.33, 0.98 0.72, 1 0.99 M1.03 1.06 C0.65 1.06, 0.49 0.96, -0.03 0.97 M1 1.02 C0.74 0.96, 0.52 1.04, -0.04 0.98 M-0.04 1.01 C0 0.63, -0.06 0.15, 0.05 -0.03 M-0.04 0.95 C-0.04 0.73, -0.03 0.59, -0.05 -0.02" stroke="transparent" stroke-width="1" fill="none"></path></g><g transform="translate(81.60003662109375 38.0625) rotate(0 0 12.800003051757812)" stroke="none"><path fill="#000" d="M 2.15,0 Q 2.15,0 2.04,3.44 1.93,6.89 1.84,10.20 1.76,13.51 1.70,16.29 1.64,19.08 1.72,20.49 1.80,21.91 1.85,23.57 1.89,25.23 1.84,25.53 1.79,25.83 1.65,26.10 1.50,26.38 1.28,26.59 1.06,26.80 0.78,26.93 0.50,27.05 0.20,27.09 -0.10,27.12 -0.40,27.05 -0.70,26.99 -0.96,26.83 -1.22,26.67 -1.42,26.44 -1.62,26.21 -1.73,25.92 -1.85,25.64 -1.86,25.33 -1.88,25.02 -1.80,24.73 -1.71,24.43 -1.54,24.18 -1.37,23.93 -1.13,23.74 -0.88,23.55 -0.59,23.46 -0.30,23.36 0.00,23.36 0.30,23.36 0.59,23.46 0.88,23.55 1.13,23.74 1.37,23.93 1.54,24.18 1.71,24.43 1.80,24.73 1.88,25.02 1.86,25.33 1.85,25.64 1.73,25.92 1.62,26.21 1.42,26.44 1.22,26.67 0.96,26.83 0.70,26.99 0.40,27.05 0.10,27.12 -0.20,27.09 -0.50,27.05 -0.78,26.93 -1.06,26.80 -1.28,26.59 -1.50,26.37 -1.65,26.10 -1.79,25.83 -1.84,25.53 -1.89,25.23 -1.89,25.23 -1.89,25.23 -1.85,23.57 -1.80,21.91 -1.72,20.49 -1.64,19.08 -1.70,16.29 -1.76,13.51 -1.84,10.20 -1.93,6.89 -2.04,3.44 -2.15,0 -2.12,-0.25 -2.08,-0.51 -1.99,-0.75 -1.90,-1.00 -1.75,-1.21 -1.61,-1.42 -1.41,-1.59 -1.22,-1.77 -0.99,-1.89 -0.76,-2.01 -0.51,-2.07 -0.25,-2.13 0.00,-2.13 0.25,-2.13 0.51,-2.07 0.76,-2.01 0.99,-1.89 1.22,-1.77 1.41,-1.59 1.61,-1.42 1.75,-1.21 1.90,-1.00 1.99,-0.75 2.08,-0.51 2.12,-0.25 2.15,0.00 2.15,0.00 L 2.15,0 Z"></path></g><g transform="translate(173.60003662109375 38.86248779296875) rotate(0 -0.800018310546875 8.800003051757812)" stroke="none"><path fill="#000" d="M 2.27,0 Q 2.27,0 2.15,2.76 2.02,5.52 1.99,7.38 1.96,9.24 2.00,10.73 2.04,12.21 1.34,14.98 0.64,17.74 0.47,18.05 0.30,18.35 0.04,18.59 -0.20,18.83 -0.52,18.97 -0.84,19.11 -1.19,19.14 -1.54,19.17 -1.88,19.09 -2.22,19.01 -2.52,18.83 -2.82,18.64 -3.04,18.37 -3.26,18.10 -3.38,17.77 -3.51,17.45 -3.52,17.10 -3.54,16.75 -3.44,16.41 -3.34,16.07 -3.14,15.79 -2.94,15.50 -2.65,15.29 -2.37,15.09 -2.04,14.98 -1.70,14.87 -1.35,14.88 -1.00,14.89 -0.67,15.00 -0.34,15.12 -0.07,15.34 0.20,15.55 0.39,15.85 0.58,16.14 0.67,16.48 0.76,16.82 0.73,17.17 0.71,17.51 0.57,17.84 0.44,18.16 0.21,18.42 -0.02,18.69 -0.32,18.86 -0.62,19.04 -0.96,19.11 -1.31,19.18 -1.65,19.13 -2.00,19.09 -2.32,18.94 -2.63,18.79 -2.88,18.54 -3.13,18.30 -3.29,17.98 -3.45,17.67 -3.50,17.33 -3.55,16.98 -3.49,16.64 -3.43,16.29 -3.43,16.29 -3.43,16.29 -2.74,14.24 -2.04,12.20 -2.00,10.72 -1.96,9.24 -1.99,7.38 -2.02,5.52 -2.15,2.76 -2.27,0 -2.24,-0.27 -2.21,-0.54 -2.11,-0.80 -2.01,-1.05 -1.86,-1.28 -1.70,-1.51 -1.49,-1.69 -1.29,-1.87 -1.05,-2.00 -0.80,-2.13 -0.54,-2.19 -0.27,-2.26 0.00,-2.26 0.27,-2.26 0.54,-2.19 0.80,-2.13 1.05,-2.00 1.29,-1.87 1.50,-1.69 1.70,-1.51 1.86,-1.28 2.01,-1.05 2.11,-0.80 2.21,-0.54 2.24,-0.27 2.27,0.00 2.27,0.00 L 2.27,0 Z"></path></g><g transform="translate(164.79998779296875 51.662506103515625) rotate(0 14.4000244140625 -2)" stroke="none"><path fill="#000" d="M -0.70,-1.89 Q -0.70,-1.89 1.15,-2.53 3.01,-3.17 6.94,-3.89 10.88,-4.60 13.94,-4.87 17.01,-5.15 19.47,-5.24 21.93,-5.34 25.04,-5.51 28.15,-5.67 28.42,-5.63 28.69,-5.60 28.94,-5.48 29.18,-5.35 29.38,-5.16 29.57,-4.97 29.69,-4.72 29.81,-4.47 29.85,-4.20 29.88,-3.93 29.83,-3.66 29.78,-3.39 29.65,-3.16 29.51,-2.92 29.31,-2.73 29.10,-2.55 28.85,-2.44 28.60,-2.34 28.32,-2.31 28.05,-2.29 27.79,-2.36 27.52,-2.43 27.29,-2.57 27.06,-2.72 26.89,-2.93 26.72,-3.15 26.62,-3.41 26.53,-3.66 26.52,-3.94 26.51,-4.21 26.60,-4.47 26.68,-4.73 26.84,-4.96 27.00,-5.18 27.22,-5.34 27.44,-5.50 27.70,-5.58 27.97,-5.66 28.24,-5.65 28.51,-5.64 28.77,-5.55 29.03,-5.45 29.24,-5.28 29.45,-5.11 29.60,-4.88 29.75,-4.65 29.81,-4.38 29.88,-4.11 29.86,-3.84 29.83,-3.57 29.73,-3.32 29.62,-3.07 29.43,-2.86 29.25,-2.66 29.01,-2.52 28.77,-2.39 28.50,-2.34 28.23,-2.29 28.24,-2.29 28.24,-2.29 25.17,-2.27 22.11,-2.25 19.73,-2.07 17.36,-1.90 14.46,-1.53 11.56,-1.16 7.95,-0.37 4.34,0.41 2.52,1.15 0.70,1.89 0.47,1.94 0.23,2.00 -0.00,2.00 -0.25,2.00 -0.48,1.94 -0.72,1.88 -0.93,1.77 -1.15,1.65 -1.33,1.49 -1.51,1.33 -1.65,1.13 -1.79,0.93 -1.87,0.70 -1.96,0.47 -1.99,0.23 -2.02,-0.00 -1.99,-0.24 -1.96,-0.49 -1.87,-0.71 -1.78,-0.94 -1.64,-1.14 -1.50,-1.34 -1.32,-1.50 -1.14,-1.66 -0.92,-1.78 -0.70,-1.89 -0.70,-1.89 L -0.70,-1.89 Z"></path></g><g transform="translate(216.79998779296875 34.0625) rotate(0 0.800018310546875 12.399993896484375)" stroke="none"><path fill="#000" d="M 2.12,0 Q 2.12,0 2.09,1.83 2.05,3.67 2.30,4.98 2.55,6.29 2.58,8.41 2.62,10.53 2.65,12.33 2.69,14.13 2.72,15.81 2.76,17.50 3.12,20.60 3.48,23.70 3.51,24.04 3.54,24.38 3.47,24.71 3.39,25.04 3.21,25.33 3.03,25.62 2.77,25.84 2.51,26.05 2.19,26.17 1.87,26.29 1.53,26.31 1.19,26.32 0.87,26.23 0.54,26.13 0.26,25.94 -0.01,25.74 -0.21,25.47 -0.41,25.19 -0.51,24.87 -0.62,24.55 -0.61,24.21 -0.61,23.87 -0.50,23.55 -0.38,23.23 -0.17,22.96 0.03,22.69 0.31,22.50 0.59,22.32 0.92,22.23 1.25,22.15 1.59,22.17 1.93,22.19 2.24,22.32 2.56,22.45 2.81,22.68 3.07,22.90 3.24,23.19 3.41,23.49 3.48,23.82 3.55,24.15 3.51,24.49 3.46,24.83 3.32,25.13 3.17,25.44 2.93,25.68 2.70,25.93 2.39,26.08 2.09,26.24 1.75,26.29 1.42,26.34 1.08,26.28 0.75,26.22 0.45,26.05 0.15,25.89 -0.07,25.64 -0.30,25.39 -0.44,25.08 -0.57,24.77 -0.57,24.77 -0.57,24.77 -0.89,21.16 -1.21,17.54 -1.21,15.88 -1.22,14.22 -1.26,12.47 -1.31,10.73 -1.47,8.84 -1.63,6.95 -1.84,5.31 -2.05,3.68 -2.09,1.84 -2.12,0 -2.09,-0.25 -2.06,-0.50 -1.97,-0.74 -1.88,-0.98 -1.73,-1.20 -1.59,-1.41 -1.40,-1.58 -1.20,-1.75 -0.98,-1.87 -0.75,-1.99 -0.50,-2.05 -0.25,-2.11 0.00,-2.11 0.25,-2.11 0.50,-2.05 0.75,-1.99 0.98,-1.87 1.20,-1.75 1.40,-1.58 1.59,-1.41 1.73,-1.20 1.88,-0.98 1.97,-0.74 2.06,-0.50 2.09,-0.25 2.12,0.00 2.12,0.00 L 2.12,0 Z"></path></g><g transform="translate(277.60003662109375 52.462493896484375) rotate(0 8.399993896484375 -1.1999969482421875)" stroke="none"><path fill="#000" d="M -0.68,-2.05 Q -0.68,-2.05 0.68,-2.53 2.06,-3.02 4.41,-3.36 6.77,-3.71 8.47,-3.92 10.17,-4.13 12.86,-4.32 15.55,-4.52 15.90,-4.47 16.25,-4.43 16.56,-4.28 16.88,-4.13 17.13,-3.88 17.38,-3.64 17.54,-3.33 17.70,-3.01 17.76,-2.67 17.81,-2.32 17.75,-1.97 17.69,-1.63 17.52,-1.32 17.35,-1.01 17.09,-0.77 16.83,-0.53 16.51,-0.39 16.19,-0.25 15.84,-0.21 15.49,-0.18 15.15,-0.26 14.81,-0.34 14.51,-0.53 14.21,-0.71 13.99,-0.98 13.76,-1.25 13.64,-1.58 13.51,-1.91 13.50,-2.26 13.48,-2.61 13.58,-2.95 13.68,-3.28 13.88,-3.57 14.08,-3.86 14.36,-4.07 14.65,-4.28 14.98,-4.39 15.31,-4.49 15.67,-4.49 16.02,-4.48 16.35,-4.37 16.68,-4.25 16.96,-4.04 17.23,-3.82 17.43,-3.53 17.62,-3.23 17.71,-2.89 17.80,-2.55 17.78,-2.20 17.75,-1.85 17.62,-1.53 17.48,-1.20 17.25,-0.94 17.02,-0.67 16.72,-0.50 16.42,-0.32 16.07,-0.25 15.73,-0.18 15.73,-0.18 15.73,-0.18 13.17,-0.15 10.62,-0.12 9.07,0.02 7.52,0.16 5.49,0.67 3.45,1.18 2.07,1.61 0.68,2.05 0.42,2.10 0.17,2.15 -0.08,2.14 -0.34,2.13 -0.59,2.06 -0.84,1.98 -1.07,1.85 -1.29,1.72 -1.48,1.54 -1.67,1.36 -1.81,1.14 -1.95,0.92 -2.03,0.67 -2.11,0.43 -2.13,0.17 -2.15,-0.08 -2.11,-0.34 -2.07,-0.60 -1.97,-0.84 -1.87,-1.08 -1.71,-1.28 -1.55,-1.49 -1.35,-1.66 -1.15,-1.82 -0.91,-1.93 -0.68,-2.05 -0.68,-2.05 L -0.68,-2.05 Z"></path></g><g transform="translate(280.79998779296875 55.662506103515625) rotate(0 11.600006103515625 0)" stroke="none"><path fill="#000" d="M 0,-2.03 Q 0,-2.03 3.22,-1.93 6.44,-1.84 9.87,-1.76 13.31,-1.69 15.69,-1.64 18.07,-1.59 20.17,-1.68 22.27,-1.78 22.55,-1.73 22.84,-1.68 23.09,-1.55 23.35,-1.41 23.55,-1.20 23.75,-0.99 23.87,-0.73 23.99,-0.47 24.02,-0.19 24.05,0.09 23.99,0.37 23.93,0.65 23.78,0.90 23.63,1.15 23.41,1.34 23.19,1.52 22.92,1.63 22.65,1.74 22.37,1.75 22.08,1.77 21.80,1.69 21.52,1.61 21.28,1.45 21.04,1.29 20.87,1.06 20.70,0.83 20.60,0.56 20.51,0.28 20.51,-0.00 20.51,-0.28 20.60,-0.56 20.70,-0.83 20.87,-1.06 21.04,-1.29 21.28,-1.45 21.52,-1.61 21.80,-1.69 22.08,-1.77 22.37,-1.75 22.65,-1.74 22.92,-1.63 23.19,-1.52 23.41,-1.34 23.63,-1.15 23.78,-0.90 23.93,-0.65 23.99,-0.37 24.05,-0.09 24.02,0.19 23.99,0.47 23.87,0.73 23.74,1.00 23.55,1.20 23.35,1.41 23.09,1.55 22.84,1.68 22.55,1.73 22.27,1.78 22.27,1.78 22.27,1.78 20.17,1.68 18.07,1.59 15.69,1.64 13.31,1.69 9.87,1.76 6.44,1.84 3.22,1.93 0,2.03 -0.24,2.00 -0.48,1.97 -0.71,1.88 -0.94,1.80 -1.14,1.66 -1.34,1.52 -1.51,1.33 -1.67,1.15 -1.78,0.93 -1.90,0.72 -1.95,0.48 -2.01,0.24 -2.01,-0.00 -2.01,-0.24 -1.95,-0.48 -1.90,-0.72 -1.78,-0.93 -1.67,-1.15 -1.51,-1.33 -1.34,-1.52 -1.14,-1.66 -0.94,-1.80 -0.71,-1.88 -0.48,-1.97 -0.24,-2.00 0.00,-2.03 0.00,-2.03 L 0,-2.03 Z"></path></g><g transform="translate(318.4000244140625 35.662506103515625) rotate(0 46 2.79998779296875)" stroke="none"><path fill="#000" d="M -1.82,-0.91 Q -1.82,-0.91 -1.41,-1.88 -1.00,-2.85 0.05,-4.02 1.12,-5.20 2.91,-6.17 4.69,-7.14 6.41,-7.77 8.13,-8.40 11.55,-8.81 14.98,-9.23 18.50,-9.35 22.02,-9.48 24.89,-9.50 27.75,-9.53 29.50,-9.59 31.25,-9.65 32.56,-8.97 33.86,-8.29 34.49,-6.27 35.12,-4.24 34.76,-2.09 34.41,0.06 34.09,2.13 33.77,4.20 32.94,5.70 32.12,7.20 31.53,8.48 30.94,9.75 30.54,10.87 30.14,11.98 34.41,11.23 38.69,10.49 45.51,10.57 52.33,10.65 56.78,10.51 61.23,10.37 68.02,10.35 74.80,10.33 79.51,10.35 84.22,10.38 87.40,10.25 90.58,10.12 90.88,10.16 91.18,10.21 91.45,10.35 91.73,10.49 91.94,10.71 92.15,10.93 92.28,11.21 92.41,11.48 92.45,11.79 92.48,12.09 92.42,12.39 92.36,12.69 92.20,12.96 92.05,13.22 91.82,13.42 91.58,13.62 91.30,13.74 91.02,13.85 90.71,13.87 90.41,13.89 90.11,13.81 89.82,13.73 89.56,13.56 89.31,13.39 89.12,13.15 88.93,12.91 88.83,12.62 88.73,12.33 88.73,12.02 88.72,11.72 88.82,11.43 88.91,11.14 89.10,10.89 89.28,10.65 89.53,10.47 89.78,10.30 90.08,10.21 90.37,10.13 90.68,10.14 90.98,10.16 91.27,10.27 91.56,10.38 91.79,10.57 92.03,10.77 92.19,11.03 92.35,11.29 92.41,11.59 92.48,11.89 92.45,12.19 92.42,12.50 92.30,12.78 92.17,13.06 91.96,13.28 91.75,13.50 91.48,13.65 91.21,13.80 90.91,13.85 90.61,13.90 90.61,13.90 90.61,13.90 87.43,13.83 84.26,13.76 79.56,13.87 74.86,13.99 68.17,14.20 61.47,14.40 56.93,14.80 52.39,15.19 45.64,15.44 38.89,15.68 33.54,16.08 28.19,16.48 26.76,15.96 25.34,15.44 24.91,13.51 24.49,11.59 24.91,10.19 25.34,8.80 26.24,7.25 27.14,5.70 28.31,4.24 29.48,2.77 30.02,1.07 30.56,-0.63 30.87,-2.11 31.18,-3.59 31.10,-4.91 31.01,-6.23 29.43,-6.22 27.85,-6.21 25.04,-6.06 22.23,-5.91 18.89,-5.63 15.56,-5.35 12.59,-4.82 9.63,-4.28 8.21,-3.75 6.79,-3.22 4.82,-2.02 2.84,-0.82 2.33,0.04 1.82,0.91 1.68,1.11 1.55,1.32 1.37,1.48 1.19,1.65 0.97,1.77 0.76,1.89 0.52,1.95 0.28,2.01 0.03,2.02 -0.20,2.02 -0.44,1.97 -0.68,1.91 -0.90,1.80 -1.12,1.69 -1.31,1.54 -1.49,1.38 -1.64,1.18 -1.78,0.98 -1.87,0.75 -1.96,0.52 -2.00,0.28 -2.03,0.03 -2.01,-0.20 -1.98,-0.44 -1.90,-0.68 -1.82,-0.91 -1.82,-0.91 L -1.82,-0.91 Z"></path></g><g transform="translate(445.60003662109375 64.46249389648438) rotate(0 62.399993896484375 -5.20001220703125)" stroke="none"><path fill="#000" d="M -0.23,-1.90 Q -0.23,-1.90 1.60,-2.11 3.44,-2.33 8.03,-3.48 12.61,-4.63 17.19,-5.57 21.76,-6.51 28.94,-8.49 36.12,-10.47 41.43,-12.44 46.75,-14.40 49.73,-15.47 52.71,-16.53 54.40,-17.26 56.08,-17.98 57.11,-18.41 58.15,-18.83 60.33,-18.24 62.51,-17.65 64.07,-15.84 65.62,-14.02 67.98,-11.73 70.34,-9.44 72.07,-7.47 73.81,-5.49 76.67,-3.63 79.53,-1.77 83.49,0.18 87.45,2.14 91.77,3.18 96.10,4.22 99.09,4.68 102.08,5.14 105.57,5.11 109.05,5.08 113.41,3.94 117.78,2.80 119.69,2.28 121.60,1.76 121.83,1.74 122.06,1.72 122.28,1.77 122.50,1.83 122.70,1.95 122.89,2.07 123.03,2.25 123.18,2.42 123.26,2.64 123.34,2.85 123.35,3.08 123.36,3.31 123.29,3.52 123.23,3.74 123.09,3.93 122.96,4.12 122.78,4.25 122.59,4.39 122.38,4.46 122.16,4.52 121.93,4.52 121.70,4.52 121.49,4.44 121.27,4.36 121.09,4.22 120.91,4.08 120.79,3.89 120.66,3.70 120.61,3.47 120.55,3.25 120.57,3.03 120.58,2.80 120.67,2.59 120.76,2.38 120.91,2.21 121.06,2.03 121.26,1.92 121.46,1.81 121.68,1.76 121.91,1.72 122.13,1.75 122.36,1.77 122.56,1.87 122.77,1.97 122.93,2.13 123.09,2.29 123.20,2.50 123.30,2.70 123.33,2.93 123.37,3.15 123.33,3.38 123.28,3.60 123.17,3.80 123.06,4.00 122.89,4.16 122.73,4.31 122.52,4.40 122.31,4.49 122.31,4.49 122.31,4.49 120.38,4.96 118.45,5.43 113.78,6.63 109.10,7.82 105.39,7.86 101.68,7.90 98.56,7.45 95.44,7.00 90.80,5.90 86.17,4.79 82.02,2.80 77.88,0.80 74.66,-1.24 71.45,-3.29 69.71,-5.10 67.98,-6.91 65.41,-9.19 62.85,-11.48 61.16,-13.28 59.46,-15.09 58.34,-15.13 57.21,-15.16 55.45,-14.51 53.70,-13.85 50.74,-12.74 47.78,-11.64 42.37,-9.58 36.95,-7.51 29.70,-5.43 22.45,-3.35 17.98,-2.31 13.50,-1.27 8.71,0.06 3.91,1.41 2.07,1.65 0.23,1.90 0.00,1.90 -0.22,1.90 -0.44,1.85 -0.67,1.79 -0.87,1.69 -1.08,1.58 -1.25,1.43 -1.43,1.27 -1.56,1.08 -1.69,0.89 -1.78,0.68 -1.86,0.46 -1.89,0.23 -1.92,0.00 -1.89,-0.22 -1.86,-0.45 -1.78,-0.66 -1.70,-0.88 -1.57,-1.07 -1.44,-1.26 -1.26,-1.42 -1.09,-1.57 -0.89,-1.68 -0.68,-1.79 -0.46,-1.84 -0.23,-1.90 -0.23,-1.90 L -0.23,-1.90 Z"></path></g></svg>