<svg version="1.1" xmlns="http://www.w3.org/2000/svg" viewBox="0 0 509.20001220703125 142.46249389648438" width="509.20001220703125" height="142.46249389648438">
  <!-- svg-source:excalidraw -->
  
  <defs>
    <style>
      @font-face {
        font-family: "Virgil";
        src: url("https://excalidraw.com/Virgil.woff2");
      }
      @font-face {
        font-family: "Cascadia";
        src: url("https://excalidraw.com/Cascadia.woff2");
      }
    </style>
  </defs>
  <rect x="0" y="0" width="509.20001220703125" height="142.46249389648438" fill="#fff0"></rect><g stroke-linecap="round" transform="translate(10 10) rotate(0 0.5 0.5)"><path d="M-0.06 -0.03 C0.4 -0.08, 0.7 0.04, 0.91 0.03 M0.05 -0.04 C0.42 -0.05, 0.75 0.03, 0.99 0.01 M1.08 -0.06 C1.09 0.27, 1.05 0.48, 1.09 0.92 M0.97 0.01 C0.95 0.33, 0.98 0.72, 1 0.99 M1.03 1.06 C0.65 1.06, 0.49 0.96, -0.03 0.97 M1 1.02 C0.74 0.96, 0.52 1.04, -0.04 0.98 M-0.04 1.01 C0 0.63, -0.06 0.15, 0.05 -0.03 M-0.04 0.95 C-0.04 0.73, -0.03 0.59, -0.05 -0.02" stroke="transparent" stroke-width="1" fill="none"></path></g><g transform="translate(110.4000244140625 68.46249389648438) rotate(0 32.79998779296875 26.800003051757812)" stroke="none"><path fill="#000" d="M -1.10,-1.10 Q -1.10,-1.10 1.68,-3.84 4.47,-6.58 6.96,-8.08 9.46,-9.57 13.92,-10.24 18.38,-10.91 24.38,-11.16 30.37,-11.40 36.13,-11.50 41.89,-11.60 47.22,-10.71 52.55,-9.81 55.67,-8.19 58.80,-6.57 60.48,-4.10 62.16,-1.63 62.86,1.15 63.57,3.94 62.91,7.61 62.24,11.28 57.95,17.33 53.65,23.38 46.03,30.32 38.41,37.26 32.90,42.02 27.39,46.78 21.10,51.36 14.81,55.94 11.21,58.34 7.61,60.75 5.88,61.99 4.14,63.22 3.69,63.61 3.24,63.99 3.08,64.08 2.92,64.17 2.74,64.21 2.56,64.26 2.38,64.26 2.19,64.27 2.01,64.23 1.84,64.18 1.67,64.10 1.51,64.02 1.37,63.90 1.23,63.78 1.12,63.63 1.02,63.48 0.95,63.31 0.88,63.14 0.86,62.96 0.83,62.77 0.85,62.59 0.87,62.41 0.93,62.24 0.99,62.06 1.10,61.91 1.20,61.76 1.33,61.63 1.47,61.51 4.06,59.60 6.65,57.69 10.65,56.12 14.64,54.55 18.19,53.66 21.74,52.78 25.15,52.40 28.55,52.02 30.43,51.81 32.31,51.60 33.84,51.44 35.37,51.27 36.98,51.66 38.60,52.05 40.36,52.70 42.11,53.36 43.71,54.39 45.31,55.42 48.17,56.24 51.02,57.06 54.28,57.46 57.54,57.86 60.88,57.97 64.23,58.08 64.52,58.15 64.80,58.22 65.05,58.37 65.30,58.53 65.49,58.75 65.68,58.98 65.78,59.25 65.89,59.53 65.90,59.82 65.91,60.11 65.83,60.40 65.75,60.68 65.58,60.92 65.41,61.16 65.18,61.34 64.94,61.51 64.66,61.60 64.38,61.69 64.09,61.69 63.79,61.69 63.52,61.59 63.24,61.49 63.01,61.31 62.77,61.13 62.61,60.88 62.45,60.64 62.38,60.35 62.30,60.07 62.32,59.78 62.34,59.48 62.45,59.21 62.56,58.94 62.76,58.72 62.95,58.50 63.20,58.35 63.46,58.20 63.74,58.14 64.03,58.08 64.32,58.12 64.62,58.15 64.88,58.28 65.15,58.41 65.36,58.61 65.57,58.81 65.70,59.08 65.84,59.34 65.88,59.63 65.93,59.92 65.87,60.21 65.82,60.50 65.68,60.76 65.54,61.01 65.33,61.21 65.11,61.41 64.84,61.53 64.57,61.65 64.28,61.68 63.99,61.71 63.99,61.71 63.99,61.71 60.59,61.38 57.19,61.04 53.65,60.70 50.11,60.36 46.70,59.44 43.29,58.52 42.05,57.62 40.82,56.73 39.15,56.10 37.48,55.47 36.46,54.99 35.44,54.51 33.99,54.48 32.55,54.45 30.70,54.55 28.84,54.66 25.61,55.01 22.38,55.36 19.00,56.21 15.61,57.05 11.92,58.46 8.24,59.87 5.74,61.93 3.24,63.99 3.08,64.08 2.92,64.17 2.74,64.21 2.56,64.26 2.38,64.26 2.19,64.27 2.01,64.23 1.84,64.18 1.67,64.10 1.51,64.02 1.37,63.90 1.23,63.78 1.12,63.63 1.02,63.48 0.95,63.31 0.88,63.14 0.86,62.96 0.83,62.77 0.85,62.59 0.87,62.41 0.93,62.24 0.99,62.06 1.10,61.91 1.20,61.76 1.33,61.63 1.47,61.51 2.04,61.30 2.62,61.08 4.38,59.82 6.15,58.56 9.70,56.19 13.26,53.81 19.46,49.29 25.67,44.78 31.15,40.04 36.64,35.31 44.08,28.57 51.52,21.83 55.60,16.25 59.69,10.68 60.34,7.57 60.99,4.46 60.45,2.11 59.91,-0.23 58.66,-2.27 57.42,-4.32 54.74,-5.74 52.07,-7.16 47.00,-8.02 41.93,-8.87 36.21,-8.76 30.49,-8.64 24.63,-8.38 18.77,-8.12 14.82,-7.59 10.86,-7.07 8.71,-5.76 6.56,-4.45 3.83,-1.67 1.10,1.10 0.95,1.22 0.80,1.33 0.63,1.41 0.46,1.49 0.27,1.52 0.09,1.55 -0.09,1.54 -0.28,1.53 -0.46,1.48 -0.64,1.42 -0.80,1.32 -0.96,1.22 -1.09,1.09 -1.22,0.96 -1.32,0.80 -1.42,0.64 -1.48,0.46 -1.53,0.28 -1.54,0.09 -1.55,-0.09 -1.52,-0.27 -1.49,-0.46 -1.41,-0.63 -1.33,-0.80 -1.22,-0.95 -1.10,-1.10 -1.10,-1.10 L -1.10,-1.10 Z"></path></g><g transform="translate(220.79998779296875 76.46249389648438) rotate(0 0 25.600006103515625)" stroke="none"><path fill="#000" d="M 1.74,0 Q 1.74,0 1.68,2.3 1.62,4.6 1.58,7.87 1.54,11.15 1.51,13.92 1.48,16.70 1.45,20.86 1.43,25.03 1.41,29.79 1.40,34.56 1.38,37.96 1.37,41.36 1.49,45.39 1.62,49.42 1.57,49.68 1.53,49.94 1.41,50.17 1.29,50.40 1.09,50.58 0.90,50.76 0.67,50.87 0.43,50.98 0.17,51.01 -0.08,51.04 -0.34,50.98 -0.59,50.92 -0.82,50.79 -1.04,50.65 -1.21,50.45 -1.38,50.25 -1.48,50.01 -1.58,49.77 -1.59,49.51 -1.61,49.24 -1.54,48.99 -1.47,48.74 -1.32,48.52 -1.17,48.30 -0.96,48.15 -0.75,47.99 -0.51,47.90 -0.26,47.82 0.00,47.82 0.26,47.82 0.51,47.90 0.75,47.99 0.96,48.15 1.17,48.30 1.32,48.52 1.47,48.74 1.54,48.99 1.61,49.24 1.59,49.51 1.58,49.77 1.48,50.01 1.38,50.25 1.21,50.45 1.04,50.65 0.82,50.79 0.59,50.92 0.34,50.98 0.08,51.04 -0.17,51.01 -0.43,50.98 -0.67,50.87 -0.90,50.76 -1.10,50.58 -1.29,50.40 -1.41,50.17 -1.53,49.94 -1.57,49.68 -1.62,49.42 -1.62,49.42 -1.62,49.42 -1.49,45.39 -1.37,41.36 -1.38,37.96 -1.40,34.56 -1.41,29.79 -1.43,25.03 -1.45,20.86 -1.48,16.70 -1.51,13.92 -1.54,11.15 -1.58,7.87 -1.62,4.6 -1.68,2.3 -1.74,0 -1.71,-0.20 -1.69,-0.41 -1.61,-0.61 -1.54,-0.81 -1.42,-0.98 -1.30,-1.15 -1.14,-1.29 -0.99,-1.43 -0.80,-1.53 -0.61,-1.63 -0.41,-1.68 -0.21,-1.73 0.00,-1.73 0.21,-1.73 0.41,-1.68 0.61,-1.63 0.80,-1.53 0.99,-1.43 1.14,-1.29 1.30,-1.15 1.42,-0.98 1.54,-0.81 1.61,-0.61 1.69,-0.41 1.71,-0.20 1.74,0.00 1.74,0.00 L 1.74,0 Z"></path></g><g transform="translate(210.4000244140625 105.26251220703125) rotate(0 17.199981689453125 -2)" stroke="none"><path fill="#000" d="M -0.36,-1.81 Q -0.36,-1.81 1.95,-2.20 4.26,-2.59 8.12,-2.75 11.99,-2.90 14.92,-3.17 17.85,-3.45 21.41,-3.78 24.98,-4.12 28.73,-4.77 32.48,-5.43 32.75,-5.43 33.03,-5.42 33.29,-5.33 33.54,-5.24 33.76,-5.07 33.98,-4.90 34.13,-4.67 34.27,-4.44 34.34,-4.17 34.41,-3.90 34.39,-3.63 34.37,-3.36 34.26,-3.10 34.16,-2.85 33.98,-2.65 33.79,-2.44 33.56,-2.30 33.32,-2.17 33.05,-2.11 32.78,-2.06 32.51,-2.09 32.24,-2.13 31.99,-2.25 31.74,-2.37 31.55,-2.56 31.35,-2.75 31.23,-3.00 31.10,-3.24 31.06,-3.51 31.03,-3.79 31.07,-4.06 31.12,-4.33 31.26,-4.57 31.39,-4.81 31.59,-4.99 31.80,-5.18 32.05,-5.29 32.30,-5.40 32.57,-5.42 32.85,-5.45 33.11,-5.38 33.38,-5.32 33.61,-5.17 33.84,-5.03 34.02,-4.81 34.19,-4.60 34.29,-4.34 34.39,-4.09 34.39,-3.81 34.40,-3.54 34.33,-3.27 34.25,-3.01 34.09,-2.79 33.93,-2.56 33.71,-2.40 33.49,-2.24 33.23,-2.16 32.96,-2.07 32.96,-2.07 32.96,-2.07 29.12,-1.64 25.28,-1.20 21.72,-0.81 18.17,-0.42 15.16,-0.06 12.15,0.28 8.54,0.51 4.93,0.75 2.64,1.28 0.36,1.81 0.14,1.83 -0.08,1.84 -0.30,1.81 -0.52,1.77 -0.72,1.68 -0.93,1.59 -1.10,1.46 -1.28,1.32 -1.42,1.15 -1.56,0.98 -1.66,0.78 -1.75,0.57 -1.80,0.36 -1.84,0.14 -1.83,-0.08 -1.82,-0.30 -1.76,-0.51 -1.69,-0.73 -1.58,-0.92 -1.47,-1.11 -1.31,-1.27 -1.16,-1.43 -0.97,-1.55 -0.78,-1.67 -0.57,-1.74 -0.36,-1.81 -0.36,-1.81 L -0.36,-1.81 Z"></path></g><g transform="translate(256 63.662506103515625) rotate(0 41.600006103515625 28.399993896484375)" stroke="none"><path fill="#000" d="M -0.82,-1.44 Q -0.82,-1.44 0.79,-2.38 2.41,-3.32 8.21,-4.22 14.00,-5.11 19.17,-5.44 24.34,-5.77 30.23,-5.90 36.11,-6.03 42.52,-6.07 48.93,-6.12 53.82,-5.44 58.71,-4.75 61.13,-4.15 63.56,-3.55 64.93,-1.88 66.29,-0.22 66.07,2.39 65.85,5.00 64.22,7.58 62.60,10.17 58.85,13.57 55.09,16.98 52.35,19.09 49.61,21.20 48.24,22.19 46.87,23.18 46.56,23.63 46.25,24.08 46.06,24.17 45.88,24.26 45.67,24.31 45.47,24.35 45.26,24.34 45.06,24.34 44.86,24.28 44.66,24.22 44.48,24.12 44.30,24.02 44.15,23.88 44.00,23.74 43.89,23.56 43.77,23.39 43.71,23.19 43.64,23.00 43.62,22.79 43.60,22.58 43.63,22.38 43.66,22.18 43.74,21.98 43.82,21.79 43.95,21.63 44.07,21.46 44.23,21.33 44.39,21.20 46.93,21.54 49.47,21.89 51.71,22.56 53.96,23.23 57.74,24.94 61.52,26.64 67.29,29.92 73.05,33.20 75.93,34.81 78.82,36.43 80.46,38.22 82.10,40.00 82.85,43.28 83.60,46.57 82.88,49.80 82.15,53.03 79.37,55.24 76.58,57.45 71.85,59.04 67.13,60.63 62.07,61.30 57.02,61.96 51.98,61.08 46.93,60.19 44.06,59.09 41.19,58.00 39.33,57.35 37.47,56.70 35.43,54.97 33.39,53.24 33.29,53.01 33.19,52.79 33.17,52.54 33.15,52.30 33.21,52.06 33.27,51.82 33.40,51.61 33.54,51.41 33.73,51.25 33.92,51.10 34.15,51.01 34.38,50.93 34.63,50.92 34.88,50.92 35.11,50.99 35.35,51.06 35.54,51.21 35.74,51.35 35.89,51.55 36.03,51.75 36.10,51.98 36.17,52.22 36.17,52.47 36.16,52.71 36.07,52.94 35.99,53.17 35.84,53.36 35.68,53.56 35.47,53.69 35.27,53.82 35.03,53.88 34.79,53.94 34.54,53.92 34.30,53.90 34.07,53.80 33.85,53.70 33.66,53.54 33.48,53.37 33.36,53.16 33.24,52.94 33.19,52.70 33.15,52.46 33.18,52.22 33.21,51.97 33.32,51.75 33.43,51.53 33.61,51.36 33.78,51.19 34.00,51.08 34.22,50.97 34.47,50.94 34.71,50.90 34.95,50.95 35.19,51.00 35.41,51.12 35.62,51.24 35.79,51.42 35.95,51.61 35.95,51.61 35.95,51.61 37.19,52.86 38.42,54.10 40.28,54.82 42.14,55.54 44.77,56.57 47.41,57.60 52.06,58.47 56.72,59.34 61.51,58.73 66.30,58.11 70.67,56.70 75.03,55.29 77.41,53.67 79.78,52.06 80.37,49.53 80.96,47.01 80.47,44.33 79.99,41.66 78.71,40.24 77.44,38.82 74.55,37.23 71.66,35.65 66.00,32.46 60.35,29.28 56.74,27.69 53.14,26.11 50.99,25.53 48.85,24.95 47.55,24.51 46.25,24.08 46.06,24.17 45.88,24.26 45.67,24.30 45.47,24.35 45.26,24.34 45.06,24.34 44.86,24.28 44.66,24.22 44.48,24.12 44.30,24.02 44.15,23.88 44.00,23.74 43.89,23.56 43.77,23.39 43.71,23.19 43.64,23.00 43.62,22.79 43.60,22.58 43.63,22.38 43.66,22.18 43.74,21.98 43.82,21.79 43.95,21.63 44.07,21.46 44.23,21.33 44.39,21.20 44.78,20.89 45.18,20.59 46.56,19.81 47.93,19.03 50.58,16.97 53.22,14.91 56.72,11.75 60.22,8.59 61.60,6.55 62.97,4.51 63.31,2.74 63.65,0.97 63.09,-0.09 62.53,-1.16 60.43,-1.58 58.33,-2.00 53.64,-2.64 48.95,-3.28 42.57,-3.19 36.19,-3.11 30.37,-2.93 24.56,-2.75 19.52,-2.36 14.49,-1.96 9.25,-1.16 4.02,-0.35 2.42,0.54 0.82,1.44 0.64,1.52 0.45,1.60 0.25,1.63 0.05,1.66 -0.14,1.64 -0.34,1.63 -0.53,1.56 -0.72,1.50 -0.89,1.39 -1.06,1.28 -1.19,1.14 -1.33,0.99 -1.43,0.82 -1.53,0.64 -1.59,0.45 -1.64,0.26 -1.65,0.05 -1.66,-0.14 -1.62,-0.33 -1.57,-0.53 -1.49,-0.71 -1.40,-0.89 -1.27,-1.05 -1.14,-1.20 -0.98,-1.32 -0.82,-1.44 -0.82,-1.44 L -0.82,-1.44 Z"></path></g><g transform="translate(375.20001220703125 92.46249389648438) rotate(0 12.79998779296875 -0.399993896484375)" stroke="none"><path fill="#000" d="M -0.11,-1.98 Q -0.11,-1.98 3.79,-2.12 7.71,-2.26 9.85,-2.29 11.98,-2.33 15.67,-2.32 19.36,-2.31 21.91,-2.44 24.46,-2.57 24.74,-2.52 25.03,-2.48 25.28,-2.35 25.54,-2.22 25.74,-2.01 25.94,-1.80 26.06,-1.54 26.19,-1.28 26.22,-0.99 26.26,-0.70 26.20,-0.42 26.14,-0.14 25.99,0.10 25.84,0.35 25.63,0.54 25.41,0.73 25.14,0.84 24.87,0.95 24.59,0.96 24.30,0.98 24.02,0.91 23.74,0.83 23.50,0.67 23.26,0.51 23.08,0.29 22.90,0.06 22.81,-0.21 22.71,-0.48 22.71,-0.77 22.71,-1.06 22.80,-1.33 22.89,-1.60 23.06,-1.84 23.23,-2.07 23.47,-2.23 23.71,-2.40 23.99,-2.48 24.26,-2.56 24.55,-2.54 24.84,-2.53 25.11,-2.43 25.38,-2.32 25.60,-2.14 25.82,-1.95 25.97,-1.71 26.12,-1.46 26.19,-1.18 26.25,-0.90 26.23,-0.61 26.20,-0.32 26.08,-0.06 25.96,0.19 25.76,0.40 25.57,0.62 25.31,0.75 25.06,0.89 24.77,0.94 24.49,0.99 24.49,0.99 24.49,0.99 21.95,0.91 19.40,0.83 15.77,0.92 12.14,1.01 10.03,1.18 7.92,1.34 4.02,1.66 0.11,1.98 -0.12,1.97 -0.36,1.95 -0.59,1.88 -0.82,1.81 -1.02,1.68 -1.23,1.56 -1.40,1.39 -1.56,1.22 -1.69,1.01 -1.81,0.81 -1.88,0.58 -1.95,0.35 -1.97,0.11 -1.98,-0.12 -1.94,-0.35 -1.90,-0.59 -1.80,-0.81 -1.70,-1.03 -1.55,-1.22 -1.40,-1.41 -1.21,-1.55 -1.02,-1.70 -0.80,-1.80 -0.58,-1.90 -0.35,-1.94 -0.11,-1.98 -0.11,-1.98 L -0.11,-1.98 Z"></path></g><g transform="translate(379.20001220703125 102.86248779296875) rotate(0 11.600006103515625 0)" stroke="none"><path fill="#000" d="M 0,-2.10 Q 0,-2.10 1.84,-2.06 3.68,-2.03 6.07,-1.93 8.46,-1.84 12.01,-1.76 15.55,-1.69 17.29,-1.73 19.03,-1.76 20.73,-1.84 22.44,-1.91 22.75,-1.86 23.05,-1.81 23.33,-1.67 23.60,-1.52 23.82,-1.30 24.03,-1.07 24.16,-0.79 24.29,-0.51 24.32,-0.20 24.36,0.10 24.29,0.40 24.22,0.70 24.06,0.97 23.90,1.24 23.67,1.44 23.43,1.64 23.14,1.75 22.85,1.87 22.54,1.88 22.23,1.90 21.94,1.82 21.64,1.73 21.38,1.56 21.12,1.39 20.94,1.14 20.75,0.89 20.65,0.60 20.55,0.30 20.55,-0.00 20.55,-0.31 20.65,-0.60 20.75,-0.89 20.94,-1.14 21.12,-1.39 21.38,-1.56 21.64,-1.73 21.94,-1.82 22.24,-1.90 22.54,-1.88 22.85,-1.87 23.14,-1.75 23.43,-1.64 23.67,-1.44 23.90,-1.24 24.06,-0.97 24.22,-0.70 24.29,-0.40 24.36,-0.10 24.32,0.20 24.29,0.51 24.16,0.79 24.03,1.07 23.81,1.30 23.60,1.52 23.33,1.67 23.05,1.81 22.75,1.86 22.44,1.91 22.44,1.91 22.44,1.91 20.73,1.84 19.03,1.76 17.29,1.73 15.55,1.69 12.01,1.76 8.46,1.84 6.07,1.93 3.68,2.03 1.84,2.06 0,2.10 -0.25,2.06 -0.50,2.03 -0.73,1.94 -0.97,1.85 -1.18,1.71 -1.39,1.57 -1.56,1.38 -1.72,1.19 -1.84,0.96 -1.96,0.74 -2.02,0.49 -2.08,0.25 -2.08,-0.00 -2.08,-0.25 -2.02,-0.49 -1.96,-0.74 -1.84,-0.96 -1.72,-1.19 -1.56,-1.38 -1.39,-1.57 -1.18,-1.71 -0.97,-1.85 -0.73,-1.94 -0.50,-2.03 -0.25,-2.07 0.00,-2.10 0.00,-2.10 L 0,-2.10 Z"></path></g><g transform="translate(432 76.46249389648438) rotate(0 18.399993896484375 20.800003051757812)" stroke="none"><path fill="#000" d="M 1.52,1.10 Q 1.52,1.10 -0.37,3.59 -2.27,6.07 -3.27,7.43 -4.26,8.78 -5.26,8.40 -6.26,8.02 -2.22,7.92 1.81,7.83 5.65,7.87 9.50,7.91 13.67,7.96 17.84,8.00 20.76,8.03 23.68,8.07 25.16,7.98 26.65,7.89 28.30,8.35 29.95,8.81 31.53,10.38 33.11,11.94 34.76,13.97 36.41,15.99 38.04,18.29 39.67,20.58 41.11,24.00 42.55,27.41 43.35,29.51 44.15,31.61 44.53,33.78 44.92,35.96 44.81,37.71 44.70,39.45 43.29,40.71 41.88,41.98 38.95,42.38 36.01,42.77 32.88,42.41 29.76,42.04 27.95,41.70 26.14,41.36 24.45,40.46 22.77,39.56 21.37,38.32 19.97,37.08 19.78,36.83 19.60,36.58 19.51,36.28 19.41,35.98 19.42,35.67 19.42,35.36 19.53,35.07 19.63,34.77 19.83,34.53 20.02,34.29 20.28,34.12 20.54,33.95 20.85,33.87 21.15,33.79 21.46,33.82 21.77,33.84 22.06,33.96 22.34,34.08 22.58,34.29 22.81,34.49 22.96,34.76 23.12,35.03 23.18,35.34 23.24,35.64 23.20,35.95 23.16,36.26 23.03,36.54 22.89,36.82 22.67,37.04 22.45,37.26 22.17,37.41 21.90,37.55 21.59,37.59 21.28,37.63 20.97,37.58 20.67,37.52 20.39,37.37 20.12,37.22 19.91,36.99 19.70,36.76 19.58,36.47 19.45,36.19 19.43,35.88 19.40,35.57 19.47,35.26 19.54,34.96 19.71,34.70 19.88,34.43 20.12,34.24 20.36,34.04 20.65,33.93 20.94,33.82 21.25,33.81 21.56,33.80 21.86,33.89 22.16,33.98 22.41,34.16 22.67,34.34 22.67,34.34 22.67,34.34 23.64,35.43 24.61,36.53 25.75,37.32 26.90,38.11 28.50,38.49 30.10,38.88 32.85,39.15 35.59,39.42 37.80,39.15 40.01,38.87 41.03,37.65 42.04,36.43 41.73,34.55 41.42,32.67 40.58,30.64 39.75,28.61 38.42,25.54 37.09,22.47 35.45,20.35 33.81,18.23 32.10,16.35 30.39,14.47 29.47,13.35 28.55,12.22 27.57,11.77 26.59,11.31 25.14,11.23 23.68,11.14 20.77,11.19 17.85,11.24 13.69,11.31 9.54,11.39 5.71,11.50 1.89,11.62 -2.39,11.70 -6.67,11.79 -7.52,10.15 -8.36,8.52 -7.75,7.54 -7.14,6.55 -6.11,5.30 -5.08,4.04 -3.30,1.46 -1.52,-1.10 -1.37,-1.27 -1.21,-1.44 -1.02,-1.56 -0.83,-1.69 -0.62,-1.76 -0.40,-1.84 -0.17,-1.86 0.04,-1.88 0.27,-1.85 0.49,-1.82 0.70,-1.73 0.91,-1.64 1.10,-1.51 1.28,-1.38 1.43,-1.20 1.57,-1.03 1.67,-0.82 1.78,-0.62 1.82,-0.40 1.87,-0.18 1.87,0.04 1.86,0.27 1.80,0.49 1.74,0.71 1.63,0.91 1.52,1.10 1.52,1.10 L 1.52,1.10 Z"></path></g><g transform="translate(433.60003662109375 79.66250610351562) rotate(0 32.79998779296875 -2.8000030517578125)" stroke="none"><path fill="#000" d="M -0.30,-1.72 Q -0.30,-1.72 3.61,-2.35 7.53,-2.98 12.00,-3.47 16.48,-3.96 20.63,-4.60 24.78,-5.25 31.24,-5.53 37.70,-5.80 45.01,-6.14 52.32,-6.47 56.12,-6.61 59.93,-6.75 61.54,-6.90 63.15,-7.05 63.40,-7.02 63.65,-6.99 63.87,-6.88 64.10,-6.77 64.28,-6.60 64.46,-6.42 64.57,-6.20 64.69,-5.97 64.73,-5.73 64.76,-5.48 64.72,-5.23 64.67,-4.98 64.55,-4.76 64.43,-4.54 64.25,-4.37 64.06,-4.20 63.83,-4.10 63.60,-4.00 63.35,-3.97 63.10,-3.95 62.86,-4.01 62.61,-4.07 62.40,-4.20 62.19,-4.33 62.03,-4.53 61.87,-4.72 61.78,-4.95 61.69,-5.19 61.68,-5.44 61.67,-5.69 61.74,-5.93 61.81,-6.17 61.95,-6.38 62.10,-6.59 62.30,-6.73 62.50,-6.88 62.74,-6.96 62.98,-7.04 63.23,-7.03 63.48,-7.03 63.72,-6.95 63.96,-6.86 64.16,-6.71 64.35,-6.55 64.49,-6.34 64.63,-6.13 64.69,-5.89 64.76,-5.65 64.74,-5.39 64.72,-5.14 64.62,-4.91 64.53,-4.68 64.36,-4.49 64.20,-4.30 63.98,-4.18 63.76,-4.05 63.52,-4.00 63.27,-3.95 63.27,-3.95 63.27,-3.95 61.65,-3.97 60.04,-4.00 56.25,-3.83 52.46,-3.67 45.15,-3.30 37.83,-2.93 31.54,-2.63 25.25,-2.32 21.05,-1.60 16.84,-0.89 12.47,-0.33 8.10,0.22 4.20,0.97 0.30,1.72 0.09,1.73 -0.11,1.74 -0.32,1.70 -0.53,1.66 -0.72,1.58 -0.91,1.49 -1.08,1.36 -1.24,1.22 -1.37,1.06 -1.50,0.89 -1.58,0.70 -1.67,0.50 -1.71,0.30 -1.74,0.09 -1.73,-0.11 -1.72,-0.32 -1.65,-0.52 -1.59,-0.72 -1.48,-0.90 -1.37,-1.08 -1.22,-1.23 -1.07,-1.38 -0.88,-1.49 -0.70,-1.60 -0.50,-1.66 -0.30,-1.72 -0.30,-1.72 L -0.30,-1.72 Z"></path></g></svg>